<svg xmlns="http://www.w3.org/2000/svg" xmlns:v="https://svgstorm.com"
viewBox = "0 0 2057 1244"
width="2057"
height="1244">
<g fill="None" fill-opacity="0.0" stroke="#000000" stroke-opacity="1.00" stroke-width="0.3"><path d="
M 0.00 1244.00 
L 2057.00 1244.00
L 2057.00 0.00
L 0.00 0.00
L 0.00 1244.00
M 1542.00 526.00 
C 1558.30 527.74 1557.72 552.76 1571.08 558.92 C 1584.45 565.07 1592.62 538.05 1601.75 530.75 C 1610.89 523.45 1615.13 526.42 1621.75 532.25 C 1628.38 538.08 1629.66 544.56 1634.30 550.70 C 1638.95 556.83 1644.84 565.35 1651.75 557.75 C 1658.66 550.16 1658.94 548.29 1665.25 539.25 C 1671.57 530.22 1675.26 536.10 1668.75 543.75 C 1662.23 551.39 1662.02 555.03 1655.75 561.75 C 1649.48 568.48 1640.96 567.77 1635.75 561.25 C 1630.54 554.72 1626.00 549.74 1622.25 542.75 C 1618.49 535.77 1611.61 529.05 1605.25 535.25 C 1598.88 541.44 1596.82 547.15 1592.23 553.23 C 1587.65 559.31 1583.33 567.44 1574.98 566.98 C 1566.62 566.51 1562.93 557.50 1558.23 551.77 C 1553.53 546.04 1551.31 539.06 1544.77 534.23 C 1538.23 529.41 1531.45 536.74 1527.75 543.75 C 1524.04 550.75 1520.65 554.79 1514.75 561.75 C 1508.85 568.71 1500.67 566.50 1494.25 560.75 C 1487.83 555.00 1486.25 543.84 1493.75 550.25 C 1501.26 556.66 1500.21 564.98 1510.75 557.75 C 1521.29 550.52 1525.82 524.27 1542.00 526.00
M 508.00 530.00 
C 508.00 537.00 508.00 544.00 508.00 551.00
C 501.00 551.00 494.00 551.00 487.00 551.00
C 487.00 544.00 487.00 537.00 487.00 530.00
C 494.00 530.00 501.00 530.00 508.00 530.00
M 1048.00 571.00 
C 1043.67 571.00 1039.33 571.00 1035.00 571.00
C 1034.14 559.81 1027.37 549.88 1016.92 545.08 C 1006.47 540.27 990.74 540.49 980.92 546.92 C 971.10 553.35 965.16 562.40 962.67 573.67 C 960.19 584.94 960.56 600.60 965.93 611.07 C 971.29 621.55 978.52 628.54 990.07 631.93 C 1001.63 635.31 1015.22 632.46 1024.75 624.75 C 1034.28 617.04 1032.00 598.27 1048.00 603.00
C 1046.97 641.13 996.14 657.70 968.77 634.23 C 941.41 610.76 940.95 565.48 967.75 541.75 C 994.56 518.03 1045.74 532.06 1048.00 571.00
M 1256.00 531.00 
C 1256.00 536.00 1256.00 541.00 1256.00 546.00
C 1251.00 546.00 1246.00 546.00 1241.00 546.00
C 1242.42 542.29 1238.77 534.78 1241.78 531.78 C 1244.79 528.78 1252.27 532.41 1256.00 531.00
M 1433.00 531.00 
C 1433.00 568.33 1433.00 605.67 1433.00 643.00
C 1429.00 643.00 1425.00 643.00 1421.00 643.00
C 1421.01 605.67 1421.00 568.33 1421.00 531.00
C 1425.00 531.00 1429.00 531.00 1433.00 531.00
M 423.00 623.00 
C 425.77 616.37 428.12 609.81 430.77 602.77 C 433.42 595.73 434.90 588.97 437.78 581.78 C 440.65 574.58 442.59 567.72 444.98 559.98 C 447.36 552.23 451.00 548.36 452.32 539.32 C 453.64 530.29 465.55 531.25 474.00 532.00
C 461.89 569.35 447.00 605.89 434.00 643.00
C 426.33 643.00 418.67 643.00 411.00 643.00
C 397.42 606.00 384.15 568.85 370.00 532.00
C 381.95 529.52 393.10 531.87 394.93 543.07 C 396.75 554.28 401.44 560.07 403.98 570.02 C 406.51 579.97 410.91 587.13 413.32 596.68 C 415.73 606.23 419.69 614.23 423.00 623.00
M 547.00 532.00 
C 547.67 546.83 545.67 562.99 548.00 577.00
C 557.40 558.08 587.02 558.37 599.75 574.25 C 612.48 590.12 612.64 616.92 599.75 632.75 C 586.86 648.58 557.89 649.55 548.00 631.00
C 545.81 634.09 547.57 639.16 547.00 643.00
C 540.67 643.00 534.33 643.00 528.00 643.00
C 528.00 606.00 528.00 569.00 528.00 532.00
C 534.33 532.00 540.67 532.00 547.00 532.00
M 888.00 539.00 
C 888.00 547.33 888.00 555.67 888.00 564.00
C 895.00 564.00 902.00 564.00 909.00 564.00
C 909.00 569.00 909.00 574.00 909.00 579.00
C 902.00 579.00 895.00 579.00 888.00 579.00
C 886.69 591.31 889.75 602.58 888.00 615.00 C 886.25 627.42 898.36 632.08 909.00 628.00
C 909.00 633.00 909.00 638.00 909.00 643.00
C 896.28 645.42 876.57 646.78 870.70 631.31 C 864.82 615.83 869.54 595.77 868.00 579.00
C 863.00 579.00 858.00 579.00 853.00 579.00
C 853.00 574.00 853.00 569.00 853.00 564.00
C 858.00 564.00 863.00 564.00 868.00 564.00
C 868.00 558.00 868.00 552.00 868.00 546.00
C 874.77 544.04 881.26 541.12 888.00 539.00
M 1298.00 541.00 
C 1298.00 548.67 1298.00 556.33 1298.00 564.00
C 1306.00 564.00 1314.00 564.00 1322.00 564.00
C 1322.00 567.67 1322.00 571.33 1322.00 575.00
C 1314.00 575.00 1306.00 575.00 1298.00 575.00
C 1296.98 589.14 1299.36 602.81 1298.00 617.00 C 1296.64 631.19 1309.14 637.68 1322.00 633.00
C 1325.34 648.34 1308.11 646.51 1297.77 642.23 C 1287.44 637.95 1284.98 626.88 1286.00 615.00 C 1287.02 603.12 1285.23 587.24 1286.00 575.00
C 1280.67 575.00 1275.33 575.00 1270.00 575.00
C 1270.00 571.33 1270.00 567.67 1270.00 564.00
C 1275.34 564.00 1280.66 564.00 1286.00 564.00
C 1286.00 557.67 1286.00 551.33 1286.00 545.00
C 1290.33 544.81 1293.81 541.77 1298.00 541.00
M 1677.00 568.00 
C 1676.51 575.02 1670.64 581.00 1666.75 586.75 C 1662.85 592.49 1658.60 600.04 1650.99 600.99 C 1643.38 601.94 1637.31 594.95 1633.25 588.75 C 1629.19 582.56 1626.05 577.23 1621.23 570.77 C 1616.41 564.31 1607.30 568.16 1604.08 575.08 C 1600.87 582.01 1595.46 586.02 1591.75 592.75 C 1588.05 599.48 1578.56 603.56 1571.92 599.08 C 1565.29 594.59 1563.27 587.45 1558.75 582.25 C 1554.22 577.06 1552.62 568.25 1544.97 567.03 C 1537.33 565.80 1533.61 575.82 1529.25 581.25 C 1524.88 586.67 1523.20 593.02 1516.25 598.25 C 1509.29 603.48 1502.61 600.09 1496.25 593.75 C 1489.89 587.41 1491.55 578.87 1497.25 585.75 C 1502.96 592.62 1507.16 598.48 1513.75 592.75 C 1520.34 587.02 1522.06 581.67 1526.75 575.75 C 1531.44 569.84 1533.98 562.09 1542.07 561.07 C 1550.17 560.06 1554.89 566.65 1559.25 572.75 C 1563.62 578.84 1566.49 583.92 1571.25 590.75 C 1576.02 597.58 1584.56 595.18 1588.30 588.30 C 1592.04 581.42 1596.45 576.70 1600.30 570.30 C 1604.16 563.91 1612.03 558.99 1619.02 561.98 C 1626.01 564.96 1628.41 572.69 1632.92 578.08 C 1637.43 583.48 1639.72 590.56 1646.25 594.75 C 1652.77 598.94 1658.75 587.88 1662.30 583.30 C 1665.86 578.73 1669.50 567.64 1677.00 568.00
M 1126.00 643.00 
C 1122.00 643.00 1118.00 643.00 1114.00 643.00
C 1113.48 639.74 1113.59 635.61 1112.00 633.00
C 1107.27 642.41 1094.84 645.58 1085.00 645.00 C 1075.16 644.42 1063.52 639.86 1061.08 628.92 C 1058.63 617.99 1063.01 606.90 1073.70 602.70 C 1084.38 598.49 1094.08 596.87 1106.02 595.02 C 1117.96 593.18 1110.62 574.45 1100.00 574.00 C 1089.37 573.55 1076.45 573.53 1075.00 587.00
C 1071.00 587.00 1067.00 587.00 1063.00 587.00
C 1063.92 564.98 1098.75 552.06 1116.08 567.92 C 1133.41 583.78 1120.58 621.82 1126.00 643.00
M 1162.00 631.00 
C 1159.68 644.76 1161.66 660.49 1161.00 675.00
C 1156.67 675.00 1152.33 675.00 1148.00 675.00
C 1148.00 638.00 1148.00 601.00 1148.00 564.00
C 1152.00 564.00 1156.00 564.00 1160.00 564.00
C 1160.64 568.17 1158.71 573.66 1161.00 577.00
C 1171.40 558.83 1200.15 557.40 1213.75 573.25 C 1227.35 589.09 1227.32 616.33 1214.70 632.70 C 1202.08 649.06 1172.21 649.55 1162.00 631.00
M 1398.00 643.00 
C 1394.00 643.00 1390.00 643.00 1386.00 643.00
C 1385.48 639.74 1385.59 635.61 1384.00 633.00
C 1379.41 642.30 1366.93 645.62 1357.00 645.00 C 1347.07 644.38 1335.58 639.70 1333.22 628.78 C 1330.87 617.85 1334.93 606.77 1345.70 602.70 C 1356.46 598.62 1366.17 596.65 1378.02 595.02 C 1389.88 593.39 1382.85 574.48 1372.33 573.67 C 1361.81 572.87 1348.48 574.01 1347.00 587.00
C 1343.00 587.00 1339.00 587.00 1335.00 587.00
C 1336.18 565.20 1370.68 552.01 1388.08 567.92 C 1405.49 583.82 1392.55 621.78 1398.00 643.00
M 672.00 563.00 
C 672.00 569.00 672.00 575.00 672.00 581.00
C 660.05 579.60 644.21 583.42 644.01 598.01 C 643.80 612.60 644.14 628.31 644.00 643.00
C 637.67 643.00 631.33 643.00 625.00 643.00
C 625.00 616.67 625.00 590.33 625.00 564.00
C 631.00 564.00 637.00 564.00 643.00 564.00
C 643.00 568.67 643.00 573.33 643.00 578.00
C 648.90 568.03 659.47 560.37 672.00 563.00
M 751.00 643.00 
C 740.78 643.51 726.94 645.51 730.00 631.00
C 720.80 647.97 682.35 652.77 678.07 626.93 C 673.79 601.09 710.87 593.99 730.00 594.00
C 734.45 575.00 703.49 570.55 699.00 587.00
C 692.67 587.00 686.33 587.00 680.00 587.00
C 685.41 564.14 717.34 553.57 737.75 568.25 C 758.15 582.94 743.93 621.64 751.00 643.00
M 844.00 643.00 
C 837.33 643.00 830.67 643.00 824.00 643.00
C 822.19 626.78 826.42 603.51 824.00 588.00 C 821.58 572.49 794.80 575.60 790.25 589.25 C 785.69 602.90 789.01 627.67 788.00 643.00
C 781.67 643.00 775.33 643.00 769.00 643.00
C 769.00 616.67 769.00 590.33 769.00 564.00
C 775.33 564.00 781.67 564.00 788.00 564.00
C 788.64 568.50 786.70 574.33 789.00 578.00
C 796.95 562.04 828.10 554.28 839.25 572.75 C 850.40 591.22 840.72 621.72 844.00 643.00
M 507.00 564.00 
C 507.00 590.33 507.00 616.67 507.00 643.00
C 500.67 643.00 494.33 643.00 488.00 643.00
C 488.00 616.67 488.00 590.33 488.00 564.00
C 494.33 564.00 500.67 564.00 507.00 564.00
M 1255.00 564.00 
C 1255.00 590.33 1255.00 616.67 1255.00 643.00
C 1250.67 643.00 1246.33 643.00 1242.00 643.00
C 1242.00 616.67 1242.00 590.33 1242.00 564.00
C 1246.33 564.00 1250.67 564.00 1255.00 564.00
M 1547.00 606.00 
C 1561.95 609.42 1560.98 631.19 1573.75 638.25 C 1586.52 645.31 1595.24 620.65 1602.75 612.75 C 1610.26 604.85 1615.43 605.01 1622.25 609.75 C 1629.06 614.49 1631.33 621.74 1635.30 626.70 C 1639.28 631.65 1643.65 641.12 1649.70 640.65 C 1655.74 640.17 1662.41 630.46 1664.25 625.25 C 1666.10 620.05 1678.08 609.16 1676.22 617.22 C 1674.36 625.28 1667.09 628.24 1664.08 635.08 C 1661.07 641.92 1652.65 647.13 1645.93 645.07 C 1639.20 643.02 1635.38 635.46 1631.23 629.77 C 1627.08 624.08 1624.97 618.46 1618.75 613.25 C 1612.54 608.04 1605.44 615.88 1602.23 622.23 C 1599.02 628.58 1594.06 633.42 1589.75 639.75 C 1585.44 646.08 1575.43 647.31 1570.25 641.75 C 1565.07 636.19 1561.06 630.27 1557.25 624.75 C 1553.44 619.23 1549.15 609.27 1541.78 611.78 C 1534.40 614.29 1533.00 621.88 1528.23 627.23 C 1523.46 632.58 1522.18 639.96 1514.75 643.75 C 1507.33 647.54 1501.28 645.22 1495.75 637.25 C 1490.21 629.29 1492.26 625.01 1499.30 633.70 C 1506.35 642.39 1507.36 642.79 1516.25 635.25 C 1525.14 627.71 1530.99 602.34 1547.00 606.00
M 1324.00 690.00 
C 1315.33 687.74 1314.82 700.37 1323.00 699.00
C 1319.00 700.93 1315.95 702.69 1317.00 709.00 C 1318.05 715.31 1316.21 719.85 1317.00 726.00
C 1306.14 725.02 1319.88 701.99 1309.00 701.00
C 1311.23 698.31 1313.48 694.13 1314.77 689.77 C 1316.06 685.41 1324.64 684.85 1324.00 690.00
M 612.00 692.00 
C 612.00 696.33 612.00 700.67 612.00 705.00
C 617.67 705.00 623.33 705.00 629.00 705.00
C 629.30 712.81 617.18 707.39 612.00 709.00
C 612.00 713.67 612.00 718.33 612.00 723.00
C 618.33 723.00 624.67 723.00 631.00 723.00
C 628.07 729.58 614.97 724.31 608.00 726.00
C 607.02 715.71 609.30 708.60 608.00 698.00 C 606.70 687.40 614.88 685.51 626.00 688.00 C 637.12 690.49 618.29 694.00 612.00 692.00
M 836.00 688.00 
C 838.53 689.23 836.22 694.46 833.32 692.66 C 830.42 690.86 833.18 686.63 836.00 688.00
M 943.00 688.00 
C 943.00 692.33 943.00 696.67 943.00 701.00
C 946.48 695.52 958.89 695.79 960.30 702.70 C 961.72 709.61 963.05 722.86 958.00 726.00
C 956.15 718.98 963.04 700.49 950.93 700.07 C 938.81 699.65 944.02 718.71 943.00 726.00
C 936.21 725.79 939.04 712.75 939.00 707.00 C 938.96 701.25 936.29 689.04 943.00 688.00
M 1037.00 688.00 
C 1037.00 692.33 1037.00 696.67 1037.00 701.00
C 1054.09 687.26 1057.88 713.40 1055.00 726.00
C 1046.34 723.41 1058.71 701.48 1045.78 700.22 C 1032.84 698.97 1037.86 718.22 1037.00 726.00
C 1030.21 725.79 1033.04 712.75 1033.00 707.00 C 1032.96 701.25 1030.29 689.04 1037.00 688.00
M 1067.00 688.00 
C 1069.53 689.23 1067.22 694.46 1064.32 692.66 C 1061.42 690.86 1064.18 686.63 1067.00 688.00
M 1116.00 688.00 
C 1116.00 700.67 1116.00 713.33 1116.00 726.00
C 1111.99 727.43 1112.55 723.83 1111.00 722.00
C 1103.35 732.67 1091.99 723.09 1092.00 712.00 C 1092.01 700.91 1103.60 690.99 1112.00 702.00
C 1113.33 697.54 1108.60 687.11 1116.00 688.00
M 1359.00 688.00 
C 1362.31 700.94 1368.42 713.07 1372.00 726.00
C 1366.07 727.02 1366.96 718.75 1365.00 715.00
C 1360.64 716.14 1352.42 713.14 1348.78 715.78 C 1345.13 718.42 1347.88 727.67 1341.00 726.00
C 1343.78 719.62 1345.67 711.89 1348.77 705.77 C 1351.87 699.65 1350.77 688.47 1359.00 688.00
M 1382.00 688.00 
C 1382.00 700.67 1382.00 713.33 1382.00 726.00
C 1376.77 724.29 1378.98 712.73 1379.00 707.00 C 1379.02 701.27 1376.72 689.73 1382.00 688.00
M 926.00 691.00 
C 924.39 696.84 927.62 698.20 932.00 699.00
C 925.84 700.47 925.63 704.77 926.00 711.00 C 926.37 717.23 924.31 723.74 932.00 724.00
C 928.18 729.60 921.87 723.48 922.00 718.00 C 922.14 712.52 924.58 700.94 918.00 701.00
C 916.31 696.85 922.57 699.31 921.96 695.96 C 921.35 692.62 922.26 690.13 926.00 691.00
M 1020.00 691.00 
C 1019.46 694.98 1019.65 699.61 1025.00 698.00
C 1026.44 702.32 1021.18 699.81 1020.00 702.00
C 1021.50 709.44 1015.65 723.25 1026.00 724.00
C 1022.18 729.60 1015.87 723.48 1016.00 718.00 C 1016.14 712.52 1018.58 700.94 1012.00 701.00
C 1010.30 696.85 1016.57 699.31 1015.96 695.96 C 1015.35 692.62 1016.26 690.13 1020.00 691.00
M 657.00 702.00 
C 673.19 686.54 678.07 713.46 675.00 726.00
C 664.23 725.64 678.42 699.95 664.93 700.07 C 651.43 700.20 663.41 723.64 655.00 726.00
C 653.05 720.10 659.88 700.48 648.92 700.08 C 637.97 699.67 643.10 719.82 642.00 726.00
C 635.50 726.81 638.50 718.65 638.00 714.00 C 637.50 709.35 638.38 702.82 638.00 698.00
C 642.34 698.88 642.85 701.16 647.03 698.03 C 651.20 694.89 654.79 699.01 657.00 702.00
M 686.00 722.00 
C 686.00 727.00 686.00 732.00 686.00 737.00
C 680.23 735.02 683.76 725.20 683.00 719.00 C 682.24 712.80 683.57 704.40 683.00 698.00
C 687.32 696.56 684.81 701.82 687.00 703.00
C 693.45 690.60 707.45 700.36 707.00 712.00 C 706.55 723.64 695.49 732.28 686.00 722.00
M 727.00 697.00 
C 743.27 699.29 739.12 729.73 722.78 726.22 C 706.44 722.71 710.77 694.71 727.00 697.00
M 807.00 713.00 
C 800.00 713.00 793.00 713.00 786.00 713.00
C 786.01 724.90 799.35 724.59 806.00 719.00
C 799.85 734.46 779.11 724.00 783.00 708.00 C 786.89 692.00 810.07 695.79 807.00 713.00
M 827.00 697.00 
C 828.17 703.09 817.52 700.09 818.03 707.03 C 818.53 713.96 817.60 719.22 818.00 726.00
C 811.50 726.81 814.50 718.65 814.00 714.00 C 813.50 709.35 814.38 702.82 814.00 698.00
C 819.31 701.62 820.01 697.55 827.00 697.00
M 866.00 726.00 
C 857.56 723.64 869.43 701.18 856.78 700.22 C 844.12 699.27 848.80 718.36 848.00 726.00
C 842.75 725.57 845.50 718.58 845.00 714.00 C 844.50 709.42 845.37 702.77 845.00 698.00
C 849.09 703.46 857.33 692.53 863.25 699.75 C 869.16 706.98 864.51 717.30 866.00 726.00
M 893.00 703.00 
C 894.97 701.63 892.74 696.76 897.00 698.00
C 897.70 706.82 896.07 715.13 897.00 724.00 C 897.93 732.87 892.81 737.66 884.00 737.00 C 875.19 736.34 873.27 727.80 881.70 733.30 C 890.12 738.80 895.94 727.39 894.00 721.00
C 885.49 731.39 873.58 723.23 873.01 711.99 C 872.44 700.76 886.91 690.48 893.00 703.00
M 993.00 713.00 
C 986.00 713.00 979.00 713.00 972.00 713.00
C 969.75 722.19 984.90 727.50 988.00 719.00
C 996.79 723.78 978.37 730.57 972.75 723.25 C 967.14 715.92 965.50 704.86 974.75 698.75 C 984.01 692.64 994.36 703.34 993.00 713.00
M 1089.00 697.00 
C 1090.54 703.68 1079.18 699.14 1079.08 706.08 C 1078.97 713.02 1079.00 719.13 1079.00 726.00
C 1073.75 725.57 1076.50 718.58 1076.00 714.00 C 1075.50 709.42 1076.37 702.77 1076.00 698.00
C 1080.10 702.59 1082.70 696.51 1089.00 697.00
M 1201.00 726.00 
C 1197.16 720.93 1196.47 725.31 1190.78 726.78 C 1185.08 728.25 1180.38 724.28 1180.01 718.99 C 1179.64 713.70 1184.30 709.39 1190.01 710.01 C 1195.72 710.63 1200.96 705.74 1195.30 701.70 C 1189.63 697.67 1186.45 703.00 1182.00 705.00
C 1180.49 698.06 1193.05 693.68 1198.25 699.75 C 1203.44 705.82 1200.08 718.03 1201.00 726.00
M 1259.00 713.00 
C 1252.00 713.00 1245.00 713.00 1238.00 713.00
C 1238.61 718.98 1244.53 728.04 1252.22 722.22 C 1259.91 716.40 1256.62 726.96 1247.98 726.98 C 1239.34 726.99 1234.99 719.62 1235.00 712.00 C 1235.01 704.38 1238.93 697.25 1247.02 697.02 C 1255.12 696.80 1260.23 705.79 1259.00 713.00
M 1294.00 697.00 
C 1309.66 699.42 1306.43 729.57 1289.78 726.22 C 1273.13 722.87 1277.30 694.42 1294.00 697.00
M 752.00 720.00 
C 753.88 712.65 756.56 705.50 758.00 698.00
C 766.72 699.47 765.39 713.65 768.00 721.00
C 773.32 714.72 770.16 699.81 779.00 698.00
C 776.75 707.44 772.47 716.33 771.00 726.00
C 762.01 724.68 764.97 709.99 760.00 704.00
C 756.81 711.47 757.46 712.55 755.01 721.01 C 752.56 729.47 747.70 722.58 747.02 715.98 C 746.35 709.37 741.51 704.87 742.00 698.00
C 749.96 700.46 747.18 714.01 752.00 720.00
M 836.00 698.00 
C 836.00 707.33 836.00 716.67 836.00 726.00
C 830.98 725.72 832.98 716.24 833.00 712.00 C 833.03 707.76 830.90 698.31 836.00 698.00
M 1067.00 698.00 
C 1067.00 707.33 1067.00 716.67 1067.00 726.00
C 1061.99 725.72 1063.97 716.24 1064.00 712.00 C 1064.03 707.76 1061.90 698.32 1067.00 698.00
M 1147.00 720.00 
C 1151.57 717.19 1150.16 697.99 1156.03 698.03 C 1161.91 698.08 1160.56 717.20 1165.00 720.00
C 1168.98 713.36 1166.40 699.46 1175.00 698.00
C 1171.92 707.21 1168.56 716.35 1167.00 726.00
C 1157.54 725.04 1160.80 710.06 1156.00 704.00
C 1151.20 710.11 1154.48 725.01 1145.00 726.00
C 1143.45 716.39 1140.08 707.21 1137.00 698.00
C 1145.30 699.52 1143.67 713.15 1147.00 720.00
M 1218.00 721.00 
C 1224.04 714.79 1221.77 699.83 1231.00 698.00
C 1228.55 706.21 1225.70 707.93 1224.03 717.03 C 1222.36 726.12 1215.86 727.52 1214.07 717.93 C 1212.29 708.33 1208.23 707.05 1207.00 698.00
C 1214.95 700.10 1214.36 713.85 1218.00 721.00
M 1396.00 721.00 
C 1398.83 722.61 1395.10 728.09 1392.33 725.67 C 1389.55 723.24 1393.30 719.47 1396.00 721.00 Z"/>
</g>
<g fill="None" fill-opacity="0.0" stroke="#FFFFFF" stroke-opacity="1.00" stroke-width="0.3"><path d="
M 1542.00 526.00 
C 1525.82 524.27 1521.29 550.52 1510.75 557.75 C 1500.21 564.98 1501.26 556.66 1493.75 550.25 C 1486.25 543.84 1487.83 555.00 1494.25 560.75 C 1500.67 566.50 1508.85 568.71 1514.75 561.75 C 1520.65 554.79 1524.04 550.75 1527.75 543.75 C 1531.45 536.74 1538.23 529.41 1544.77 534.23 C 1551.31 539.06 1553.53 546.04 1558.23 551.77 C 1562.93 557.50 1566.62 566.51 1574.98 566.98 C 1583.33 567.44 1587.65 559.31 1592.23 553.23 C 1596.82 547.15 1598.88 541.44 1605.25 535.25 C 1611.61 529.05 1618.49 535.77 1622.25 542.75 C 1626.00 549.74 1630.54 554.72 1635.75 561.25 C 1640.96 567.77 1649.48 568.48 1655.75 561.75 C 1662.02 555.03 1662.23 551.39 1668.75 543.75 C 1675.26 536.10 1671.57 530.22 1665.25 539.25 C 1658.94 548.29 1658.66 550.16 1651.75 557.75 C 1644.84 565.35 1638.95 556.83 1634.30 550.70 C 1629.66 544.56 1628.38 538.08 1621.75 532.25 C 1615.13 526.42 1610.89 523.45 1601.75 530.75 C 1592.62 538.05 1584.45 565.07 1571.08 558.92 C 1557.72 552.76 1558.30 527.74 1542.00 526.00 Z"/>
</g>
<g fill="None" fill-opacity="0.0" stroke="#FFFFFF" stroke-opacity="1.00" stroke-width="0.3"><path d="
M 508.00 530.00 
C 501.00 530.00 494.00 530.00 487.00 530.00
C 487.00 537.00 487.00 544.00 487.00 551.00
C 494.00 551.00 501.00 551.00 508.00 551.00
C 508.00 544.00 508.00 537.00 508.00 530.00 Z"/>
</g>
<g fill="None" fill-opacity="0.0" stroke="#FFFFFF" stroke-opacity="1.00" stroke-width="0.3"><path d="
M 1048.00 571.00 
C 1045.74 532.06 994.56 518.03 967.75 541.75 C 940.95 565.48 941.41 610.76 968.77 634.23 C 996.14 657.70 1046.97 641.13 1048.00 603.00
C 1032.00 598.27 1034.28 617.04 1024.75 624.75 C 1015.22 632.46 1001.63 635.31 990.07 631.93 C 978.52 628.54 971.29 621.55 965.93 611.07 C 960.56 600.60 960.19 584.94 962.67 573.67 C 965.16 562.40 971.10 553.35 980.92 546.92 C 990.74 540.49 1006.47 540.27 1016.92 545.08 C 1027.37 549.88 1034.14 559.81 1035.00 571.00
C 1039.33 571.00 1043.67 571.00 1048.00 571.00 Z"/>
</g>
<g fill="None" fill-opacity="0.0" stroke="#FFFFFF" stroke-opacity="1.00" stroke-width="0.3"><path d="
M 1256.00 531.00 
C 1252.27 532.41 1244.79 528.78 1241.78 531.78 C 1238.77 534.78 1242.42 542.29 1241.00 546.00
C 1246.00 546.00 1251.00 546.00 1256.00 546.00
C 1256.00 541.00 1256.00 536.00 1256.00 531.00 Z"/>
</g>
<g fill="None" fill-opacity="0.0" stroke="#FFFFFF" stroke-opacity="1.00" stroke-width="0.3"><path d="
M 1433.00 531.00 
C 1429.00 531.00 1425.00 531.00 1421.00 531.00
C 1421.00 568.33 1421.01 605.67 1421.00 643.00
C 1425.00 643.00 1429.00 643.00 1433.00 643.00
C 1433.00 605.67 1433.00 568.33 1433.00 531.00 Z"/>
</g>
<g fill="None" fill-opacity="0.0" stroke="#FFFFFF" stroke-opacity="1.00" stroke-width="0.3"><path d="
M 423.00 623.00 
C 419.69 614.23 415.73 606.23 413.32 596.68 C 410.91 587.13 406.51 579.97 403.98 570.02 C 401.44 560.07 396.75 554.28 394.93 543.07 C 393.10 531.87 381.95 529.52 370.00 532.00
C 384.15 568.85 397.42 606.00 411.00 643.00
C 418.67 643.00 426.33 643.00 434.00 643.00
C 447.00 605.89 461.89 569.35 474.00 532.00
C 465.55 531.25 453.64 530.29 452.32 539.32 C 451.00 548.36 447.36 552.23 444.98 559.98 C 442.59 567.72 440.65 574.58 437.78 581.78 C 434.90 588.97 433.42 595.73 430.77 602.77 C 428.12 609.81 425.77 616.37 423.00 623.00 Z"/>
</g>
<g fill="None" fill-opacity="0.0" stroke="#FFFFFF" stroke-opacity="1.00" stroke-width="0.3"><path d="
M 547.00 532.00 
C 540.67 532.00 534.33 532.00 528.00 532.00
C 528.00 569.00 528.00 606.00 528.00 643.00
C 534.33 643.00 540.67 643.00 547.00 643.00
C 547.57 639.16 545.81 634.09 548.00 631.00
C 557.89 649.55 586.86 648.58 599.75 632.75 C 612.64 616.92 612.48 590.12 599.75 574.25 C 587.02 558.37 557.40 558.08 548.00 577.00
C 545.67 562.99 547.67 546.83 547.00 532.00
M 571.00 578.00 
C 598.57 581.45 593.22 633.29 565.00 629.00 C 536.78 624.71 542.94 574.49 571.00 578.00 Z"/>
</g>
<g fill="None" fill-opacity="0.0" stroke="#FFFFFF" stroke-opacity="1.00" stroke-width="0.3"><path d="
M 888.00 539.00 
C 881.26 541.12 874.77 544.04 868.00 546.00
C 868.00 552.00 868.00 558.00 868.00 564.00
C 863.00 564.00 858.00 564.00 853.00 564.00
C 853.00 569.00 853.00 574.00 853.00 579.00
C 858.00 579.00 863.00 579.00 868.00 579.00
C 869.54 595.77 864.82 615.83 870.70 631.31 C 876.57 646.78 896.28 645.42 909.00 643.00
C 909.00 638.00 909.00 633.00 909.00 628.00
C 898.36 632.08 886.25 627.42 888.00 615.00 C 889.75 602.58 886.69 591.31 888.00 579.00
C 895.00 579.00 902.00 579.00 909.00 579.00
C 909.00 574.00 909.00 569.00 909.00 564.00
C 902.00 564.00 895.00 564.00 888.00 564.00
C 888.00 555.67 888.00 547.33 888.00 539.00 Z"/>
</g>
<g fill="None" fill-opacity="0.0" stroke="#FFFFFF" stroke-opacity="1.00" stroke-width="0.3"><path d="
M 1298.00 541.00 
C 1293.81 541.77 1290.33 544.81 1286.00 545.00
C 1286.00 551.33 1286.00 557.67 1286.00 564.00
C 1280.66 564.00 1275.34 564.00 1270.00 564.00
C 1270.00 567.67 1270.00 571.33 1270.00 575.00
C 1275.33 575.00 1280.67 575.00 1286.00 575.00
C 1285.23 587.24 1287.02 603.12 1286.00 615.00 C 1284.98 626.88 1287.44 637.95 1297.77 642.23 C 1308.11 646.51 1325.34 648.34 1322.00 633.00
C 1309.14 637.68 1296.64 631.19 1298.00 617.00 C 1299.36 602.81 1296.98 589.14 1298.00 575.00
C 1306.00 575.00 1314.00 575.00 1322.00 575.00
C 1322.00 571.33 1322.00 567.67 1322.00 564.00
C 1314.00 564.00 1306.00 564.00 1298.00 564.00
C 1298.00 556.33 1298.00 548.67 1298.00 541.00 Z"/>
</g>
<g fill="None" fill-opacity="0.0" stroke="#FFFFFF" stroke-opacity="1.00" stroke-width="0.3"><path d="
M 1677.00 568.00 
C 1669.50 567.64 1665.86 578.73 1662.30 583.30 C 1658.75 587.88 1652.77 598.94 1646.25 594.75 C 1639.72 590.56 1637.43 583.48 1632.92 578.08 C 1628.41 572.69 1626.01 564.96 1619.02 561.98 C 1612.03 558.99 1604.16 563.91 1600.30 570.30 C 1596.45 576.70 1592.04 581.42 1588.30 588.30 C 1584.56 595.18 1576.02 597.58 1571.25 590.75 C 1566.49 583.92 1563.62 578.84 1559.25 572.75 C 1554.89 566.65 1550.17 560.06 1542.07 561.07 C 1533.98 562.09 1531.44 569.84 1526.75 575.75 C 1522.06 581.67 1520.34 587.02 1513.75 592.75 C 1507.16 598.48 1502.96 592.62 1497.25 585.75 C 1491.55 578.87 1489.89 587.41 1496.25 593.75 C 1502.61 600.09 1509.29 603.48 1516.25 598.25 C 1523.20 593.02 1524.88 586.67 1529.25 581.25 C 1533.61 575.82 1537.33 565.80 1544.97 567.03 C 1552.62 568.25 1554.22 577.06 1558.75 582.25 C 1563.27 587.45 1565.29 594.59 1571.92 599.08 C 1578.56 603.56 1588.05 599.48 1591.75 592.75 C 1595.46 586.02 1600.87 582.01 1604.08 575.08 C 1607.30 568.16 1616.41 564.31 1621.23 570.77 C 1626.05 577.23 1629.19 582.56 1633.25 588.75 C 1637.31 594.95 1643.38 601.94 1650.99 600.99 C 1658.60 600.04 1662.85 592.49 1666.75 586.75 C 1670.64 581.00 1676.51 575.02 1677.00 568.00 Z"/>
</g>
<g fill="None" fill-opacity="0.0" stroke="#FFFFFF" stroke-opacity="1.00" stroke-width="0.3"><path d="
M 1126.00 643.00 
C 1120.58 621.82 1133.41 583.78 1116.08 567.92 C 1098.75 552.06 1063.92 564.98 1063.00 587.00
C 1067.00 587.00 1071.00 587.00 1075.00 587.00
C 1076.45 573.53 1089.37 573.55 1100.00 574.00 C 1110.62 574.45 1117.96 593.18 1106.02 595.02 C 1094.08 596.87 1084.38 598.49 1073.70 602.70 C 1063.01 606.90 1058.63 617.99 1061.08 628.92 C 1063.52 639.86 1075.16 644.42 1085.00 645.00 C 1094.84 645.58 1107.27 642.41 1112.00 633.00
C 1113.59 635.61 1113.48 639.74 1114.00 643.00
C 1118.00 643.00 1122.00 643.00 1126.00 643.00
M 1112.00 605.00 
C 1115.42 620.19 1108.91 629.32 1095.78 633.78 C 1082.64 638.23 1065.90 626.19 1075.25 614.25 C 1084.61 602.32 1100.15 609.75 1112.00 605.00 Z"/>
</g>
<g fill="None" fill-opacity="0.0" stroke="#FFFFFF" stroke-opacity="1.00" stroke-width="0.3"><path d="
M 1162.00 631.00 
C 1172.21 649.55 1202.08 649.06 1214.70 632.70 C 1227.32 616.33 1227.35 589.09 1213.75 573.25 C 1200.15 557.40 1171.40 558.83 1161.00 577.00
C 1158.71 573.66 1160.64 568.17 1160.00 564.00
C 1156.00 564.00 1152.00 564.00 1148.00 564.00
C 1148.00 601.00 1148.00 638.00 1148.00 675.00
C 1152.33 675.00 1156.67 675.00 1161.00 675.00
C 1161.66 660.49 1159.68 644.76 1162.00 631.00
M 1193.00 574.00 
C 1224.34 580.49 1212.51 642.88 1179.98 633.02 C 1147.45 623.17 1157.34 566.61 1193.00 574.00 Z"/>
</g>
<g fill="None" fill-opacity="0.0" stroke="#FFFFFF" stroke-opacity="1.00" stroke-width="0.3"><path d="
M 1398.00 643.00 
C 1392.55 621.78 1405.49 583.82 1388.08 567.92 C 1370.68 552.01 1336.18 565.20 1335.00 587.00
C 1339.00 587.00 1343.00 587.00 1347.00 587.00
C 1348.48 574.01 1361.81 572.87 1372.33 573.67 C 1382.85 574.48 1389.88 593.39 1378.02 595.02 C 1366.17 596.65 1356.46 598.62 1345.70 602.70 C 1334.93 606.77 1330.87 617.85 1333.22 628.78 C 1335.58 639.70 1347.07 644.38 1357.00 645.00 C 1366.93 645.62 1379.41 642.30 1384.00 633.00
C 1385.59 635.61 1385.48 639.74 1386.00 643.00
C 1390.00 643.00 1394.00 643.00 1398.00 643.00
M 1384.00 605.00 
C 1387.41 620.18 1380.93 629.33 1367.78 633.78 C 1354.63 638.22 1337.97 626.24 1347.26 614.26 C 1356.54 602.27 1372.20 609.78 1384.00 605.00 Z"/>
</g>
<g fill="None" fill-opacity="0.0" stroke="#FFFFFF" stroke-opacity="1.00" stroke-width="0.3"><path d="
M 672.00 563.00 
C 659.47 560.37 648.90 568.03 643.00 578.00
C 643.00 573.33 643.00 568.67 643.00 564.00
C 637.00 564.00 631.00 564.00 625.00 564.00
C 625.00 590.33 625.00 616.67 625.00 643.00
C 631.33 643.00 637.67 643.00 644.00 643.00
C 644.14 628.31 643.80 612.60 644.01 598.01 C 644.21 583.42 660.05 579.60 672.00 581.00
C 672.00 575.00 672.00 569.00 672.00 563.00 Z"/>
</g>
<g fill="None" fill-opacity="0.0" stroke="#FFFFFF" stroke-opacity="1.00" stroke-width="0.3"><path d="
M 751.00 643.00 
C 743.93 621.64 758.15 582.94 737.75 568.25 C 717.34 553.57 685.41 564.14 680.00 587.00
C 686.33 587.00 692.67 587.00 699.00 587.00
C 703.49 570.55 734.45 575.00 730.00 594.00
C 710.87 593.99 673.79 601.09 678.07 626.93 C 682.35 652.77 720.80 647.97 730.00 631.00
C 726.94 645.51 740.78 643.51 751.00 643.00
M 730.00 606.00 
C 732.27 617.88 726.23 625.86 715.78 629.78 C 705.32 633.69 691.40 622.95 699.75 613.75 C 708.11 604.56 719.98 610.18 730.00 606.00 Z"/>
</g>
<g fill="None" fill-opacity="0.0" stroke="#FFFFFF" stroke-opacity="1.00" stroke-width="0.3"><path d="
M 844.00 643.00 
C 840.72 621.72 850.40 591.22 839.25 572.75 C 828.10 554.28 796.95 562.04 789.00 578.00
C 786.70 574.33 788.64 568.50 788.00 564.00
C 781.67 564.00 775.33 564.00 769.00 564.00
C 769.00 590.33 769.00 616.67 769.00 643.00
C 775.33 643.00 781.67 643.00 788.00 643.00
C 789.01 627.67 785.69 602.90 790.25 589.25 C 794.80 575.60 821.58 572.49 824.00 588.00 C 826.42 603.51 822.19 626.78 824.00 643.00
C 830.67 643.00 837.33 643.00 844.00 643.00 Z"/>
</g>
<g fill="None" fill-opacity="0.0" stroke="#FFFFFF" stroke-opacity="1.00" stroke-width="0.3"><path d="
M 507.00 564.00 
C 500.67 564.00 494.33 564.00 488.00 564.00
C 488.00 590.33 488.00 616.67 488.00 643.00
C 494.33 643.00 500.67 643.00 507.00 643.00
C 507.00 616.67 507.00 590.33 507.00 564.00 Z"/>
</g>
<g fill="None" fill-opacity="0.0" stroke="#FFFFFF" stroke-opacity="1.00" stroke-width="0.3"><path d="
M 1255.00 564.00 
C 1250.67 564.00 1246.33 564.00 1242.00 564.00
C 1242.00 590.33 1242.00 616.67 1242.00 643.00
C 1246.33 643.00 1250.67 643.00 1255.00 643.00
C 1255.00 616.67 1255.00 590.33 1255.00 564.00 Z"/>
</g>
<g fill="None" fill-opacity="0.0" stroke="#000000" stroke-opacity="1.00" stroke-width="0.3"><path d="
M 1193.00 574.00 
C 1157.34 566.61 1147.45 623.17 1179.98 633.02 C 1212.51 642.88 1224.34 580.49 1193.00 574.00 Z"/>
</g>
<g fill="None" fill-opacity="0.0" stroke="#000000" stroke-opacity="1.00" stroke-width="0.3"><path d="
M 571.00 578.00 
C 542.94 574.49 536.78 624.71 565.00 629.00 C 593.22 633.29 598.57 581.45 571.00 578.00 Z"/>
</g>
<g fill="None" fill-opacity="0.0" stroke="#000000" stroke-opacity="1.00" stroke-width="0.3"><path d="
M 1112.00 605.00 
C 1100.15 609.75 1084.61 602.32 1075.25 614.25 C 1065.90 626.19 1082.64 638.23 1095.78 633.78 C 1108.91 629.32 1115.42 620.19 1112.00 605.00 Z"/>
</g>
<g fill="None" fill-opacity="0.0" stroke="#000000" stroke-opacity="1.00" stroke-width="0.3"><path d="
M 1384.00 605.00 
C 1372.20 609.78 1356.54 602.27 1347.26 614.26 C 1337.97 626.24 1354.63 638.22 1367.78 633.78 C 1380.93 629.33 1387.41 620.18 1384.00 605.00 Z"/>
</g>
<g fill="None" fill-opacity="0.0" stroke="#000000" stroke-opacity="1.00" stroke-width="0.3"><path d="
M 730.00 606.00 
C 719.98 610.18 708.11 604.56 699.75 613.75 C 691.40 622.95 705.32 633.69 715.78 629.78 C 726.23 625.86 732.27 617.88 730.00 606.00 Z"/>
</g>
<g fill="None" fill-opacity="0.0" stroke="#FFFFFF" stroke-opacity="1.00" stroke-width="0.3"><path d="
M 1547.00 606.00 
C 1530.99 602.34 1525.14 627.71 1516.25 635.25 C 1507.36 642.79 1506.35 642.39 1499.30 633.70 C 1492.26 625.01 1490.21 629.29 1495.75 637.25 C 1501.28 645.22 1507.33 647.54 1514.75 643.75 C 1522.18 639.96 1523.46 632.58 1528.23 627.23 C 1533.00 621.88 1534.40 614.29 1541.78 611.78 C 1549.15 609.27 1553.44 619.23 1557.25 624.75 C 1561.06 630.27 1565.07 636.19 1570.25 641.75 C 1575.43 647.31 1585.44 646.08 1589.75 639.75 C 1594.06 633.42 1599.02 628.58 1602.23 622.23 C 1605.44 615.88 1612.54 608.04 1618.75 613.25 C 1624.97 618.46 1627.08 624.08 1631.23 629.77 C 1635.38 635.46 1639.20 643.02 1645.93 645.07 C 1652.65 647.13 1661.07 641.92 1664.08 635.08 C 1667.09 628.24 1674.36 625.28 1676.22 617.22 C 1678.08 609.16 1666.10 620.05 1664.25 625.25 C 1662.41 630.46 1655.74 640.17 1649.70 640.65 C 1643.65 641.12 1639.28 631.65 1635.30 626.70 C 1631.33 621.74 1629.06 614.49 1622.25 609.75 C 1615.43 605.01 1610.26 604.85 1602.75 612.75 C 1595.24 620.65 1586.52 645.31 1573.75 638.25 C 1560.98 631.19 1561.95 609.42 1547.00 606.00 Z"/>
</g>
<g fill="None" fill-opacity="0.0" stroke="#FFFFFF" stroke-opacity="1.00" stroke-width="0.3"><path d="
M 1324.00 690.00 
C 1324.64 684.85 1316.06 685.41 1314.77 689.77 C 1313.48 694.13 1311.23 698.31 1309.00 701.00
C 1319.88 701.99 1306.14 725.02 1317.00 726.00
C 1316.21 719.85 1318.05 715.31 1317.00 709.00 C 1315.95 702.69 1319.00 700.93 1323.00 699.00
C 1314.82 700.37 1315.33 687.74 1324.00 690.00 Z"/>
</g>
<g fill="None" fill-opacity="0.0" stroke="#FFFFFF" stroke-opacity="1.00" stroke-width="0.3"><path d="
M 612.00 692.00 
C 618.29 694.00 637.12 690.49 626.00 688.00 C 614.88 685.51 606.70 687.40 608.00 698.00 C 609.30 708.60 607.02 715.71 608.00 726.00
C 614.97 724.31 628.07 729.58 631.00 723.00
C 624.67 723.00 618.33 723.00 612.00 723.00
C 612.00 718.33 612.00 713.67 612.00 709.00
C 617.18 707.39 629.30 712.81 629.00 705.00
C 623.33 705.00 617.67 705.00 612.00 705.00
C 612.00 700.67 612.00 696.33 612.00 692.00 Z"/>
</g>
<g fill="None" fill-opacity="0.0" stroke="#FFFFFF" stroke-opacity="1.00" stroke-width="0.3"><path d="
M 836.00 688.00 
C 833.18 686.63 830.42 690.86 833.32 692.66 C 836.22 694.46 838.53 689.23 836.00 688.00 Z"/>
</g>
<g fill="None" fill-opacity="0.0" stroke="#FFFFFF" stroke-opacity="1.00" stroke-width="0.3"><path d="
M 943.00 688.00 
C 936.29 689.04 938.96 701.25 939.00 707.00 C 939.04 712.75 936.21 725.79 943.00 726.00
C 944.02 718.71 938.81 699.65 950.93 700.07 C 963.04 700.49 956.15 718.98 958.00 726.00
C 963.05 722.86 961.72 709.61 960.30 702.70 C 958.89 695.79 946.48 695.52 943.00 701.00
C 943.00 696.67 943.00 692.33 943.00 688.00 Z"/>
</g>
<g fill="None" fill-opacity="0.0" stroke="#FFFFFF" stroke-opacity="1.00" stroke-width="0.3"><path d="
M 1037.00 688.00 
C 1030.29 689.04 1032.96 701.25 1033.00 707.00 C 1033.04 712.75 1030.21 725.79 1037.00 726.00
C 1037.86 718.22 1032.84 698.97 1045.78 700.22 C 1058.71 701.48 1046.34 723.41 1055.00 726.00
C 1057.88 713.40 1054.09 687.26 1037.00 701.00
C 1037.00 696.67 1037.00 692.33 1037.00 688.00 Z"/>
</g>
<g fill="None" fill-opacity="0.0" stroke="#FFFFFF" stroke-opacity="1.00" stroke-width="0.3"><path d="
M 1067.00 688.00 
C 1064.18 686.63 1061.42 690.86 1064.32 692.66 C 1067.22 694.46 1069.53 689.23 1067.00 688.00 Z"/>
</g>
<g fill="None" fill-opacity="0.0" stroke="#FFFFFF" stroke-opacity="1.00" stroke-width="0.3"><path d="
M 1116.00 688.00 
C 1108.60 687.11 1113.33 697.54 1112.00 702.00
C 1103.60 690.99 1092.01 700.91 1092.00 712.00 C 1091.99 723.09 1103.35 732.67 1111.00 722.00
C 1112.55 723.83 1111.99 727.43 1116.00 726.00
C 1116.00 713.33 1116.00 700.67 1116.00 688.00
M 1105.00 700.00 
C 1115.88 701.22 1114.49 725.29 1102.75 723.20 C 1091.02 721.10 1093.07 698.67 1105.00 700.00 Z"/>
</g>
<g fill="None" fill-opacity="0.0" stroke="#FFFFFF" stroke-opacity="1.00" stroke-width="0.3"><path d="
M 1359.00 688.00 
C 1350.77 688.47 1351.87 699.65 1348.77 705.77 C 1345.67 711.89 1343.78 719.62 1341.00 726.00
C 1347.88 727.67 1345.13 718.42 1348.78 715.78 C 1352.42 713.14 1360.64 716.14 1365.00 715.00
C 1366.96 718.75 1366.07 727.02 1372.00 726.00
C 1368.42 713.07 1362.31 700.94 1359.00 688.00
M 1363.00 711.00 
C 1358.67 711.00 1354.33 711.00 1350.00 711.00
C 1351.98 705.30 1354.57 699.88 1356.00 694.00
C 1360.06 698.41 1360.99 705.31 1363.00 711.00 Z"/>
</g>
<g fill="None" fill-opacity="0.0" stroke="#FFFFFF" stroke-opacity="1.00" stroke-width="0.3"><path d="
M 1382.00 688.00 
C 1376.72 689.73 1379.02 701.27 1379.00 707.00 C 1378.98 712.73 1376.77 724.29 1382.00 726.00
C 1382.00 713.33 1382.00 700.67 1382.00 688.00 Z"/>
</g>
<g fill="None" fill-opacity="0.0" stroke="#FFFFFF" stroke-opacity="1.00" stroke-width="0.3"><path d="
M 926.00 691.00 
C 922.26 690.13 921.35 692.62 921.96 695.96 C 922.57 699.31 916.31 696.85 918.00 701.00
C 924.58 700.94 922.14 712.52 922.00 718.00 C 921.87 723.48 928.18 729.60 932.00 724.00
C 924.31 723.74 926.37 717.23 926.00 711.00 C 925.63 704.77 925.84 700.47 932.00 699.00
C 927.62 698.20 924.39 696.84 926.00 691.00 Z"/>
</g>
<g fill="None" fill-opacity="0.0" stroke="#FFFFFF" stroke-opacity="1.00" stroke-width="0.3"><path d="
M 1020.00 691.00 
C 1016.26 690.13 1015.35 692.62 1015.96 695.96 C 1016.57 699.31 1010.30 696.85 1012.00 701.00
C 1018.58 700.94 1016.14 712.52 1016.00 718.00 C 1015.87 723.48 1022.18 729.60 1026.00 724.00
C 1015.65 723.25 1021.50 709.44 1020.00 702.00
C 1021.18 699.81 1026.44 702.32 1025.00 698.00
C 1019.65 699.61 1019.46 694.98 1020.00 691.00 Z"/>
</g>
<g fill="None" fill-opacity="0.0" stroke="#000000" stroke-opacity="1.00" stroke-width="0.3"><path d="
M 1363.00 711.00 
C 1360.99 705.31 1360.06 698.41 1356.00 694.00
C 1354.57 699.88 1351.98 705.30 1350.00 711.00
C 1354.33 711.00 1358.67 711.00 1363.00 711.00 Z"/>
</g>
<g fill="None" fill-opacity="0.0" stroke="#FFFFFF" stroke-opacity="1.00" stroke-width="0.3"><path d="
M 657.00 702.00 
C 654.79 699.01 651.20 694.89 647.03 698.03 C 642.85 701.16 642.34 698.88 638.00 698.00
C 638.38 702.82 637.50 709.35 638.00 714.00 C 638.50 718.65 635.50 726.81 642.00 726.00
C 643.10 719.82 637.97 699.67 648.92 700.08 C 659.88 700.48 653.05 720.10 655.00 726.00
C 663.41 723.64 651.43 700.20 664.93 700.07 C 678.42 699.95 664.23 725.64 675.00 726.00
C 678.07 713.46 673.19 686.54 657.00 702.00 Z"/>
</g>
<g fill="None" fill-opacity="0.0" stroke="#FFFFFF" stroke-opacity="1.00" stroke-width="0.3"><path d="
M 686.00 722.00 
C 695.49 732.28 706.55 723.64 707.00 712.00 C 707.45 700.36 693.45 690.60 687.00 703.00
C 684.81 701.82 687.32 696.56 683.00 698.00
C 683.57 704.40 682.24 712.80 683.00 719.00 C 683.76 725.20 680.23 735.02 686.00 737.00
C 686.00 732.00 686.00 727.00 686.00 722.00
M 696.00 700.00 
C 707.01 701.13 705.91 724.42 694.00 723.00 C 682.09 721.58 684.88 698.86 696.00 700.00 Z"/>
</g>
<g fill="None" fill-opacity="0.0" stroke="#FFFFFF" stroke-opacity="1.00" stroke-width="0.3"><path d="
M 727.00 697.00 
C 710.77 694.71 706.44 722.71 722.78 726.22 C 739.12 729.73 743.27 699.29 727.00 697.00
M 726.00 700.00 
C 737.55 701.18 736.50 724.38 724.00 723.00 C 711.50 721.62 714.40 698.81 726.00 700.00 Z"/>
</g>
<g fill="None" fill-opacity="0.0" stroke="#FFFFFF" stroke-opacity="1.00" stroke-width="0.3"><path d="
M 807.00 713.00 
C 810.07 695.79 786.89 692.00 783.00 708.00 C 779.11 724.00 799.85 734.46 806.00 719.00
C 799.35 724.59 786.01 724.90 786.00 713.00
C 793.00 713.00 800.00 713.00 807.00 713.00
M 804.00 710.00 
C 798.00 710.00 792.00 710.00 786.00 710.00
C 786.19 697.99 804.36 697.49 804.00 710.00 Z"/>
</g>
<g fill="None" fill-opacity="0.0" stroke="#FFFFFF" stroke-opacity="1.00" stroke-width="0.3"><path d="
M 827.00 697.00 
C 820.01 697.55 819.31 701.62 814.00 698.00
C 814.38 702.82 813.50 709.35 814.00 714.00 C 814.50 718.65 811.50 726.81 818.00 726.00
C 817.60 719.22 818.53 713.96 818.03 707.03 C 817.52 700.09 828.17 703.09 827.00 697.00 Z"/>
</g>
<g fill="None" fill-opacity="0.0" stroke="#FFFFFF" stroke-opacity="1.00" stroke-width="0.3"><path d="
M 866.00 726.00 
C 864.51 717.30 869.16 706.98 863.25 699.75 C 857.33 692.53 849.09 703.46 845.00 698.00
C 845.37 702.77 844.50 709.42 845.00 714.00 C 845.50 718.58 842.75 725.57 848.00 726.00
C 848.80 718.36 844.12 699.27 856.78 700.22 C 869.43 701.18 857.56 723.64 866.00 726.00 Z"/>
</g>
<g fill="None" fill-opacity="0.0" stroke="#FFFFFF" stroke-opacity="1.00" stroke-width="0.3"><path d="
M 893.00 703.00 
C 886.91 690.48 872.44 700.76 873.01 711.99 C 873.58 723.23 885.49 731.39 894.00 721.00
C 895.94 727.39 890.12 738.80 881.70 733.30 C 873.27 727.80 875.19 736.34 884.00 737.00 C 892.81 737.66 897.93 732.87 897.00 724.00 C 896.07 715.13 897.70 706.82 897.00 698.00
C 892.74 696.76 894.97 701.63 893.00 703.00
M 887.00 700.00 
C 897.47 701.56 896.00 724.53 884.32 722.66 C 872.65 720.79 874.99 698.21 887.00 700.00 Z"/>
</g>
<g fill="None" fill-opacity="0.0" stroke="#FFFFFF" stroke-opacity="1.00" stroke-width="0.3"><path d="
M 993.00 713.00 
C 994.36 703.34 984.01 692.64 974.75 698.75 C 965.50 704.86 967.14 715.92 972.75 723.25 C 978.37 730.57 996.79 723.78 988.00 719.00
C 984.90 727.50 969.75 722.19 972.00 713.00
C 979.00 713.00 986.00 713.00 993.00 713.00
M 989.00 710.00 
C 983.33 710.00 977.67 710.00 972.00 710.00
C 970.33 697.60 990.65 697.57 989.00 710.00 Z"/>
</g>
<g fill="None" fill-opacity="0.0" stroke="#FFFFFF" stroke-opacity="1.00" stroke-width="0.3"><path d="
M 1089.00 697.00 
C 1082.70 696.51 1080.10 702.59 1076.00 698.00
C 1076.37 702.77 1075.50 709.42 1076.00 714.00 C 1076.50 718.58 1073.75 725.57 1079.00 726.00
C 1079.00 719.13 1078.97 713.02 1079.08 706.08 C 1079.18 699.14 1090.54 703.68 1089.00 697.00 Z"/>
</g>
<g fill="None" fill-opacity="0.0" stroke="#FFFFFF" stroke-opacity="1.00" stroke-width="0.3"><path d="
M 1201.00 726.00 
C 1200.08 718.03 1203.44 705.82 1198.25 699.75 C 1193.05 693.68 1180.49 698.06 1182.00 705.00
C 1186.45 703.00 1189.63 697.67 1195.30 701.70 C 1200.96 705.74 1195.72 710.63 1190.01 710.01 C 1184.30 709.39 1179.64 713.70 1180.01 718.99 C 1180.38 724.28 1185.08 728.25 1190.78 726.78 C 1196.47 725.31 1197.16 720.93 1201.00 726.00
M 1198.00 712.00 
C 1200.16 718.14 1191.13 728.98 1184.78 722.22 C 1178.43 715.46 1192.14 710.37 1198.00 712.00 Z"/>
</g>
<g fill="None" fill-opacity="0.0" stroke="#FFFFFF" stroke-opacity="1.00" stroke-width="0.3"><path d="
M 1259.00 713.00 
C 1260.23 705.79 1255.12 696.80 1247.02 697.02 C 1238.93 697.25 1235.01 704.38 1235.00 712.00 C 1234.99 719.62 1239.34 726.99 1247.98 726.98 C 1256.62 726.96 1259.91 716.40 1252.22 722.22 C 1244.53 728.04 1238.61 718.98 1238.00 713.00
C 1245.00 713.00 1252.00 713.00 1259.00 713.00
M 1256.00 710.00 
C 1250.00 710.00 1244.00 710.00 1238.00 710.00
C 1238.28 697.94 1256.06 697.77 1256.00 710.00 Z"/>
</g>
<g fill="None" fill-opacity="0.0" stroke="#FFFFFF" stroke-opacity="1.00" stroke-width="0.3"><path d="
M 1294.00 697.00 
C 1277.30 694.42 1273.13 722.87 1289.78 726.22 C 1306.43 729.57 1309.66 699.42 1294.00 697.00
M 1293.00 700.00 
C 1304.22 701.26 1303.48 724.46 1291.26 723.60 C 1279.04 722.73 1280.34 698.58 1293.00 700.00 Z"/>
</g>
<g fill="None" fill-opacity="0.0" stroke="#FFFFFF" stroke-opacity="1.00" stroke-width="0.3"><path d="
M 752.00 720.00 
C 747.18 714.01 749.96 700.46 742.00 698.00
C 741.51 704.87 746.35 709.37 747.02 715.98 C 747.70 722.58 752.56 729.47 755.01 721.01 C 757.46 712.55 756.81 711.47 760.00 704.00
C 764.97 709.99 762.01 724.68 771.00 726.00
C 772.47 716.33 776.75 707.44 779.00 698.00
C 770.16 699.81 773.32 714.72 768.00 721.00
C 765.39 713.65 766.72 699.47 758.00 698.00
C 756.56 705.50 753.88 712.65 752.00 720.00 Z"/>
</g>
<g fill="None" fill-opacity="0.0" stroke="#FFFFFF" stroke-opacity="1.00" stroke-width="0.3"><path d="
M 836.00 698.00 
C 830.90 698.31 833.03 707.76 833.00 712.00 C 832.98 716.24 830.98 725.72 836.00 726.00
C 836.00 716.67 836.00 707.33 836.00 698.00 Z"/>
</g>
<g fill="None" fill-opacity="0.0" stroke="#FFFFFF" stroke-opacity="1.00" stroke-width="0.3"><path d="
M 1067.00 698.00 
C 1061.90 698.32 1064.03 707.76 1064.00 712.00 C 1063.97 716.24 1061.99 725.72 1067.00 726.00
C 1067.00 716.67 1067.00 707.33 1067.00 698.00 Z"/>
</g>
<g fill="None" fill-opacity="0.0" stroke="#FFFFFF" stroke-opacity="1.00" stroke-width="0.3"><path d="
M 1147.00 720.00 
C 1143.67 713.15 1145.30 699.52 1137.00 698.00
C 1140.08 707.21 1143.45 716.39 1145.00 726.00
C 1154.48 725.01 1151.20 710.11 1156.00 704.00
C 1160.80 710.06 1157.54 725.04 1167.00 726.00
C 1168.56 716.35 1171.92 707.21 1175.00 698.00
C 1166.40 699.46 1168.98 713.36 1165.00 720.00
C 1160.56 717.20 1161.91 698.08 1156.03 698.03 C 1150.16 697.99 1151.57 717.19 1147.00 720.00 Z"/>
</g>
<g fill="None" fill-opacity="0.0" stroke="#FFFFFF" stroke-opacity="1.00" stroke-width="0.3"><path d="
M 1218.00 721.00 
C 1214.36 713.85 1214.95 700.10 1207.00 698.00
C 1208.23 707.05 1212.29 708.33 1214.07 717.93 C 1215.86 727.52 1222.36 726.12 1224.03 717.03 C 1225.70 707.93 1228.55 706.21 1231.00 698.00
C 1221.77 699.83 1224.04 714.79 1218.00 721.00 Z"/>
</g>
<g fill="None" fill-opacity="0.0" stroke="#000000" stroke-opacity="1.00" stroke-width="0.3"><path d="
M 696.00 700.00 
C 684.88 698.86 682.09 721.58 694.00 723.00 C 705.91 724.42 707.01 701.13 696.00 700.00 Z"/>
</g>
<g fill="None" fill-opacity="0.0" stroke="#000000" stroke-opacity="1.00" stroke-width="0.3"><path d="
M 726.00 700.00 
C 714.40 698.81 711.50 721.62 724.00 723.00 C 736.50 724.38 737.55 701.18 726.00 700.00 Z"/>
</g>
<g fill="None" fill-opacity="0.0" stroke="#000000" stroke-opacity="1.00" stroke-width="0.3"><path d="
M 804.00 710.00 
C 804.36 697.49 786.19 697.99 786.00 710.00
C 792.00 710.00 798.00 710.00 804.00 710.00 Z"/>
</g>
<g fill="None" fill-opacity="0.0" stroke="#000000" stroke-opacity="1.00" stroke-width="0.3"><path d="
M 887.00 700.00 
C 874.99 698.21 872.65 720.79 884.32 722.66 C 896.00 724.53 897.47 701.56 887.00 700.00 Z"/>
</g>
<g fill="None" fill-opacity="0.0" stroke="#000000" stroke-opacity="1.00" stroke-width="0.3"><path d="
M 989.00 710.00 
C 990.65 697.57 970.33 697.60 972.00 710.00
C 977.67 710.00 983.33 710.00 989.00 710.00 Z"/>
</g>
<g fill="None" fill-opacity="0.0" stroke="#000000" stroke-opacity="1.00" stroke-width="0.3"><path d="
M 1105.00 700.00 
C 1093.07 698.67 1091.02 721.10 1102.75 723.20 C 1114.49 725.29 1115.88 701.22 1105.00 700.00 Z"/>
</g>
<g fill="None" fill-opacity="0.0" stroke="#000000" stroke-opacity="1.00" stroke-width="0.3"><path d="
M 1256.00 710.00 
C 1256.06 697.77 1238.28 697.94 1238.00 710.00
C 1244.00 710.00 1250.00 710.00 1256.00 710.00 Z"/>
</g>
<g fill="None" fill-opacity="0.0" stroke="#000000" stroke-opacity="1.00" stroke-width="0.3"><path d="
M 1293.00 700.00 
C 1280.34 698.58 1279.04 722.73 1291.26 723.60 C 1303.48 724.46 1304.22 701.26 1293.00 700.00 Z"/>
</g>
<g fill="None" fill-opacity="0.0" stroke="#000000" stroke-opacity="1.00" stroke-width="0.3"><path d="
M 1198.00 712.00 
C 1192.14 710.37 1178.43 715.46 1184.78 722.22 C 1191.13 728.98 1200.16 718.14 1198.00 712.00 Z"/>
</g>
<g fill="None" fill-opacity="0.0" stroke="#FFFFFF" stroke-opacity="1.00" stroke-width="0.3"><path d="
M 1396.00 721.00 
C 1393.30 719.47 1389.55 723.24 1392.33 725.67 C 1395.10 728.09 1398.83 722.61 1396.00 721.00 Z"/>
</g>
<g fill="#000000" fill-opacity="1.00" stroke="None">
<path d="
M 0.00 1244.00 
L 2057.00 1244.00
L 2057.00 0.00
L 0.00 0.00
L 0.00 1244.00
M 1542.00 526.00 
C 1558.30 527.74 1557.72 552.76 1571.08 558.92 C 1584.45 565.07 1592.62 538.05 1601.75 530.75 C 1610.89 523.45 1615.13 526.42 1621.75 532.25 C 1628.38 538.08 1629.66 544.56 1634.30 550.70 C 1638.95 556.83 1644.84 565.35 1651.75 557.75 C 1658.66 550.16 1658.94 548.29 1665.25 539.25 C 1671.57 530.22 1675.26 536.10 1668.75 543.75 C 1662.23 551.39 1662.02 555.03 1655.75 561.75 C 1649.48 568.48 1640.96 567.77 1635.75 561.25 C 1630.54 554.72 1626.00 549.74 1622.25 542.75 C 1618.49 535.77 1611.61 529.05 1605.25 535.25 C 1598.88 541.44 1596.82 547.15 1592.23 553.23 C 1587.65 559.31 1583.33 567.44 1574.98 566.98 C 1566.62 566.51 1562.93 557.50 1558.23 551.77 C 1553.53 546.04 1551.31 539.06 1544.77 534.23 C 1538.23 529.41 1531.45 536.74 1527.75 543.75 C 1524.04 550.75 1520.65 554.79 1514.75 561.75 C 1508.85 568.71 1500.67 566.50 1494.25 560.75 C 1487.83 555.00 1486.25 543.84 1493.75 550.25 C 1501.26 556.66 1500.21 564.98 1510.75 557.75 C 1521.29 550.52 1525.82 524.27 1542.00 526.00
M 508.00 530.00 
C 508.00 537.00 508.00 544.00 508.00 551.00
C 501.00 551.00 494.00 551.00 487.00 551.00
C 487.00 544.00 487.00 537.00 487.00 530.00
C 494.00 530.00 501.00 530.00 508.00 530.00
M 1048.00 571.00 
C 1043.67 571.00 1039.33 571.00 1035.00 571.00
C 1034.14 559.81 1027.37 549.88 1016.92 545.08 C 1006.47 540.27 990.74 540.49 980.92 546.92 C 971.10 553.35 965.16 562.40 962.67 573.67 C 960.19 584.94 960.56 600.60 965.93 611.07 C 971.29 621.55 978.52 628.54 990.07 631.93 C 1001.63 635.31 1015.22 632.46 1024.75 624.75 C 1034.28 617.04 1032.00 598.27 1048.00 603.00
C 1046.97 641.13 996.14 657.70 968.77 634.23 C 941.41 610.76 940.95 565.48 967.75 541.75 C 994.56 518.03 1045.74 532.06 1048.00 571.00
M 1256.00 531.00 
C 1256.00 536.00 1256.00 541.00 1256.00 546.00
C 1251.00 546.00 1246.00 546.00 1241.00 546.00
C 1242.42 542.29 1238.77 534.78 1241.78 531.78 C 1244.79 528.78 1252.27 532.41 1256.00 531.00
M 1433.00 531.00 
C 1433.00 568.33 1433.00 605.67 1433.00 643.00
C 1429.00 643.00 1425.00 643.00 1421.00 643.00
C 1421.01 605.67 1421.00 568.33 1421.00 531.00
C 1425.00 531.00 1429.00 531.00 1433.00 531.00
M 423.00 623.00 
C 425.77 616.37 428.12 609.81 430.77 602.77 C 433.42 595.73 434.90 588.97 437.78 581.78 C 440.65 574.58 442.59 567.72 444.98 559.98 C 447.36 552.23 451.00 548.36 452.32 539.32 C 453.64 530.29 465.55 531.25 474.00 532.00
C 461.89 569.35 447.00 605.89 434.00 643.00
C 426.33 643.00 418.67 643.00 411.00 643.00
C 397.42 606.00 384.15 568.85 370.00 532.00
C 381.95 529.52 393.10 531.87 394.93 543.07 C 396.75 554.28 401.44 560.07 403.98 570.02 C 406.51 579.97 410.91 587.13 413.32 596.68 C 415.73 606.23 419.69 614.23 423.00 623.00
M 547.00 532.00 
C 547.67 546.83 545.67 562.99 548.00 577.00
C 557.40 558.08 587.02 558.37 599.75 574.25 C 612.48 590.12 612.64 616.92 599.75 632.75 C 586.86 648.58 557.89 649.55 548.00 631.00
C 545.81 634.09 547.57 639.16 547.00 643.00
C 540.67 643.00 534.33 643.00 528.00 643.00
C 528.00 606.00 528.00 569.00 528.00 532.00
C 534.33 532.00 540.67 532.00 547.00 532.00
M 888.00 539.00 
C 888.00 547.33 888.00 555.67 888.00 564.00
C 895.00 564.00 902.00 564.00 909.00 564.00
C 909.00 569.00 909.00 574.00 909.00 579.00
C 902.00 579.00 895.00 579.00 888.00 579.00
C 886.69 591.31 889.75 602.58 888.00 615.00 C 886.25 627.42 898.36 632.08 909.00 628.00
C 909.00 633.00 909.00 638.00 909.00 643.00
C 896.28 645.42 876.57 646.78 870.70 631.31 C 864.82 615.83 869.54 595.77 868.00 579.00
C 863.00 579.00 858.00 579.00 853.00 579.00
C 853.00 574.00 853.00 569.00 853.00 564.00
C 858.00 564.00 863.00 564.00 868.00 564.00
C 868.00 558.00 868.00 552.00 868.00 546.00
C 874.77 544.04 881.26 541.12 888.00 539.00
M 1298.00 541.00 
C 1298.00 548.67 1298.00 556.33 1298.00 564.00
C 1306.00 564.00 1314.00 564.00 1322.00 564.00
C 1322.00 567.67 1322.00 571.33 1322.00 575.00
C 1314.00 575.00 1306.00 575.00 1298.00 575.00
C 1296.98 589.14 1299.36 602.81 1298.00 617.00 C 1296.64 631.19 1309.14 637.68 1322.00 633.00
C 1325.34 648.34 1308.11 646.51 1297.77 642.23 C 1287.44 637.95 1284.98 626.88 1286.00 615.00 C 1287.02 603.12 1285.23 587.24 1286.00 575.00
C 1280.67 575.00 1275.33 575.00 1270.00 575.00
C 1270.00 571.33 1270.00 567.67 1270.00 564.00
C 1275.34 564.00 1280.66 564.00 1286.00 564.00
C 1286.00 557.67 1286.00 551.33 1286.00 545.00
C 1290.33 544.81 1293.81 541.77 1298.00 541.00
M 1677.00 568.00 
C 1676.51 575.02 1670.64 581.00 1666.75 586.75 C 1662.85 592.49 1658.60 600.04 1650.99 600.99 C 1643.38 601.94 1637.31 594.95 1633.25 588.75 C 1629.19 582.56 1626.05 577.23 1621.23 570.77 C 1616.41 564.31 1607.30 568.16 1604.08 575.08 C 1600.87 582.01 1595.46 586.02 1591.75 592.75 C 1588.05 599.48 1578.56 603.56 1571.92 599.08 C 1565.29 594.59 1563.27 587.45 1558.75 582.25 C 1554.22 577.06 1552.62 568.25 1544.97 567.03 C 1537.33 565.80 1533.61 575.82 1529.25 581.25 C 1524.88 586.67 1523.20 593.02 1516.25 598.25 C 1509.29 603.48 1502.61 600.09 1496.25 593.75 C 1489.89 587.41 1491.55 578.87 1497.25 585.75 C 1502.96 592.62 1507.16 598.48 1513.75 592.75 C 1520.34 587.02 1522.06 581.67 1526.75 575.75 C 1531.44 569.84 1533.98 562.09 1542.07 561.07 C 1550.17 560.06 1554.89 566.65 1559.25 572.75 C 1563.62 578.84 1566.49 583.92 1571.25 590.75 C 1576.02 597.58 1584.56 595.18 1588.30 588.30 C 1592.04 581.42 1596.45 576.70 1600.30 570.30 C 1604.16 563.91 1612.03 558.99 1619.02 561.98 C 1626.01 564.96 1628.41 572.69 1632.92 578.08 C 1637.43 583.48 1639.72 590.56 1646.25 594.75 C 1652.77 598.94 1658.75 587.88 1662.30 583.30 C 1665.86 578.73 1669.50 567.64 1677.00 568.00
M 1126.00 643.00 
C 1122.00 643.00 1118.00 643.00 1114.00 643.00
C 1113.48 639.74 1113.59 635.61 1112.00 633.00
C 1107.27 642.41 1094.84 645.58 1085.00 645.00 C 1075.16 644.42 1063.52 639.86 1061.08 628.92 C 1058.63 617.99 1063.01 606.90 1073.70 602.70 C 1084.38 598.49 1094.08 596.87 1106.02 595.02 C 1117.96 593.18 1110.62 574.45 1100.00 574.00 C 1089.37 573.55 1076.45 573.53 1075.00 587.00
C 1071.00 587.00 1067.00 587.00 1063.00 587.00
C 1063.92 564.98 1098.75 552.06 1116.08 567.92 C 1133.41 583.78 1120.58 621.82 1126.00 643.00
M 1162.00 631.00 
C 1159.68 644.76 1161.66 660.49 1161.00 675.00
C 1156.67 675.00 1152.33 675.00 1148.00 675.00
C 1148.00 638.00 1148.00 601.00 1148.00 564.00
C 1152.00 564.00 1156.00 564.00 1160.00 564.00
C 1160.64 568.17 1158.71 573.66 1161.00 577.00
C 1171.40 558.83 1200.15 557.40 1213.75 573.25 C 1227.35 589.09 1227.32 616.33 1214.70 632.70 C 1202.08 649.06 1172.21 649.55 1162.00 631.00
M 1398.00 643.00 
C 1394.00 643.00 1390.00 643.00 1386.00 643.00
C 1385.48 639.74 1385.59 635.61 1384.00 633.00
C 1379.41 642.30 1366.93 645.62 1357.00 645.00 C 1347.07 644.38 1335.58 639.70 1333.22 628.78 C 1330.87 617.85 1334.93 606.77 1345.70 602.70 C 1356.46 598.62 1366.17 596.65 1378.02 595.02 C 1389.88 593.39 1382.85 574.48 1372.33 573.67 C 1361.81 572.87 1348.48 574.01 1347.00 587.00
C 1343.00 587.00 1339.00 587.00 1335.00 587.00
C 1336.18 565.20 1370.68 552.01 1388.08 567.92 C 1405.49 583.82 1392.55 621.78 1398.00 643.00
M 672.00 563.00 
C 672.00 569.00 672.00 575.00 672.00 581.00
C 660.05 579.60 644.21 583.42 644.01 598.01 C 643.80 612.60 644.14 628.31 644.00 643.00
C 637.67 643.00 631.33 643.00 625.00 643.00
C 625.00 616.67 625.00 590.33 625.00 564.00
C 631.00 564.00 637.00 564.00 643.00 564.00
C 643.00 568.67 643.00 573.33 643.00 578.00
C 648.90 568.03 659.47 560.37 672.00 563.00
M 751.00 643.00 
C 740.78 643.51 726.94 645.51 730.00 631.00
C 720.80 647.97 682.35 652.77 678.07 626.93 C 673.79 601.09 710.87 593.99 730.00 594.00
C 734.45 575.00 703.49 570.55 699.00 587.00
C 692.67 587.00 686.33 587.00 680.00 587.00
C 685.41 564.14 717.34 553.57 737.75 568.25 C 758.15 582.94 743.93 621.64 751.00 643.00
M 844.00 643.00 
C 837.33 643.00 830.67 643.00 824.00 643.00
C 822.19 626.78 826.42 603.51 824.00 588.00 C 821.58 572.49 794.80 575.60 790.25 589.25 C 785.69 602.90 789.01 627.67 788.00 643.00
C 781.67 643.00 775.33 643.00 769.00 643.00
C 769.00 616.67 769.00 590.33 769.00 564.00
C 775.33 564.00 781.67 564.00 788.00 564.00
C 788.64 568.50 786.70 574.33 789.00 578.00
C 796.95 562.04 828.10 554.28 839.25 572.75 C 850.40 591.22 840.72 621.72 844.00 643.00
M 507.00 564.00 
C 507.00 590.33 507.00 616.67 507.00 643.00
C 500.67 643.00 494.33 643.00 488.00 643.00
C 488.00 616.67 488.00 590.33 488.00 564.00
C 494.33 564.00 500.67 564.00 507.00 564.00
M 1255.00 564.00 
C 1255.00 590.33 1255.00 616.67 1255.00 643.00
C 1250.67 643.00 1246.33 643.00 1242.00 643.00
C 1242.00 616.67 1242.00 590.33 1242.00 564.00
C 1246.33 564.00 1250.67 564.00 1255.00 564.00
M 1547.00 606.00 
C 1561.95 609.42 1560.98 631.19 1573.75 638.25 C 1586.52 645.31 1595.24 620.65 1602.75 612.75 C 1610.26 604.85 1615.43 605.01 1622.25 609.75 C 1629.06 614.49 1631.33 621.74 1635.30 626.70 C 1639.28 631.65 1643.65 641.12 1649.70 640.65 C 1655.74 640.17 1662.41 630.46 1664.25 625.25 C 1666.10 620.05 1678.08 609.16 1676.22 617.22 C 1674.36 625.28 1667.09 628.24 1664.08 635.08 C 1661.07 641.92 1652.65 647.13 1645.93 645.07 C 1639.20 643.02 1635.38 635.46 1631.23 629.77 C 1627.08 624.08 1624.97 618.46 1618.75 613.25 C 1612.54 608.04 1605.44 615.88 1602.23 622.23 C 1599.02 628.58 1594.06 633.42 1589.75 639.75 C 1585.44 646.08 1575.43 647.31 1570.25 641.75 C 1565.07 636.19 1561.06 630.27 1557.25 624.75 C 1553.44 619.23 1549.15 609.27 1541.78 611.78 C 1534.40 614.29 1533.00 621.88 1528.23 627.23 C 1523.46 632.58 1522.18 639.96 1514.75 643.75 C 1507.33 647.54 1501.28 645.22 1495.75 637.25 C 1490.21 629.29 1492.26 625.01 1499.30 633.70 C 1506.35 642.39 1507.36 642.79 1516.25 635.25 C 1525.14 627.71 1530.99 602.34 1547.00 606.00
M 1324.00 690.00 
C 1315.33 687.74 1314.82 700.37 1323.00 699.00
C 1319.00 700.93 1315.95 702.69 1317.00 709.00 C 1318.05 715.31 1316.21 719.85 1317.00 726.00
C 1306.14 725.02 1319.88 701.99 1309.00 701.00
C 1311.23 698.31 1313.48 694.13 1314.77 689.77 C 1316.06 685.41 1324.64 684.85 1324.00 690.00
M 612.00 692.00 
C 612.00 696.33 612.00 700.67 612.00 705.00
C 617.67 705.00 623.33 705.00 629.00 705.00
C 629.30 712.81 617.18 707.39 612.00 709.00
C 612.00 713.67 612.00 718.33 612.00 723.00
C 618.33 723.00 624.67 723.00 631.00 723.00
C 628.07 729.58 614.97 724.31 608.00 726.00
C 607.02 715.71 609.30 708.60 608.00 698.00 C 606.70 687.40 614.88 685.51 626.00 688.00 C 637.12 690.49 618.29 694.00 612.00 692.00
M 836.00 688.00 
C 838.53 689.23 836.22 694.46 833.32 692.66 C 830.42 690.86 833.18 686.63 836.00 688.00
M 943.00 688.00 
C 943.00 692.33 943.00 696.67 943.00 701.00
C 946.48 695.52 958.89 695.79 960.30 702.70 C 961.72 709.61 963.05 722.86 958.00 726.00
C 956.15 718.98 963.04 700.49 950.93 700.07 C 938.81 699.65 944.02 718.71 943.00 726.00
C 936.21 725.79 939.04 712.75 939.00 707.00 C 938.96 701.25 936.29 689.04 943.00 688.00
M 1037.00 688.00 
C 1037.00 692.33 1037.00 696.67 1037.00 701.00
C 1054.09 687.26 1057.88 713.40 1055.00 726.00
C 1046.34 723.41 1058.71 701.48 1045.78 700.22 C 1032.84 698.97 1037.86 718.22 1037.00 726.00
C 1030.21 725.79 1033.04 712.75 1033.00 707.00 C 1032.96 701.25 1030.29 689.04 1037.00 688.00
M 1067.00 688.00 
C 1069.53 689.23 1067.22 694.46 1064.32 692.66 C 1061.42 690.86 1064.18 686.63 1067.00 688.00
M 1116.00 688.00 
C 1116.00 700.67 1116.00 713.33 1116.00 726.00
C 1111.99 727.43 1112.55 723.83 1111.00 722.00
C 1103.35 732.67 1091.99 723.09 1092.00 712.00 C 1092.01 700.91 1103.60 690.99 1112.00 702.00
C 1113.33 697.54 1108.60 687.11 1116.00 688.00
M 1359.00 688.00 
C 1362.31 700.94 1368.42 713.07 1372.00 726.00
C 1366.07 727.02 1366.96 718.75 1365.00 715.00
C 1360.64 716.14 1352.42 713.14 1348.78 715.78 C 1345.13 718.42 1347.88 727.67 1341.00 726.00
C 1343.78 719.62 1345.67 711.89 1348.77 705.77 C 1351.87 699.65 1350.77 688.47 1359.00 688.00
M 1382.00 688.00 
C 1382.00 700.67 1382.00 713.33 1382.00 726.00
C 1376.77 724.29 1378.98 712.73 1379.00 707.00 C 1379.02 701.27 1376.72 689.73 1382.00 688.00
M 926.00 691.00 
C 924.39 696.84 927.62 698.20 932.00 699.00
C 925.84 700.47 925.63 704.77 926.00 711.00 C 926.37 717.23 924.31 723.74 932.00 724.00
C 928.18 729.60 921.87 723.48 922.00 718.00 C 922.14 712.52 924.58 700.94 918.00 701.00
C 916.31 696.85 922.57 699.31 921.96 695.96 C 921.35 692.62 922.26 690.13 926.00 691.00
M 1020.00 691.00 
C 1019.46 694.98 1019.65 699.61 1025.00 698.00
C 1026.44 702.32 1021.18 699.81 1020.00 702.00
C 1021.50 709.44 1015.65 723.25 1026.00 724.00
C 1022.18 729.60 1015.87 723.48 1016.00 718.00 C 1016.14 712.52 1018.58 700.94 1012.00 701.00
C 1010.30 696.85 1016.57 699.31 1015.96 695.96 C 1015.35 692.62 1016.26 690.13 1020.00 691.00
M 657.00 702.00 
C 673.19 686.54 678.07 713.46 675.00 726.00
C 664.23 725.64 678.42 699.95 664.93 700.07 C 651.43 700.20 663.41 723.64 655.00 726.00
C 653.05 720.10 659.88 700.48 648.92 700.08 C 637.97 699.67 643.10 719.82 642.00 726.00
C 635.50 726.81 638.50 718.65 638.00 714.00 C 637.50 709.35 638.38 702.82 638.00 698.00
C 642.34 698.88 642.85 701.16 647.03 698.03 C 651.20 694.89 654.79 699.01 657.00 702.00
M 686.00 722.00 
C 686.00 727.00 686.00 732.00 686.00 737.00
C 680.23 735.02 683.76 725.20 683.00 719.00 C 682.24 712.80 683.57 704.40 683.00 698.00
C 687.32 696.56 684.81 701.82 687.00 703.00
C 693.45 690.60 707.45 700.36 707.00 712.00 C 706.55 723.64 695.49 732.28 686.00 722.00
M 727.00 697.00 
C 743.27 699.29 739.12 729.73 722.78 726.22 C 706.44 722.71 710.77 694.71 727.00 697.00
M 807.00 713.00 
C 800.00 713.00 793.00 713.00 786.00 713.00
C 786.01 724.90 799.35 724.59 806.00 719.00
C 799.85 734.46 779.11 724.00 783.00 708.00 C 786.89 692.00 810.07 695.79 807.00 713.00
M 827.00 697.00 
C 828.17 703.09 817.52 700.09 818.03 707.03 C 818.53 713.96 817.60 719.22 818.00 726.00
C 811.50 726.81 814.50 718.65 814.00 714.00 C 813.50 709.35 814.38 702.82 814.00 698.00
C 819.31 701.62 820.01 697.55 827.00 697.00
M 866.00 726.00 
C 857.56 723.64 869.43 701.18 856.78 700.22 C 844.12 699.27 848.80 718.36 848.00 726.00
C 842.75 725.57 845.50 718.58 845.00 714.00 C 844.50 709.42 845.37 702.77 845.00 698.00
C 849.09 703.46 857.33 692.53 863.25 699.75 C 869.16 706.98 864.51 717.30 866.00 726.00
M 893.00 703.00 
C 894.97 701.63 892.74 696.76 897.00 698.00
C 897.70 706.82 896.07 715.13 897.00 724.00 C 897.93 732.87 892.81 737.66 884.00 737.00 C 875.19 736.34 873.27 727.80 881.70 733.30 C 890.12 738.80 895.94 727.39 894.00 721.00
C 885.49 731.39 873.58 723.23 873.01 711.99 C 872.44 700.76 886.91 690.48 893.00 703.00
M 993.00 713.00 
C 986.00 713.00 979.00 713.00 972.00 713.00
C 969.75 722.19 984.90 727.50 988.00 719.00
C 996.79 723.78 978.37 730.57 972.75 723.25 C 967.14 715.92 965.50 704.86 974.75 698.75 C 984.01 692.64 994.36 703.34 993.00 713.00
M 1089.00 697.00 
C 1090.54 703.68 1079.18 699.14 1079.08 706.08 C 1078.97 713.02 1079.00 719.13 1079.00 726.00
C 1073.75 725.57 1076.50 718.58 1076.00 714.00 C 1075.50 709.42 1076.37 702.77 1076.00 698.00
C 1080.10 702.59 1082.70 696.51 1089.00 697.00
M 1201.00 726.00 
C 1197.16 720.93 1196.47 725.31 1190.78 726.78 C 1185.08 728.25 1180.38 724.28 1180.01 718.99 C 1179.64 713.70 1184.30 709.39 1190.01 710.01 C 1195.72 710.63 1200.96 705.74 1195.30 701.70 C 1189.63 697.67 1186.45 703.00 1182.00 705.00
C 1180.49 698.06 1193.05 693.68 1198.25 699.75 C 1203.44 705.82 1200.08 718.03 1201.00 726.00
M 1259.00 713.00 
C 1252.00 713.00 1245.00 713.00 1238.00 713.00
C 1238.61 718.98 1244.53 728.04 1252.22 722.22 C 1259.91 716.40 1256.62 726.96 1247.98 726.98 C 1239.34 726.99 1234.99 719.62 1235.00 712.00 C 1235.01 704.38 1238.93 697.25 1247.02 697.02 C 1255.12 696.80 1260.23 705.79 1259.00 713.00
M 1294.00 697.00 
C 1309.66 699.42 1306.43 729.57 1289.78 726.22 C 1273.13 722.87 1277.30 694.42 1294.00 697.00
M 752.00 720.00 
C 753.88 712.65 756.56 705.50 758.00 698.00
C 766.72 699.47 765.39 713.65 768.00 721.00
C 773.32 714.72 770.16 699.81 779.00 698.00
C 776.75 707.44 772.47 716.33 771.00 726.00
C 762.01 724.68 764.97 709.99 760.00 704.00
C 756.81 711.47 757.46 712.55 755.01 721.01 C 752.56 729.47 747.70 722.58 747.02 715.98 C 746.35 709.37 741.51 704.87 742.00 698.00
C 749.96 700.46 747.18 714.01 752.00 720.00
M 836.00 698.00 
C 836.00 707.33 836.00 716.67 836.00 726.00
C 830.98 725.72 832.98 716.24 833.00 712.00 C 833.03 707.76 830.90 698.31 836.00 698.00
M 1067.00 698.00 
C 1067.00 707.33 1067.00 716.67 1067.00 726.00
C 1061.99 725.72 1063.97 716.24 1064.00 712.00 C 1064.03 707.76 1061.90 698.32 1067.00 698.00
M 1147.00 720.00 
C 1151.57 717.19 1150.16 697.99 1156.03 698.03 C 1161.91 698.08 1160.56 717.20 1165.00 720.00
C 1168.98 713.36 1166.40 699.46 1175.00 698.00
C 1171.92 707.21 1168.56 716.35 1167.00 726.00
C 1157.54 725.04 1160.80 710.06 1156.00 704.00
C 1151.20 710.11 1154.48 725.01 1145.00 726.00
C 1143.45 716.39 1140.08 707.21 1137.00 698.00
C 1145.30 699.52 1143.67 713.15 1147.00 720.00
M 1218.00 721.00 
C 1224.04 714.79 1221.77 699.83 1231.00 698.00
C 1228.55 706.21 1225.70 707.93 1224.03 717.03 C 1222.36 726.12 1215.86 727.52 1214.07 717.93 C 1212.29 708.33 1208.23 707.05 1207.00 698.00
C 1214.95 700.10 1214.36 713.85 1218.00 721.00
M 1396.00 721.00 
C 1398.83 722.61 1395.10 728.09 1392.33 725.67 C 1389.55 723.24 1393.30 719.47 1396.00 721.00 Z"/>
</g>
<g fill="#FFFFFF" fill-opacity="1.00" stroke="None">
<path d="
M 1542.00 526.00 
C 1525.82 524.27 1521.29 550.52 1510.75 557.75 C 1500.21 564.98 1501.26 556.66 1493.75 550.25 C 1486.25 543.84 1487.83 555.00 1494.25 560.75 C 1500.67 566.50 1508.85 568.71 1514.75 561.75 C 1520.65 554.79 1524.04 550.75 1527.75 543.75 C 1531.45 536.74 1538.23 529.41 1544.77 534.23 C 1551.31 539.06 1553.53 546.04 1558.23 551.77 C 1562.93 557.50 1566.62 566.51 1574.98 566.98 C 1583.33 567.44 1587.65 559.31 1592.23 553.23 C 1596.82 547.15 1598.88 541.44 1605.25 535.25 C 1611.61 529.05 1618.49 535.77 1622.25 542.75 C 1626.00 549.74 1630.54 554.72 1635.75 561.25 C 1640.96 567.77 1649.48 568.48 1655.75 561.75 C 1662.02 555.03 1662.23 551.39 1668.75 543.75 C 1675.26 536.10 1671.57 530.22 1665.25 539.25 C 1658.94 548.29 1658.66 550.16 1651.75 557.75 C 1644.84 565.35 1638.95 556.83 1634.30 550.70 C 1629.66 544.56 1628.38 538.08 1621.75 532.25 C 1615.13 526.42 1610.89 523.45 1601.75 530.75 C 1592.62 538.05 1584.45 565.07 1571.08 558.92 C 1557.72 552.76 1558.30 527.74 1542.00 526.00 Z"/>
</g>
<g fill="#FFFFFF" fill-opacity="1.00" stroke="None">
<path d="
M 508.00 530.00 
C 501.00 530.00 494.00 530.00 487.00 530.00
C 487.00 537.00 487.00 544.00 487.00 551.00
C 494.00 551.00 501.00 551.00 508.00 551.00
C 508.00 544.00 508.00 537.00 508.00 530.00 Z"/>
</g>
<g fill="#FFFFFF" fill-opacity="1.00" stroke="None">
<path d="
M 1048.00 571.00 
C 1045.74 532.06 994.56 518.03 967.75 541.75 C 940.95 565.48 941.41 610.76 968.77 634.23 C 996.14 657.70 1046.97 641.13 1048.00 603.00
C 1032.00 598.27 1034.28 617.04 1024.75 624.75 C 1015.22 632.46 1001.63 635.31 990.07 631.93 C 978.52 628.54 971.29 621.55 965.93 611.07 C 960.56 600.60 960.19 584.94 962.67 573.67 C 965.16 562.40 971.10 553.35 980.92 546.92 C 990.74 540.49 1006.47 540.27 1016.92 545.08 C 1027.37 549.88 1034.14 559.81 1035.00 571.00
C 1039.33 571.00 1043.67 571.00 1048.00 571.00 Z"/>
</g>
<g fill="#FFFFFF" fill-opacity="1.00" stroke="None">
<path d="
M 1256.00 531.00 
C 1252.27 532.41 1244.79 528.78 1241.78 531.78 C 1238.77 534.78 1242.42 542.29 1241.00 546.00
C 1246.00 546.00 1251.00 546.00 1256.00 546.00
C 1256.00 541.00 1256.00 536.00 1256.00 531.00 Z"/>
</g>
<g fill="#FFFFFF" fill-opacity="1.00" stroke="None">
<path d="
M 1433.00 531.00 
C 1429.00 531.00 1425.00 531.00 1421.00 531.00
C 1421.00 568.33 1421.01 605.67 1421.00 643.00
C 1425.00 643.00 1429.00 643.00 1433.00 643.00
C 1433.00 605.67 1433.00 568.33 1433.00 531.00 Z"/>
</g>
<g fill="#FFFFFF" fill-opacity="1.00" stroke="None">
<path d="
M 423.00 623.00 
C 419.69 614.23 415.73 606.23 413.32 596.68 C 410.91 587.13 406.51 579.97 403.98 570.02 C 401.44 560.07 396.75 554.28 394.93 543.07 C 393.10 531.87 381.95 529.52 370.00 532.00
C 384.15 568.85 397.42 606.00 411.00 643.00
C 418.67 643.00 426.33 643.00 434.00 643.00
C 447.00 605.89 461.89 569.35 474.00 532.00
C 465.55 531.25 453.64 530.29 452.32 539.32 C 451.00 548.36 447.36 552.23 444.98 559.98 C 442.59 567.72 440.65 574.58 437.78 581.78 C 434.90 588.97 433.42 595.73 430.77 602.77 C 428.12 609.81 425.77 616.37 423.00 623.00 Z"/>
</g>
<g fill="#FFFFFF" fill-opacity="1.00" stroke="None">
<path d="
M 547.00 532.00 
C 540.67 532.00 534.33 532.00 528.00 532.00
C 528.00 569.00 528.00 606.00 528.00 643.00
C 534.33 643.00 540.67 643.00 547.00 643.00
C 547.57 639.16 545.81 634.09 548.00 631.00
C 557.89 649.55 586.86 648.58 599.75 632.75 C 612.64 616.92 612.48 590.12 599.75 574.25 C 587.02 558.37 557.40 558.08 548.00 577.00
C 545.67 562.99 547.67 546.83 547.00 532.00
M 571.00 578.00 
C 598.57 581.45 593.22 633.29 565.00 629.00 C 536.78 624.71 542.94 574.49 571.00 578.00 Z"/>
</g>
<g fill="#FFFFFF" fill-opacity="1.00" stroke="None">
<path d="
M 888.00 539.00 
C 881.26 541.12 874.77 544.04 868.00 546.00
C 868.00 552.00 868.00 558.00 868.00 564.00
C 863.00 564.00 858.00 564.00 853.00 564.00
C 853.00 569.00 853.00 574.00 853.00 579.00
C 858.00 579.00 863.00 579.00 868.00 579.00
C 869.54 595.77 864.82 615.83 870.70 631.31 C 876.57 646.78 896.28 645.42 909.00 643.00
C 909.00 638.00 909.00 633.00 909.00 628.00
C 898.36 632.08 886.25 627.42 888.00 615.00 C 889.75 602.58 886.69 591.31 888.00 579.00
C 895.00 579.00 902.00 579.00 909.00 579.00
C 909.00 574.00 909.00 569.00 909.00 564.00
C 902.00 564.00 895.00 564.00 888.00 564.00
C 888.00 555.67 888.00 547.33 888.00 539.00 Z"/>
</g>
<g fill="#FFFFFF" fill-opacity="1.00" stroke="None">
<path d="
M 1298.00 541.00 
C 1293.81 541.77 1290.33 544.81 1286.00 545.00
C 1286.00 551.33 1286.00 557.67 1286.00 564.00
C 1280.66 564.00 1275.34 564.00 1270.00 564.00
C 1270.00 567.67 1270.00 571.33 1270.00 575.00
C 1275.33 575.00 1280.67 575.00 1286.00 575.00
C 1285.23 587.24 1287.02 603.12 1286.00 615.00 C 1284.98 626.88 1287.44 637.95 1297.77 642.23 C 1308.11 646.51 1325.34 648.34 1322.00 633.00
C 1309.14 637.68 1296.64 631.19 1298.00 617.00 C 1299.36 602.81 1296.98 589.14 1298.00 575.00
C 1306.00 575.00 1314.00 575.00 1322.00 575.00
C 1322.00 571.33 1322.00 567.67 1322.00 564.00
C 1314.00 564.00 1306.00 564.00 1298.00 564.00
C 1298.00 556.33 1298.00 548.67 1298.00 541.00 Z"/>
</g>
<g fill="#FFFFFF" fill-opacity="1.00" stroke="None">
<path d="
M 1677.00 568.00 
C 1669.50 567.64 1665.86 578.73 1662.30 583.30 C 1658.75 587.88 1652.77 598.94 1646.25 594.75 C 1639.72 590.56 1637.43 583.48 1632.92 578.08 C 1628.41 572.69 1626.01 564.96 1619.02 561.98 C 1612.03 558.99 1604.16 563.91 1600.30 570.30 C 1596.45 576.70 1592.04 581.42 1588.30 588.30 C 1584.56 595.18 1576.02 597.58 1571.25 590.75 C 1566.49 583.92 1563.62 578.84 1559.25 572.75 C 1554.89 566.65 1550.17 560.06 1542.07 561.07 C 1533.98 562.09 1531.44 569.84 1526.75 575.75 C 1522.06 581.67 1520.34 587.02 1513.75 592.75 C 1507.16 598.48 1502.96 592.62 1497.25 585.75 C 1491.55 578.87 1489.89 587.41 1496.25 593.75 C 1502.61 600.09 1509.29 603.48 1516.25 598.25 C 1523.20 593.02 1524.88 586.67 1529.25 581.25 C 1533.61 575.82 1537.33 565.80 1544.97 567.03 C 1552.62 568.25 1554.22 577.06 1558.75 582.25 C 1563.27 587.45 1565.29 594.59 1571.92 599.08 C 1578.56 603.56 1588.05 599.48 1591.75 592.75 C 1595.46 586.02 1600.87 582.01 1604.08 575.08 C 1607.30 568.16 1616.41 564.31 1621.23 570.77 C 1626.05 577.23 1629.19 582.56 1633.25 588.75 C 1637.31 594.95 1643.38 601.94 1650.99 600.99 C 1658.60 600.04 1662.85 592.49 1666.75 586.75 C 1670.64 581.00 1676.51 575.02 1677.00 568.00 Z"/>
</g>
<g fill="#FFFFFF" fill-opacity="1.00" stroke="None">
<path d="
M 1126.00 643.00 
C 1120.58 621.82 1133.41 583.78 1116.08 567.92 C 1098.75 552.06 1063.92 564.98 1063.00 587.00
C 1067.00 587.00 1071.00 587.00 1075.00 587.00
C 1076.45 573.53 1089.37 573.55 1100.00 574.00 C 1110.62 574.45 1117.96 593.18 1106.02 595.02 C 1094.08 596.87 1084.38 598.49 1073.70 602.70 C 1063.01 606.90 1058.63 617.99 1061.08 628.92 C 1063.52 639.86 1075.16 644.42 1085.00 645.00 C 1094.84 645.58 1107.27 642.41 1112.00 633.00
C 1113.59 635.61 1113.48 639.74 1114.00 643.00
C 1118.00 643.00 1122.00 643.00 1126.00 643.00
M 1112.00 605.00 
C 1115.42 620.19 1108.91 629.32 1095.78 633.78 C 1082.64 638.23 1065.90 626.19 1075.25 614.25 C 1084.61 602.32 1100.15 609.75 1112.00 605.00 Z"/>
</g>
<g fill="#FFFFFF" fill-opacity="1.00" stroke="None">
<path d="
M 1162.00 631.00 
C 1172.21 649.55 1202.08 649.06 1214.70 632.70 C 1227.32 616.33 1227.35 589.09 1213.75 573.25 C 1200.15 557.40 1171.40 558.83 1161.00 577.00
C 1158.71 573.66 1160.64 568.17 1160.00 564.00
C 1156.00 564.00 1152.00 564.00 1148.00 564.00
C 1148.00 601.00 1148.00 638.00 1148.00 675.00
C 1152.33 675.00 1156.67 675.00 1161.00 675.00
C 1161.66 660.49 1159.68 644.76 1162.00 631.00
M 1193.00 574.00 
C 1224.34 580.49 1212.51 642.88 1179.98 633.02 C 1147.45 623.17 1157.34 566.61 1193.00 574.00 Z"/>
</g>
<g fill="#FFFFFF" fill-opacity="1.00" stroke="None">
<path d="
M 1398.00 643.00 
C 1392.55 621.78 1405.49 583.82 1388.08 567.92 C 1370.68 552.01 1336.18 565.20 1335.00 587.00
C 1339.00 587.00 1343.00 587.00 1347.00 587.00
C 1348.48 574.01 1361.81 572.87 1372.33 573.67 C 1382.85 574.48 1389.88 593.39 1378.02 595.02 C 1366.17 596.65 1356.46 598.62 1345.70 602.70 C 1334.93 606.77 1330.87 617.85 1333.22 628.78 C 1335.58 639.70 1347.07 644.38 1357.00 645.00 C 1366.93 645.62 1379.41 642.30 1384.00 633.00
C 1385.59 635.61 1385.48 639.74 1386.00 643.00
C 1390.00 643.00 1394.00 643.00 1398.00 643.00
M 1384.00 605.00 
C 1387.41 620.18 1380.93 629.33 1367.78 633.78 C 1354.63 638.22 1337.97 626.24 1347.26 614.26 C 1356.54 602.27 1372.20 609.78 1384.00 605.00 Z"/>
</g>
<g fill="#FFFFFF" fill-opacity="1.00" stroke="None">
<path d="
M 672.00 563.00 
C 659.47 560.37 648.90 568.03 643.00 578.00
C 643.00 573.33 643.00 568.67 643.00 564.00
C 637.00 564.00 631.00 564.00 625.00 564.00
C 625.00 590.33 625.00 616.67 625.00 643.00
C 631.33 643.00 637.67 643.00 644.00 643.00
C 644.14 628.31 643.80 612.60 644.01 598.01 C 644.21 583.42 660.05 579.60 672.00 581.00
C 672.00 575.00 672.00 569.00 672.00 563.00 Z"/>
</g>
<g fill="#FFFFFF" fill-opacity="1.00" stroke="None">
<path d="
M 751.00 643.00 
C 743.93 621.64 758.15 582.94 737.75 568.25 C 717.34 553.57 685.41 564.14 680.00 587.00
C 686.33 587.00 692.67 587.00 699.00 587.00
C 703.49 570.55 734.45 575.00 730.00 594.00
C 710.87 593.99 673.79 601.09 678.07 626.93 C 682.35 652.77 720.80 647.97 730.00 631.00
C 726.94 645.51 740.78 643.51 751.00 643.00
M 730.00 606.00 
C 732.27 617.88 726.23 625.86 715.78 629.78 C 705.32 633.69 691.40 622.95 699.75 613.75 C 708.11 604.56 719.98 610.18 730.00 606.00 Z"/>
</g>
<g fill="#FFFFFF" fill-opacity="1.00" stroke="None">
<path d="
M 844.00 643.00 
C 840.72 621.72 850.40 591.22 839.25 572.75 C 828.10 554.28 796.95 562.04 789.00 578.00
C 786.70 574.33 788.64 568.50 788.00 564.00
C 781.67 564.00 775.33 564.00 769.00 564.00
C 769.00 590.33 769.00 616.67 769.00 643.00
C 775.33 643.00 781.67 643.00 788.00 643.00
C 789.01 627.67 785.69 602.90 790.25 589.25 C 794.80 575.60 821.58 572.49 824.00 588.00 C 826.42 603.51 822.19 626.78 824.00 643.00
C 830.67 643.00 837.33 643.00 844.00 643.00 Z"/>
</g>
<g fill="#FFFFFF" fill-opacity="1.00" stroke="None">
<path d="
M 507.00 564.00 
C 500.67 564.00 494.33 564.00 488.00 564.00
C 488.00 590.33 488.00 616.67 488.00 643.00
C 494.33 643.00 500.67 643.00 507.00 643.00
C 507.00 616.67 507.00 590.33 507.00 564.00 Z"/>
</g>
<g fill="#FFFFFF" fill-opacity="1.00" stroke="None">
<path d="
M 1255.00 564.00 
C 1250.67 564.00 1246.33 564.00 1242.00 564.00
C 1242.00 590.33 1242.00 616.67 1242.00 643.00
C 1246.33 643.00 1250.67 643.00 1255.00 643.00
C 1255.00 616.67 1255.00 590.33 1255.00 564.00 Z"/>
</g>
<g fill="#000000" fill-opacity="1.00" stroke="None">
<path d="
M 1193.00 574.00 
C 1157.34 566.61 1147.45 623.17 1179.98 633.02 C 1212.51 642.88 1224.34 580.49 1193.00 574.00 Z"/>
</g>
<g fill="#000000" fill-opacity="1.00" stroke="None">
<path d="
M 571.00 578.00 
C 542.94 574.49 536.78 624.71 565.00 629.00 C 593.22 633.29 598.57 581.45 571.00 578.00 Z"/>
</g>
<g fill="#000000" fill-opacity="1.00" stroke="None">
<path d="
M 1112.00 605.00 
C 1100.15 609.75 1084.61 602.32 1075.25 614.25 C 1065.90 626.19 1082.64 638.23 1095.78 633.78 C 1108.91 629.32 1115.42 620.19 1112.00 605.00 Z"/>
</g>
<g fill="#000000" fill-opacity="1.00" stroke="None">
<path d="
M 1384.00 605.00 
C 1372.20 609.78 1356.54 602.27 1347.26 614.26 C 1337.97 626.24 1354.63 638.22 1367.78 633.78 C 1380.93 629.33 1387.41 620.18 1384.00 605.00 Z"/>
</g>
<g fill="#000000" fill-opacity="1.00" stroke="None">
<path d="
M 730.00 606.00 
C 719.98 610.18 708.11 604.56 699.75 613.75 C 691.40 622.95 705.32 633.69 715.78 629.78 C 726.23 625.86 732.27 617.88 730.00 606.00 Z"/>
</g>
<g fill="#FFFFFF" fill-opacity="1.00" stroke="None">
<path d="
M 1547.00 606.00 
C 1530.99 602.34 1525.14 627.71 1516.25 635.25 C 1507.36 642.79 1506.35 642.39 1499.30 633.70 C 1492.26 625.01 1490.21 629.29 1495.75 637.25 C 1501.28 645.22 1507.33 647.54 1514.75 643.75 C 1522.18 639.96 1523.46 632.58 1528.23 627.23 C 1533.00 621.88 1534.40 614.29 1541.78 611.78 C 1549.15 609.27 1553.44 619.23 1557.25 624.75 C 1561.06 630.27 1565.07 636.19 1570.25 641.75 C 1575.43 647.31 1585.44 646.08 1589.75 639.75 C 1594.06 633.42 1599.02 628.58 1602.23 622.23 C 1605.44 615.88 1612.54 608.04 1618.75 613.25 C 1624.97 618.46 1627.08 624.08 1631.23 629.77 C 1635.38 635.46 1639.20 643.02 1645.93 645.07 C 1652.65 647.13 1661.07 641.92 1664.08 635.08 C 1667.09 628.24 1674.36 625.28 1676.22 617.22 C 1678.08 609.16 1666.10 620.05 1664.25 625.25 C 1662.41 630.46 1655.74 640.17 1649.70 640.65 C 1643.65 641.12 1639.28 631.65 1635.30 626.70 C 1631.33 621.74 1629.06 614.49 1622.25 609.75 C 1615.43 605.01 1610.26 604.85 1602.75 612.75 C 1595.24 620.65 1586.52 645.31 1573.75 638.25 C 1560.98 631.19 1561.95 609.42 1547.00 606.00 Z"/>
</g>
<g fill="#FFFFFF" fill-opacity="1.00" stroke="None">
<path d="
M 1324.00 690.00 
C 1324.64 684.85 1316.06 685.41 1314.77 689.77 C 1313.48 694.13 1311.23 698.31 1309.00 701.00
C 1319.88 701.99 1306.14 725.02 1317.00 726.00
C 1316.21 719.85 1318.05 715.31 1317.00 709.00 C 1315.95 702.69 1319.00 700.93 1323.00 699.00
C 1314.82 700.37 1315.33 687.74 1324.00 690.00 Z"/>
</g>
<g fill="#FFFFFF" fill-opacity="1.00" stroke="None">
<path d="
M 612.00 692.00 
C 618.29 694.00 637.12 690.49 626.00 688.00 C 614.88 685.51 606.70 687.40 608.00 698.00 C 609.30 708.60 607.02 715.71 608.00 726.00
C 614.97 724.31 628.07 729.58 631.00 723.00
C 624.67 723.00 618.33 723.00 612.00 723.00
C 612.00 718.33 612.00 713.67 612.00 709.00
C 617.18 707.39 629.30 712.81 629.00 705.00
C 623.33 705.00 617.67 705.00 612.00 705.00
C 612.00 700.67 612.00 696.33 612.00 692.00 Z"/>
</g>
<g fill="#FFFFFF" fill-opacity="1.00" stroke="None">
<path d="
M 836.00 688.00 
C 833.18 686.63 830.42 690.86 833.32 692.66 C 836.22 694.46 838.53 689.23 836.00 688.00 Z"/>
</g>
<g fill="#FFFFFF" fill-opacity="1.00" stroke="None">
<path d="
M 943.00 688.00 
C 936.29 689.04 938.96 701.25 939.00 707.00 C 939.04 712.75 936.21 725.79 943.00 726.00
C 944.02 718.71 938.81 699.65 950.93 700.07 C 963.04 700.49 956.15 718.98 958.00 726.00
C 963.05 722.86 961.72 709.61 960.30 702.70 C 958.89 695.79 946.48 695.52 943.00 701.00
C 943.00 696.67 943.00 692.33 943.00 688.00 Z"/>
</g>
<g fill="#FFFFFF" fill-opacity="1.00" stroke="None">
<path d="
M 1037.00 688.00 
C 1030.29 689.04 1032.96 701.25 1033.00 707.00 C 1033.04 712.75 1030.21 725.79 1037.00 726.00
C 1037.86 718.22 1032.84 698.97 1045.78 700.22 C 1058.71 701.48 1046.34 723.41 1055.00 726.00
C 1057.88 713.40 1054.09 687.26 1037.00 701.00
C 1037.00 696.67 1037.00 692.33 1037.00 688.00 Z"/>
</g>
<g fill="#FFFFFF" fill-opacity="1.00" stroke="None">
<path d="
M 1067.00 688.00 
C 1064.18 686.63 1061.42 690.86 1064.32 692.66 C 1067.22 694.46 1069.53 689.23 1067.00 688.00 Z"/>
</g>
<g fill="#FFFFFF" fill-opacity="1.00" stroke="None">
<path d="
M 1116.00 688.00 
C 1108.60 687.11 1113.33 697.54 1112.00 702.00
C 1103.60 690.99 1092.01 700.91 1092.00 712.00 C 1091.99 723.09 1103.35 732.67 1111.00 722.00
C 1112.55 723.83 1111.99 727.43 1116.00 726.00
C 1116.00 713.33 1116.00 700.67 1116.00 688.00
M 1105.00 700.00 
C 1115.88 701.22 1114.49 725.29 1102.75 723.20 C 1091.02 721.10 1093.07 698.67 1105.00 700.00 Z"/>
</g>
<g fill="#FFFFFF" fill-opacity="1.00" stroke="None">
<path d="
M 1359.00 688.00 
C 1350.77 688.47 1351.87 699.65 1348.77 705.77 C 1345.67 711.89 1343.78 719.62 1341.00 726.00
C 1347.88 727.67 1345.13 718.42 1348.78 715.78 C 1352.42 713.14 1360.64 716.14 1365.00 715.00
C 1366.96 718.75 1366.07 727.02 1372.00 726.00
C 1368.42 713.07 1362.31 700.94 1359.00 688.00
M 1363.00 711.00 
C 1358.67 711.00 1354.33 711.00 1350.00 711.00
C 1351.98 705.30 1354.57 699.88 1356.00 694.00
C 1360.06 698.41 1360.99 705.31 1363.00 711.00 Z"/>
</g>
<g fill="#FFFFFF" fill-opacity="1.00" stroke="None">
<path d="
M 1382.00 688.00 
C 1376.72 689.73 1379.02 701.27 1379.00 707.00 C 1378.98 712.73 1376.77 724.29 1382.00 726.00
C 1382.00 713.33 1382.00 700.67 1382.00 688.00 Z"/>
</g>
<g fill="#FFFFFF" fill-opacity="1.00" stroke="None">
<path d="
M 926.00 691.00 
C 922.26 690.13 921.35 692.62 921.96 695.96 C 922.57 699.31 916.31 696.85 918.00 701.00
C 924.58 700.94 922.14 712.52 922.00 718.00 C 921.87 723.48 928.18 729.60 932.00 724.00
C 924.31 723.74 926.37 717.23 926.00 711.00 C 925.63 704.77 925.84 700.47 932.00 699.00
C 927.62 698.20 924.39 696.84 926.00 691.00 Z"/>
</g>
<g fill="#FFFFFF" fill-opacity="1.00" stroke="None">
<path d="
M 1020.00 691.00 
C 1016.26 690.13 1015.35 692.62 1015.96 695.96 C 1016.57 699.31 1010.30 696.85 1012.00 701.00
C 1018.58 700.94 1016.14 712.52 1016.00 718.00 C 1015.87 723.48 1022.18 729.60 1026.00 724.00
C 1015.65 723.25 1021.50 709.44 1020.00 702.00
C 1021.18 699.81 1026.44 702.32 1025.00 698.00
C 1019.65 699.61 1019.46 694.98 1020.00 691.00 Z"/>
</g>
<g fill="#000000" fill-opacity="1.00" stroke="None">
<path d="
M 1363.00 711.00 
C 1360.99 705.31 1360.06 698.41 1356.00 694.00
C 1354.57 699.88 1351.98 705.30 1350.00 711.00
C 1354.33 711.00 1358.67 711.00 1363.00 711.00 Z"/>
</g>
<g fill="#FFFFFF" fill-opacity="1.00" stroke="None">
<path d="
M 657.00 702.00 
C 654.79 699.01 651.20 694.89 647.03 698.03 C 642.85 701.16 642.34 698.88 638.00 698.00
C 638.38 702.82 637.50 709.35 638.00 714.00 C 638.50 718.65 635.50 726.81 642.00 726.00
C 643.10 719.82 637.97 699.67 648.92 700.08 C 659.88 700.48 653.05 720.10 655.00 726.00
C 663.41 723.64 651.43 700.20 664.93 700.07 C 678.42 699.95 664.23 725.64 675.00 726.00
C 678.07 713.46 673.19 686.54 657.00 702.00 Z"/>
</g>
<g fill="#FFFFFF" fill-opacity="1.00" stroke="None">
<path d="
M 686.00 722.00 
C 695.49 732.28 706.55 723.64 707.00 712.00 C 707.45 700.36 693.45 690.60 687.00 703.00
C 684.81 701.82 687.32 696.56 683.00 698.00
C 683.57 704.40 682.24 712.80 683.00 719.00 C 683.76 725.20 680.23 735.02 686.00 737.00
C 686.00 732.00 686.00 727.00 686.00 722.00
M 696.00 700.00 
C 707.01 701.13 705.91 724.42 694.00 723.00 C 682.09 721.58 684.88 698.86 696.00 700.00 Z"/>
</g>
<g fill="#FFFFFF" fill-opacity="1.00" stroke="None">
<path d="
M 727.00 697.00 
C 710.77 694.71 706.44 722.71 722.78 726.22 C 739.12 729.73 743.27 699.29 727.00 697.00
M 726.00 700.00 
C 737.55 701.18 736.50 724.38 724.00 723.00 C 711.50 721.62 714.40 698.81 726.00 700.00 Z"/>
</g>
<g fill="#FFFFFF" fill-opacity="1.00" stroke="None">
<path d="
M 807.00 713.00 
C 810.07 695.79 786.89 692.00 783.00 708.00 C 779.11 724.00 799.85 734.46 806.00 719.00
C 799.35 724.59 786.01 724.90 786.00 713.00
C 793.00 713.00 800.00 713.00 807.00 713.00
M 804.00 710.00 
C 798.00 710.00 792.00 710.00 786.00 710.00
C 786.19 697.99 804.36 697.49 804.00 710.00 Z"/>
</g>
<g fill="#FFFFFF" fill-opacity="1.00" stroke="None">
<path d="
M 827.00 697.00 
C 820.01 697.55 819.31 701.62 814.00 698.00
C 814.38 702.82 813.50 709.35 814.00 714.00 C 814.50 718.65 811.50 726.81 818.00 726.00
C 817.60 719.22 818.53 713.96 818.03 707.03 C 817.52 700.09 828.17 703.09 827.00 697.00 Z"/>
</g>
<g fill="#FFFFFF" fill-opacity="1.00" stroke="None">
<path d="
M 866.00 726.00 
C 864.51 717.30 869.16 706.98 863.25 699.75 C 857.33 692.53 849.09 703.46 845.00 698.00
C 845.37 702.77 844.50 709.42 845.00 714.00 C 845.50 718.58 842.75 725.57 848.00 726.00
C 848.80 718.36 844.12 699.27 856.78 700.22 C 869.43 701.18 857.56 723.64 866.00 726.00 Z"/>
</g>
<g fill="#FFFFFF" fill-opacity="1.00" stroke="None">
<path d="
M 893.00 703.00 
C 886.91 690.48 872.44 700.76 873.01 711.99 C 873.58 723.23 885.49 731.39 894.00 721.00
C 895.94 727.39 890.12 738.80 881.70 733.30 C 873.27 727.80 875.19 736.34 884.00 737.00 C 892.81 737.66 897.93 732.87 897.00 724.00 C 896.07 715.13 897.70 706.82 897.00 698.00
C 892.74 696.76 894.97 701.63 893.00 703.00
M 887.00 700.00 
C 897.47 701.56 896.00 724.53 884.32 722.66 C 872.65 720.79 874.99 698.21 887.00 700.00 Z"/>
</g>
<g fill="#FFFFFF" fill-opacity="1.00" stroke="None">
<path d="
M 993.00 713.00 
C 994.36 703.34 984.01 692.64 974.75 698.75 C 965.50 704.86 967.14 715.92 972.75 723.25 C 978.37 730.57 996.79 723.78 988.00 719.00
C 984.90 727.50 969.75 722.19 972.00 713.00
C 979.00 713.00 986.00 713.00 993.00 713.00
M 989.00 710.00 
C 983.33 710.00 977.67 710.00 972.00 710.00
C 970.33 697.60 990.65 697.57 989.00 710.00 Z"/>
</g>
<g fill="#FFFFFF" fill-opacity="1.00" stroke="None">
<path d="
M 1089.00 697.00 
C 1082.70 696.51 1080.10 702.59 1076.00 698.00
C 1076.37 702.77 1075.50 709.42 1076.00 714.00 C 1076.50 718.58 1073.75 725.57 1079.00 726.00
C 1079.00 719.13 1078.97 713.02 1079.08 706.08 C 1079.18 699.14 1090.54 703.68 1089.00 697.00 Z"/>
</g>
<g fill="#FFFFFF" fill-opacity="1.00" stroke="None">
<path d="
M 1201.00 726.00 
C 1200.08 718.03 1203.44 705.82 1198.25 699.75 C 1193.05 693.68 1180.49 698.06 1182.00 705.00
C 1186.45 703.00 1189.63 697.67 1195.30 701.70 C 1200.96 705.74 1195.72 710.63 1190.01 710.01 C 1184.30 709.39 1179.64 713.70 1180.01 718.99 C 1180.38 724.28 1185.08 728.25 1190.78 726.78 C 1196.47 725.31 1197.16 720.93 1201.00 726.00
M 1198.00 712.00 
C 1200.16 718.14 1191.13 728.98 1184.78 722.22 C 1178.43 715.46 1192.14 710.37 1198.00 712.00 Z"/>
</g>
<g fill="#FFFFFF" fill-opacity="1.00" stroke="None">
<path d="
M 1259.00 713.00 
C 1260.23 705.79 1255.12 696.80 1247.02 697.02 C 1238.93 697.25 1235.01 704.38 1235.00 712.00 C 1234.99 719.62 1239.34 726.99 1247.98 726.98 C 1256.62 726.96 1259.91 716.40 1252.22 722.22 C 1244.53 728.04 1238.61 718.98 1238.00 713.00
C 1245.00 713.00 1252.00 713.00 1259.00 713.00
M 1256.00 710.00 
C 1250.00 710.00 1244.00 710.00 1238.00 710.00
C 1238.28 697.94 1256.06 697.77 1256.00 710.00 Z"/>
</g>
<g fill="#FFFFFF" fill-opacity="1.00" stroke="None">
<path d="
M 1294.00 697.00 
C 1277.30 694.42 1273.13 722.87 1289.78 726.22 C 1306.43 729.57 1309.66 699.42 1294.00 697.00
M 1293.00 700.00 
C 1304.22 701.26 1303.48 724.46 1291.26 723.60 C 1279.04 722.73 1280.34 698.58 1293.00 700.00 Z"/>
</g>
<g fill="#FFFFFF" fill-opacity="1.00" stroke="None">
<path d="
M 752.00 720.00 
C 747.18 714.01 749.96 700.46 742.00 698.00
C 741.51 704.87 746.35 709.37 747.02 715.98 C 747.70 722.58 752.56 729.47 755.01 721.01 C 757.46 712.55 756.81 711.47 760.00 704.00
C 764.97 709.99 762.01 724.68 771.00 726.00
C 772.47 716.33 776.75 707.44 779.00 698.00
C 770.16 699.81 773.32 714.72 768.00 721.00
C 765.39 713.65 766.72 699.47 758.00 698.00
C 756.56 705.50 753.88 712.65 752.00 720.00 Z"/>
</g>
<g fill="#FFFFFF" fill-opacity="1.00" stroke="None">
<path d="
M 836.00 698.00 
C 830.90 698.31 833.03 707.76 833.00 712.00 C 832.98 716.24 830.98 725.72 836.00 726.00
C 836.00 716.67 836.00 707.33 836.00 698.00 Z"/>
</g>
<g fill="#FFFFFF" fill-opacity="1.00" stroke="None">
<path d="
M 1067.00 698.00 
C 1061.90 698.32 1064.03 707.76 1064.00 712.00 C 1063.97 716.24 1061.99 725.72 1067.00 726.00
C 1067.00 716.67 1067.00 707.33 1067.00 698.00 Z"/>
</g>
<g fill="#FFFFFF" fill-opacity="1.00" stroke="None">
<path d="
M 1147.00 720.00 
C 1143.67 713.15 1145.30 699.52 1137.00 698.00
C 1140.08 707.21 1143.45 716.39 1145.00 726.00
C 1154.48 725.01 1151.20 710.11 1156.00 704.00
C 1160.80 710.06 1157.54 725.04 1167.00 726.00
C 1168.56 716.35 1171.92 707.21 1175.00 698.00
C 1166.40 699.46 1168.98 713.36 1165.00 720.00
C 1160.56 717.20 1161.91 698.08 1156.03 698.03 C 1150.16 697.99 1151.57 717.19 1147.00 720.00 Z"/>
</g>
<g fill="#FFFFFF" fill-opacity="1.00" stroke="None">
<path d="
M 1218.00 721.00 
C 1214.36 713.85 1214.95 700.10 1207.00 698.00
C 1208.23 707.05 1212.29 708.33 1214.07 717.93 C 1215.86 727.52 1222.36 726.12 1224.03 717.03 C 1225.70 707.93 1228.55 706.21 1231.00 698.00
C 1221.77 699.83 1224.04 714.79 1218.00 721.00 Z"/>
</g>
<g fill="#000000" fill-opacity="1.00" stroke="None">
<path d="
M 696.00 700.00 
C 684.88 698.86 682.09 721.58 694.00 723.00 C 705.91 724.42 707.01 701.13 696.00 700.00 Z"/>
</g>
<g fill="#000000" fill-opacity="1.00" stroke="None">
<path d="
M 726.00 700.00 
C 714.40 698.81 711.50 721.62 724.00 723.00 C 736.50 724.38 737.55 701.18 726.00 700.00 Z"/>
</g>
<g fill="#000000" fill-opacity="1.00" stroke="None">
<path d="
M 804.00 710.00 
C 804.36 697.49 786.19 697.99 786.00 710.00
C 792.00 710.00 798.00 710.00 804.00 710.00 Z"/>
</g>
<g fill="#000000" fill-opacity="1.00" stroke="None">
<path d="
M 887.00 700.00 
C 874.99 698.21 872.65 720.79 884.32 722.66 C 896.00 724.53 897.47 701.56 887.00 700.00 Z"/>
</g>
<g fill="#000000" fill-opacity="1.00" stroke="None">
<path d="
M 989.00 710.00 
C 990.65 697.57 970.33 697.60 972.00 710.00
C 977.67 710.00 983.33 710.00 989.00 710.00 Z"/>
</g>
<g fill="#000000" fill-opacity="1.00" stroke="None">
<path d="
M 1105.00 700.00 
C 1093.07 698.67 1091.02 721.10 1102.75 723.20 C 1114.49 725.29 1115.88 701.22 1105.00 700.00 Z"/>
</g>
<g fill="#000000" fill-opacity="1.00" stroke="None">
<path d="
M 1256.00 710.00 
C 1256.06 697.77 1238.28 697.94 1238.00 710.00
C 1244.00 710.00 1250.00 710.00 1256.00 710.00 Z"/>
</g>
<g fill="#000000" fill-opacity="1.00" stroke="None">
<path d="
M 1293.00 700.00 
C 1280.34 698.58 1279.04 722.73 1291.26 723.60 C 1303.48 724.46 1304.22 701.26 1293.00 700.00 Z"/>
</g>
<g fill="#000000" fill-opacity="1.00" stroke="None">
<path d="
M 1198.00 712.00 
C 1192.14 710.37 1178.43 715.46 1184.78 722.22 C 1191.13 728.98 1200.16 718.14 1198.00 712.00 Z"/>
</g>
<g fill="#FFFFFF" fill-opacity="1.00" stroke="None">
<path d="
M 1396.00 721.00 
C 1393.30 719.47 1389.55 723.24 1392.33 725.67 C 1395.10 728.09 1398.83 722.61 1396.00 721.00 Z"/>
</g>
</svg>