<svg xmlns="http://www.w3.org/2000/svg" viewBox="0 0 400 120" width="400" height="120">
  <!-- Background (transparent) -->
  
  <!-- Vibrant Capital Text -->
  <g fill="#FFFFFF" stroke="none">
    <!-- V -->
    <path d="M20 20 L35 80 L50 20 L60 20 L40 90 L30 90 L10 20 Z"/>
    
    <!-- I -->
    <rect x="70" y="20" width="8" height="70"/>
    
    <!-- B -->
    <path d="M90 20 L90 90 L120 90 Q130 90 130 80 Q130 70 120 65 Q130 60 130 50 Q130 40 120 40 L90 40 Z M98 28 L115 28 Q122 28 122 35 Q122 42 115 42 L98 42 Z M98 50 L118 50 Q125 50 125 57 Q125 64 118 64 L98 64 Z"/>
    
    <!-- R -->
    <path d="M140 20 L140 90 L148 90 L148 65 L165 65 L175 90 L185 90 L173 63 Q180 60 180 50 Q180 40 170 40 L140 40 Z M148 28 L165 28 Q172 28 172 35 Q172 42 165 42 L148 42 Z"/>
    
    <!-- A -->
    <path d="M200 20 L185 90 L195 90 L198 75 L222 75 L225 90 L235 90 L220 20 Z M202 65 L218 65 L210 35 Z"/>
    
    <!-- N -->
    <path d="M250 20 L250 90 L258 90 L258 35 L285 90 L295 90 L295 20 L287 20 L287 75 L260 20 Z"/>
    
    <!-- T -->
    <path d="M310 20 L310 28 L325 28 L325 90 L333 90 L333 28 L348 28 L348 20 Z"/>
  </g>
  
  <!-- Capital Text (Second Line) -->
  <g fill="#FFFFFF" stroke="none" transform="translate(0, 50)">
    <!-- C -->
    <path d="M20 40 Q20 30 30 30 L45 30 L45 38 L32 38 Q28 38 28 42 L28 58 Q28 62 32 62 L45 62 L45 70 L30 70 Q20 70 20 60 Z"/>
    
    <!-- A -->
    <path d="M60 30 L45 100 L55 100 L58 85 L82 85 L85 100 L95 100 L80 30 Z M62 75 L78 75 L70 45 Z"/>
    
    <!-- P -->
    <path d="M110 30 L110 100 L118 100 L118 75 L135 75 Q145 75 145 65 Q145 55 135 55 L110 55 Z M118 38 L135 38 Q142 38 142 45 Q142 52 135 52 L118 52 Z"/>
    
    <!-- I -->
    <rect x="160" y="30" width="8" height="70"/>
    
    <!-- T -->
    <path d="M180 30 L180 38 L195 38 L195 100 L203 100 L203 38 L218 38 L218 30 Z"/>
    
    <!-- A -->
    <path d="M240 30 L225 100 L235 100 L238 85 L262 85 L265 100 L275 100 L260 30 Z M242 75 L258 75 L250 45 Z"/>
    
    <!-- L -->
    <path d="M290 30 L290 100 L320 100 L320 92 L298 92 L298 30 Z"/>
  </g>
  
  <!-- Decorative Element (replacing the complex logo design) -->
  <g fill="#FFFFFF" stroke="none">
    <!-- Simple geometric accent -->
    <circle cx="370" cy="35" r="8" opacity="0.8"/>
    <circle cx="385" cy="25" r="6" opacity="0.6"/>
    <circle cx="385" cy="45" r="6" opacity="0.6"/>
    
    <!-- Small connecting lines -->
    <line x1="370" y1="35" x2="385" y2="25" stroke="#FFFFFF" stroke-width="1" opacity="0.4"/>
    <line x1="370" y1="35" x2="385" y2="45" stroke="#FFFFFF" stroke-width="1" opacity="0.4"/>
  </g>
</svg>
