<svg xmlns="http://www.w3.org/2000/svg" xmlns:v="https://svgstorm.com"
viewBox = "0 0 3545 722"
width="3545"
height="722">
<g fill="#000000" fill-opacity="1.00" stroke="None">
<path d="
M 0.00 722.00 
L 3545.00 722.00
L 3545.00 0.00
L 0.00 0.00
L 0.00 722.00
M 3153.00 141.00 
C 3191.33 153.96 3201.01 200.01 3228.75 226.25 C 3238.36 238.04 3253.73 233.06 3261.75 221.75 C 3278.76 202.00 3289.29 178.25 3306.75 158.75 C 3322.86 132.47 3358.36 139.57 3372.25 164.75 C 3387.98 184.94 3398.29 208.53 3417.25 226.75 C 3426.93 239.39 3443.21 231.30 3450.25 220.25 C 3467.94 201.61 3476.37 175.26 3496.03 159.03 C 3515.41 162.55 3494.26 180.13 3490.08 189.08 C 3475.46 209.04 3464.22 235.31 3440.32 246.32 C 3410.97 255.28 3393.63 221.97 3379.75 202.25 C 3373.23 191.39 3365.93 180.95 3358.25 170.75 C 3350.71 160.56 3335.74 149.08 3324.75 161.75 C 3295.50 186.71 3286.85 231.79 3249.78 247.78 C 3220.16 251.41 3204.78 220.32 3191.08 199.92 C 3178.38 183.18 3159.91 140.59 3134.75 163.75 C 3106.66 189.35 3097.65 237.05 3058.00 248.00 C 3043.67 249.52 3032.94 239.14 3023.75 229.25 C 3018.78 220.04 2998.91 205.19 3014.08 197.08 C 3026.65 200.10 3029.17 217.38 3040.25 224.75 C 3063.55 249.66 3083.96 208.77 3095.75 191.75 C 3109.83 171.45 3124.11 140.81 3153.00 141.00
M 347.00 207.00 
C 347.00 187.67 347.00 168.33 347.00 149.00
C 365.33 149.52 384.29 147.96 402.22 149.78 C 403.81 167.88 402.92 187.28 402.67 205.67 C 385.14 208.76 365.38 206.12 347.00 207.00
M 1840.00 260.00 
C 1829.06 261.48 1815.91 262.02 1805.26 259.74 C 1801.67 194.51 1721.31 161.90 1667.78 191.78 C 1578.11 238.36 1590.92 406.21 1696.02 423.98 C 1747.16 435.07 1803.62 399.54 1806.00 346.00
C 1817.33 346.00 1828.67 346.00 1840.00 346.00
C 1835.99 418.92 1758.31 470.35 1688.00 454.00 C 1618.81 442.76 1570.29 372.70 1574.00 304.00 C 1570.15 235.27 1617.29 164.09 1687.01 153.01 C 1758.14 135.48 1833.79 187.87 1840.00 260.00
M 92.00 155.00 
C 119.96 236.64 147.84 319.15 177.00 400.00
C 205.82 318.88 233.63 236.61 262.00 155.00
C 279.67 155.00 297.33 155.00 315.00 155.00
C 278.44 253.90 242.19 352.95 206.00 452.00
C 185.67 452.00 165.33 452.00 145.00 452.00
C 109.46 352.79 72.10 254.09 36.00 155.00
C 54.67 155.00 73.33 155.00 92.00 155.00
M 508.00 155.00 
C 508.67 195.17 506.67 236.65 509.00 276.00
C 533.88 225.15 613.95 225.78 647.30 267.70 C 681.87 311.06 681.36 382.33 646.25 425.25 C 613.21 466.45 531.50 469.40 508.00 417.00
C 505.68 427.76 507.66 440.49 507.00 452.00
C 490.00 452.00 473.00 452.00 456.00 452.00
C 456.00 353.00 456.00 254.00 456.00 155.00
C 473.33 155.00 490.67 155.00 508.00 155.00
M 2392.00 155.00 
C 2392.00 168.00 2392.00 181.00 2392.00 194.00
C 2379.34 194.00 2366.66 194.00 2354.00 194.00
C 2354.00 181.00 2354.00 168.00 2354.00 155.00
C 2366.67 155.00 2379.33 155.00 2392.00 155.00
M 2864.00 155.00 
C 2864.00 254.00 2864.00 353.00 2864.00 452.00
C 2853.00 452.00 2842.00 452.00 2831.00 452.00
C 2831.00 353.00 2831.00 254.00 2831.00 155.00
C 2842.00 155.00 2853.00 155.00 2864.00 155.00
M 1413.00 175.00 
C 1413.00 197.00 1413.00 219.00 1413.00 241.00
C 1423.67 241.00 1434.33 241.00 1445.00 241.00 C 1452.92 243.45 1470.94 235.20 1471.00 247.00 C 1471.12 256.96 1471.05 266.97 1470.01 276.01 C 1472.11 287.39 1453.26 279.81 1446.00 282.00 C 1435.00 282.00 1424.00 282.00 1413.00 282.00
C 1413.00 314.00 1413.00 346.00 1413.00 378.00 C 1406.19 411.77 1445.57 420.48 1470.00 411.00
C 1470.00 424.33 1470.00 437.67 1470.00 451.00
C 1434.70 460.72 1383.77 458.72 1367.23 419.77 C 1354.72 376.49 1363.73 327.75 1361.00 282.00
C 1347.33 282.00 1333.67 282.00 1320.00 282.00
C 1321.36 268.73 1317.26 252.52 1322.09 241.08 C 1334.58 241.56 1347.53 240.69 1361.00 241.00
C 1361.00 225.00 1361.00 209.00 1361.00 193.00
C 1378.67 188.30 1395.25 179.65 1413.00 175.00
M 2505.00 180.00 
C 2505.00 200.33 2505.00 220.67 2505.00 241.00
C 2526.00 241.00 2547.00 241.00 2568.00 241.00
C 2568.00 250.67 2568.00 260.33 2568.00 270.00
C 2547.00 270.00 2526.00 270.00 2505.00 270.00
C 2505.00 294.67 2505.00 319.33 2505.00 344.00 C 2506.52 367.07 2501.13 392.11 2509.78 413.22 C 2522.07 431.52 2549.29 428.56 2568.00 424.00
C 2568.00 433.33 2568.00 442.67 2568.00 452.00
C 2533.22 461.99 2479.09 454.98 2474.00 411.00 C 2469.47 364.97 2473.24 316.86 2472.00 270.00
C 2457.67 270.00 2443.33 270.00 2429.00 270.00
C 2429.00 260.33 2429.00 250.67 2429.00 241.00
C 2443.34 241.00 2457.66 241.00 2472.00 241.00
C 2472.00 224.67 2472.00 208.33 2472.00 192.00
C 2483.08 188.31 2493.94 183.82 2505.00 180.00
M 3161.00 233.00 
C 3199.77 244.95 3209.44 291.37 3237.25 317.75 C 3261.54 340.98 3280.76 299.62 3292.77 282.77 C 3306.47 263.42 3321.54 232.10 3349.07 233.93 C 3388.60 245.00 3397.15 293.62 3425.70 318.30 C 3434.97 330.98 3452.00 324.56 3458.77 312.77 C 3476.53 293.99 3485.19 268.63 3504.23 251.23 C 3523.98 252.92 3504.71 272.14 3499.25 280.25 C 3484.99 300.73 3473.50 327.05 3449.98 337.98 C 3420.82 348.16 3402.79 314.55 3389.08 294.92 C 3382.00 284.38 3375.93 273.29 3367.25 263.75 C 3360.58 252.97 3345.26 241.29 3334.25 253.25 C 3304.86 277.79 3296.39 323.51 3259.32 339.32 C 3229.78 344.82 3214.28 312.62 3200.23 292.77 C 3192.94 282.16 3186.95 270.71 3177.75 261.25 C 3171.15 249.33 3153.73 242.59 3144.25 255.25 C 3116.10 280.89 3107.06 327.86 3068.00 340.00 C 3053.33 342.12 3042.51 331.89 3033.25 321.75 C 3028.10 312.34 3008.51 298.73 3022.23 289.23 C 3035.36 291.48 3038.32 308.83 3048.25 316.75 C 3072.01 341.66 3092.60 301.96 3104.30 284.30 C 3118.60 264.07 3132.41 233.82 3161.00 233.00
M 839.00 287.00 
C 806.61 281.71 764.71 294.89 765.00 333.00 C 762.79 372.19 764.58 412.40 764.00 452.00
C 747.00 452.00 730.00 452.00 713.00 452.00
C 713.00 381.67 713.00 311.33 713.00 241.00
C 729.67 241.00 746.33 241.00 763.00 241.00
C 763.00 253.67 763.00 266.33 763.00 279.00
C 772.36 261.56 787.53 244.06 808.02 240.02 C 817.03 238.62 838.69 231.03 839.00 245.00 C 839.00 259.00 839.00 273.00 839.00 287.00
M 1049.00 452.00 
C 1039.33 452.00 1029.67 452.00 1020.00 452.00 C 1012.88 449.85 996.36 457.34 997.00 446.00 C 994.13 437.50 994.02 428.24 994.00 419.00
C 974.39 455.47 924.83 463.85 888.92 449.08 C 850.52 435.22 844.21 378.96 874.25 353.25 C 907.50 326.84 951.81 327.75 992.00 321.00
C 996.41 299.59 983.81 276.44 960.93 276.07 C 941.08 274.45 914.89 280.51 911.00 303.00
C 894.67 303.00 878.33 303.00 862.00 303.00
C 864.74 258.83 912.56 236.58 952.01 237.01 C 992.88 233.74 1041.68 256.14 1043.00 302.00 C 1047.31 351.43 1038.57 404.12 1049.00 452.00
M 1245.00 452.00 
C 1245.00 422.67 1245.00 393.33 1245.00 364.00 C 1242.67 338.37 1252.00 307.86 1233.25 287.75 C 1213.77 274.42 1183.79 277.71 1166.75 293.75 C 1146.27 310.69 1147.75 338.29 1148.00 363.00 C 1148.00 392.67 1148.00 422.33 1148.00 452.00
C 1131.00 452.00 1114.00 452.00 1097.00 452.00
C 1097.00 381.67 1097.00 311.33 1097.00 241.00
C 1114.10 240.91 1130.20 241.26 1147.00 241.00
C 1147.00 254.00 1147.00 267.00 1147.00 280.00
C 1172.92 233.81 1247.25 219.92 1282.30 262.70 C 1308.99 301.78 1292.29 355.09 1297.00 401.00 C 1296.48 417.66 1298.04 434.95 1296.22 451.22 C 1279.65 453.03 1261.99 451.49 1245.00 452.00
M 2048.00 452.00 
C 2037.47 451.78 2026.73 452.44 2016.33 451.67 C 2013.13 442.36 2013.01 432.16 2013.00 422.00
C 1985.71 465.70 1909.35 469.47 1879.75 426.25 C 1858.25 389.60 1884.69 342.95 1925.07 337.07 C 1952.48 329.96 1980.83 326.30 2009.00 322.00 C 2018.35 297.31 1999.76 262.41 1970.00 266.00 C 1944.93 262.10 1912.85 274.58 1910.00 303.00
C 1899.67 303.00 1889.33 303.00 1879.00 303.00
C 1879.02 259.93 1924.31 235.53 1963.00 237.00 C 2004.75 231.45 2047.50 262.58 2043.00 307.00 C 2044.66 355.34 2038.79 405.55 2048.00 452.00
M 2141.00 419.00 
C 2138.67 457.10 2140.67 497.15 2140.00 536.00
C 2129.00 536.00 2118.00 536.00 2107.00 536.00
C 2107.00 437.67 2107.00 339.33 2107.00 241.00
C 2117.33 241.00 2127.67 241.00 2138.00 241.00
C 2138.00 253.00 2138.00 265.00 2138.00 277.00
C 2166.38 228.61 2242.99 223.20 2279.75 265.25 C 2316.08 308.09 2316.50 379.21 2282.25 423.25 C 2248.79 466.69 2169.80 468.43 2141.00 419.00
M 2772.00 452.00 
C 2761.34 451.48 2750.05 453.03 2739.78 451.22 C 2736.37 441.90 2738.11 430.35 2736.00 421.00
C 2709.25 473.22 2605.00 468.87 2597.00 405.00 C 2588.83 366.48 2625.41 339.49 2659.07 334.07 C 2684.07 328.78 2711.07 326.94 2734.90 319.90 C 2738.39 295.78 2726.20 266.63 2698.99 266.01 C 2676.30 263.39 2646.33 268.12 2637.03 292.03 C 2637.27 310.25 2615.11 300.67 2603.00 303.00
C 2602.53 259.86 2648.50 235.53 2687.00 237.00 C 2728.82 231.46 2771.08 262.78 2767.00 307.00 C 2768.86 355.29 2762.48 405.63 2772.00 452.00
M 401.00 452.00 
C 383.67 452.00 366.33 452.00 349.00 452.00
C 349.00 381.67 349.00 311.33 349.00 241.00
C 365.13 241.42 383.00 240.42 399.67 241.33 C 402.77 310.53 400.11 381.95 401.00 452.00
M 2390.00 241.00 
C 2390.00 311.33 2390.00 381.67 2390.00 452.00
C 2378.67 452.00 2367.33 452.00 2356.00 452.00
C 2356.22 382.14 2355.56 312.07 2356.33 242.33 C 2366.53 239.26 2378.95 241.86 2390.00 241.00
M 3165.00 353.00 
C 3201.29 369.30 3210.74 413.67 3239.25 438.75 C 3249.87 451.09 3264.69 441.18 3272.75 430.75 C 3288.72 410.63 3299.61 387.37 3317.25 368.25 C 3335.18 341.63 3370.22 354.59 3382.77 379.23 C 3398.54 399.17 3408.35 423.77 3428.70 440.30 C 3440.05 451.33 3453.76 438.87 3461.25 429.25 C 3469.25 419.00 3475.82 407.89 3483.25 397.25 C 3490.37 388.55 3495.58 370.86 3508.07 370.93 C 3520.82 380.17 3499.18 392.74 3496.08 403.08 C 3481.79 422.89 3469.82 451.13 3443.99 457.99 C 3415.56 461.80 3400.91 429.41 3386.75 410.25 C 3375.05 393.30 3355.05 351.33 3330.75 374.75 C 3302.66 400.34 3293.67 446.46 3254.93 458.93 C 3212.59 453.93 3202.54 403.27 3175.75 377.25 C 3153.21 349.63 3129.65 388.59 3119.08 407.08 C 3104.36 426.80 3091.89 456.56 3064.00 459.00 C 3050.62 458.40 3039.70 448.61 3031.75 438.25 C 3025.82 430.46 3007.00 411.15 3025.67 408.33 C 3035.57 415.94 3040.09 428.75 3049.75 437.25 C 3074.74 459.49 3093.06 418.57 3105.75 401.75 C 3119.91 381.14 3134.77 349.58 3165.00 353.00
M 2575.00 569.00 
C 2574.01 571.24 2572.98 573.46 2573.00 576.00
C 2558.46 571.49 2551.81 584.38 2555.00 597.00
C 2560.33 597.00 2565.67 597.00 2571.00 597.00
C 2574.05 607.71 2561.23 603.05 2555.00 604.00
C 2555.00 616.67 2555.00 629.33 2555.00 642.00 C 2552.22 651.67 2562.33 674.54 2546.00 672.00
C 2546.00 658.67 2546.00 645.33 2546.00 632.00 C 2544.26 621.28 2552.57 598.93 2534.00 604.00
C 2529.38 591.32 2549.96 602.65 2546.00 590.00 C 2541.55 573.35 2561.36 561.59 2575.00 569.00
M 1274.00 571.00 
C 1281.09 574.37 1277.88 586.64 1269.33 583.67 C 1261.06 581.08 1266.29 569.12 1274.00 571.00
M 1888.00 571.00 
C 1895.30 574.15 1891.73 586.80 1883.33 583.67 C 1875.06 581.08 1880.29 569.12 1888.00 571.00
M 729.00 572.00 
C 732.46 584.87 716.43 578.54 709.00 580.00 C 699.33 580.00 689.67 580.00 680.00 580.00
C 680.00 592.33 680.00 604.67 680.00 617.00
C 689.00 617.00 698.00 617.00 707.00 617.00 C 714.62 617.77 729.64 613.01 726.00 626.00
C 710.67 626.00 695.33 626.00 680.00 626.00
C 680.00 638.67 680.00 651.33 680.00 664.00
C 696.67 664.00 713.33 664.00 730.00 664.00
C 732.80 678.45 712.57 669.57 704.00 672.00 C 692.67 672.00 681.33 672.00 670.00 672.00
C 670.00 638.67 670.00 605.33 670.00 572.00
C 689.67 572.00 709.33 572.00 729.00 572.00
M 1560.00 572.00 
C 1560.67 583.83 1558.67 596.99 1561.00 608.00
C 1568.10 591.62 1596.12 591.60 1604.77 607.23 C 1611.79 627.04 1606.22 650.64 1608.00 672.00
C 1605.00 672.00 1602.00 672.00 1599.00 672.00
C 1594.45 650.00 1612.22 606.81 1580.00 604.00 C 1547.73 607.66 1563.82 649.65 1560.00 672.00
C 1557.00 672.00 1554.00 672.00 1551.00 672.00
C 1551.00 638.67 1551.00 605.33 1551.00 572.00
C 1554.00 572.00 1557.00 572.00 1560.00 572.00
M 1810.00 572.00 
C 1810.00 584.00 1810.00 596.00 1810.00 608.00
C 1818.40 592.03 1845.51 591.38 1854.75 607.25 C 1861.80 627.20 1856.22 650.62 1858.00 672.00
C 1855.00 672.00 1852.00 672.00 1849.00 672.00
C 1844.56 649.98 1862.03 606.94 1830.00 604.00 C 1797.73 607.66 1813.82 649.65 1810.00 672.00
C 1807.00 672.00 1804.00 672.00 1801.00 672.00
C 1801.00 638.67 1801.00 605.33 1801.00 572.00
C 1804.00 572.00 1807.00 572.00 1810.00 572.00
M 2020.00 572.00 
C 2020.00 605.33 2020.00 638.67 2020.00 672.00
C 2017.00 672.00 2014.00 672.00 2011.00 672.00
C 2010.36 667.50 2012.30 661.67 2010.00 658.00
C 1995.65 690.20 1948.95 665.58 1956.00 635.00 C 1948.99 604.36 1993.83 579.06 2010.00 610.00
C 2012.32 598.24 2010.34 584.51 2011.00 572.00
C 2014.00 572.00 2017.00 572.00 2020.00 572.00
M 2666.00 572.00 
C 2677.69 605.41 2690.47 638.50 2702.00 672.00
C 2698.67 672.00 2695.33 672.00 2692.00 672.00
C 2689.52 661.79 2684.70 652.22 2682.00 642.00
C 2671.67 642.00 2661.33 642.00 2651.00 642.00 C 2627.89 635.54 2641.15 677.16 2619.00 672.00
C 2631.12 638.70 2644.22 605.69 2655.00 572.00
C 2658.67 572.00 2662.33 572.00 2666.00 572.00
M 2728.00 572.00 
C 2728.00 605.33 2728.00 638.67 2728.00 672.00
C 2725.00 672.00 2722.00 672.00 2719.00 672.00
C 2719.00 638.67 2719.00 605.33 2719.00 572.00
C 2722.00 572.00 2725.00 572.00 2728.00 572.00
M 1514.00 579.00 
C 1514.00 585.00 1514.00 591.00 1514.00 597.00
C 1519.33 597.00 1524.67 597.00 1530.00 597.00
C 1533.05 607.71 1520.23 603.05 1514.00 604.00
C 1514.00 616.67 1514.00 629.33 1514.00 642.00 C 1511.44 653.82 1516.22 668.40 1531.00 664.00
C 1530.33 666.94 1532.09 669.18 1532.00 672.00
C 1522.83 675.12 1511.58 671.94 1506.75 663.25 C 1503.22 652.68 1505.78 640.34 1505.00 629.00 C 1503.58 619.32 1510.73 599.40 1494.00 604.00
C 1491.31 595.64 1499.27 596.69 1505.00 597.00
C 1505.00 591.00 1505.00 585.00 1505.00 579.00
C 1508.00 579.00 1511.00 579.00 1514.00 579.00
M 1764.00 579.00 
C 1764.00 585.00 1764.00 591.00 1764.00 597.00
C 1769.33 597.00 1774.67 597.00 1780.00 597.00
C 1783.05 607.71 1770.23 603.05 1764.00 604.00
C 1764.00 616.67 1764.00 629.33 1764.00 642.00 C 1761.78 653.24 1765.35 668.15 1780.00 664.00
C 1781.14 666.53 1781.70 669.22 1782.00 672.00
C 1769.55 676.91 1752.73 667.50 1755.00 653.00 C 1755.00 636.67 1755.00 620.33 1755.00 604.00
C 1751.33 604.00 1747.67 604.00 1744.00 604.00
C 1741.31 595.64 1749.27 596.69 1755.00 597.00
C 1755.00 591.00 1755.00 585.00 1755.00 579.00
C 1758.00 579.00 1761.00 579.00 1764.00 579.00
M 1252.00 596.00 
C 1252.00 599.00 1252.00 602.00 1252.00 605.00
C 1240.01 600.89 1224.94 611.64 1227.00 625.00 C 1227.00 640.67 1227.00 656.33 1227.00 672.00
C 1224.00 672.00 1221.00 672.00 1218.00 672.00
C 1218.00 647.00 1218.00 622.00 1218.00 597.00
C 1221.00 597.00 1224.00 597.00 1227.00 597.00
C 1227.61 600.17 1225.75 604.65 1228.00 607.00
C 1231.76 597.98 1243.26 594.24 1252.00 596.00
M 1947.00 605.00 
C 1935.07 600.81 1919.77 611.63 1922.00 625.00 C 1922.00 640.67 1922.00 656.33 1922.00 672.00
C 1919.00 672.00 1916.00 672.00 1913.00 672.00
C 1913.00 647.00 1913.00 622.00 1913.00 597.00
C 1916.00 597.00 1919.00 597.00 1922.00 597.00
C 1922.61 600.17 1920.75 604.65 1923.00 607.00
C 1925.93 597.01 1950.89 587.71 1947.00 605.00
M 800.00 609.00 
C 807.47 593.25 834.85 590.20 842.92 607.08 C 849.15 627.33 844.62 650.47 846.00 672.00
C 843.00 672.00 840.00 672.00 837.00 672.00
C 832.26 650.44 849.84 608.86 820.00 604.00 C 789.83 608.83 807.90 650.42 803.00 672.00
C 799.67 672.00 796.33 672.00 793.00 672.00
C 793.00 653.33 793.00 634.67 793.00 616.00 C 789.92 599.24 764.22 600.91 760.23 616.23 C 757.52 634.31 759.70 653.47 759.00 672.00
C 756.00 672.00 753.00 672.00 750.00 672.00
C 750.00 647.00 750.00 622.00 750.00 597.00
C 753.00 597.00 756.00 597.00 759.00 597.00
C 759.00 600.67 759.00 604.33 759.00 608.00
C 766.28 591.83 793.96 591.37 800.00 609.00
M 878.00 658.00 
C 875.68 671.09 877.66 686.15 877.00 700.00
C 861.14 702.89 870.49 681.22 868.00 672.00 C 868.00 647.00 868.00 622.00 868.00 597.00
C 871.00 597.00 874.00 597.00 877.00 597.00
C 877.64 601.50 875.70 607.33 878.00 611.00
C 892.41 578.90 938.73 603.45 932.00 634.00 C 939.54 664.83 892.74 690.67 878.00 658.00
M 988.00 596.00 
C 1028.23 607.10 1018.76 681.92 973.00 673.00 C 931.71 662.74 942.10 586.54 988.00 596.00
M 1199.00 637.00 
C 1180.33 637.00 1161.67 637.00 1143.00 637.00
C 1141.49 655.20 1159.93 670.99 1177.68 663.68 C 1185.48 661.41 1188.50 648.22 1197.00 656.00
C 1188.54 678.34 1152.70 679.08 1140.75 659.25 C 1128.88 640.11 1132.18 608.68 1154.23 598.23 C 1178.92 587.01 1203.99 611.83 1199.00 637.00
M 1356.00 672.00 
C 1353.00 672.00 1350.00 672.00 1347.00 672.00
C 1342.74 650.02 1359.70 607.54 1328.00 604.00 C 1295.73 607.66 1311.82 649.65 1308.00 672.00
C 1305.00 672.00 1302.00 672.00 1299.00 672.00
C 1299.00 647.00 1299.00 622.00 1299.00 597.00
C 1302.00 597.00 1305.00 597.00 1308.00 597.00
C 1308.00 600.67 1308.00 604.33 1308.00 608.00
C 1316.08 592.00 1344.26 591.29 1352.30 607.70 C 1359.94 627.35 1354.23 650.74 1356.00 672.00
M 1430.00 611.00 
C 1430.00 606.33 1430.00 601.67 1430.00 597.00
C 1443.75 593.80 1436.01 612.04 1438.00 620.00 C 1433.14 645.62 1450.80 685.65 1421.98 698.98 C 1407.25 704.63 1385.11 701.96 1378.00 686.00
C 1380.91 685.04 1382.80 682.13 1386.00 682.00
C 1391.40 693.90 1406.96 695.42 1418.01 692.01 C 1432.56 686.73 1428.63 669.53 1429.00 657.00
C 1413.47 687.30 1367.74 663.64 1375.00 633.00 C 1368.92 601.81 1415.05 580.18 1430.00 611.00
M 1692.00 637.00 
C 1673.42 637.66 1654.14 635.68 1636.00 638.00
C 1633.41 662.71 1670.40 676.52 1682.00 653.00
C 1684.77 653.27 1687.07 655.22 1690.00 655.00
C 1683.41 678.50 1645.60 679.11 1633.75 659.25 C 1622.09 639.90 1625.65 609.09 1647.23 598.23 C 1671.89 586.75 1697.30 611.73 1692.00 637.00
M 2247.00 672.00 
C 2244.00 672.00 2241.00 672.00 2238.00 672.00
C 2237.38 668.50 2239.27 663.68 2237.00 661.00
C 2227.96 680.43 2193.25 677.04 2190.02 654.98 C 2186.06 625.86 2222.45 632.53 2237.92 623.92 C 2240.99 612.27 2230.70 601.52 2219.00 604.00 C 2206.85 600.91 2203.11 620.21 2192.00 613.00
C 2198.52 593.98 2227.71 589.96 2241.25 603.75 C 2253.30 623.01 2244.13 649.65 2247.00 672.00
M 2401.00 637.00 
C 2382.34 637.00 2363.66 637.00 2345.00 637.00
C 2343.49 655.20 2361.93 671.00 2379.68 663.68 C 2387.48 661.42 2390.50 648.22 2399.00 656.00
C 2390.52 678.26 2354.70 679.09 2342.75 659.25 C 2330.54 640.15 2334.32 608.71 2356.23 598.23 C 2380.90 587.00 2405.97 611.82 2401.00 637.00
M 2496.00 596.00 
C 2536.07 607.39 2526.05 682.67 2480.00 673.00 C 2439.34 661.66 2450.21 586.19 2496.00 596.00
M 1051.00 658.00 
C 1058.28 638.44 1062.65 617.19 1069.00 597.00
C 1072.33 597.00 1075.67 597.00 1079.00 597.00
C 1084.14 617.46 1090.60 637.57 1096.00 658.00
C 1103.18 638.48 1108.62 617.44 1114.00 597.00
C 1117.33 597.00 1120.67 597.00 1124.00 597.00
C 1118.04 614.96 1113.19 633.30 1107.22 651.22 C 1103.59 659.29 1105.51 675.69 1092.00 672.00
C 1085.79 651.74 1080.57 631.17 1074.00 611.00
C 1066.89 630.62 1061.71 651.65 1056.00 672.00
C 1052.67 672.00 1049.33 672.00 1046.00 672.00
C 1039.58 646.76 1030.96 622.13 1024.00 597.00
C 1039.59 593.86 1035.77 614.84 1040.98 624.02 C 1044.26 635.36 1047.50 646.71 1051.00 658.00
M 1276.00 597.00 
C 1276.00 622.00 1276.00 647.00 1276.00 672.00
C 1273.00 672.00 1270.00 672.00 1267.00 672.00
C 1267.00 647.00 1267.00 622.00 1267.00 597.00
C 1270.00 597.00 1273.00 597.00 1276.00 597.00
M 1890.00 597.00 
C 1890.00 622.00 1890.00 647.00 1890.00 672.00
C 1887.00 672.00 1884.00 672.00 1881.00 672.00
C 1881.00 647.00 1881.00 622.00 1881.00 597.00
C 1884.00 597.00 1887.00 597.00 1890.00 597.00
M 2087.00 597.00 
C 2091.26 617.70 2098.32 637.67 2104.00 658.00
C 2111.34 638.46 2115.67 617.19 2122.00 597.00
C 2125.33 597.00 2128.67 597.00 2132.00 597.00
C 2137.22 617.43 2143.47 637.61 2149.00 658.00
C 2156.19 638.49 2161.68 617.46 2167.00 597.00
C 2170.33 597.00 2173.67 597.00 2177.00 597.00
C 2171.07 614.97 2166.20 633.30 2160.22 651.22 C 2156.59 659.29 2158.51 675.69 2145.00 672.00
C 2138.77 651.75 2133.84 631.09 2127.00 611.00
C 2119.95 630.62 2114.78 651.66 2109.00 672.00
C 2105.67 672.00 2102.33 672.00 2099.00 672.00
C 2092.78 646.70 2083.84 622.16 2077.00 597.00
C 2080.33 597.00 2083.67 597.00 2087.00 597.00
M 2294.00 660.00 
C 2301.23 639.00 2308.92 618.07 2316.00 597.00
C 2319.33 597.00 2322.67 597.00 2326.00 597.00
C 2316.95 622.00 2306.90 646.65 2299.00 672.00
C 2285.32 676.13 2286.05 660.50 2281.69 652.31 C 2275.40 633.80 2267.71 615.75 2262.00 597.00
C 2277.84 594.15 2274.90 615.68 2280.98 625.02 C 2285.70 636.50 2288.61 649.09 2294.00 660.00
M 2761.00 658.00 
C 2769.80 659.54 2768.40 673.82 2758.99 672.99 C 2750.17 671.04 2752.01 657.50 2761.00 658.00 Z"/>
</g>
<g fill="#22C55E" fill-opacity="1.00" stroke="None">
<path d="
M 3153.00 141.00
C 3124.11 140.81 3109.83 171.45 3095.75 191.75 C 3083.96 208.77 3063.55 249.66 3040.25 224.75 C 3029.17 217.38 3026.65 200.10 3014.08 197.08 C 2998.91 205.19 3018.78 220.04 3023.75 229.25 C 3032.94 239.14 3043.67 249.52 3058.00 248.00 C 3097.65 237.05 3106.66 189.35 3134.75 163.75 C 3159.91 140.59 3178.38 183.18 3191.08 199.92 C 3204.78 220.32 3220.16 251.41 3249.78 247.78 C 3286.85 231.79 3295.50 186.71 3324.75 161.75 C 3335.74 149.08 3350.71 160.56 3358.25 170.75 C 3365.93 180.95 3373.23 191.39 3379.75 202.25 C 3393.63 221.97 3410.97 255.28 3440.32 246.32 C 3464.22 235.31 3475.46 209.04 3490.08 189.08 C 3494.26 180.13 3515.41 162.55 3496.03 159.03 C 3476.37 175.26 3467.94 201.61 3450.25 220.25 C 3443.21 231.30 3426.93 239.39 3417.25 226.75 C 3398.29 208.53 3387.98 184.94 3372.25 164.75 C 3358.36 139.57 3322.86 132.47 3306.75 158.75 C 3289.29 178.25 3278.76 202.00 3261.75 221.75 C 3253.73 233.06 3238.36 238.04 3228.75 226.25 C 3201.01 200.01 3191.33 153.96 3153.00 141.00 Z"/>
</g>
<g fill="#FFFFFF" fill-opacity="1.00" stroke="None">
<path d="
M 347.00 207.00 
C 365.38 206.12 385.14 208.76 402.67 205.67 C 402.92 187.28 403.81 167.88 402.22 149.78 C 384.29 147.96 365.33 149.52 347.00 149.00
C 347.00 168.33 347.00 187.67 347.00 207.00 Z"/>
</g>
<g fill="#FFFFFF" fill-opacity="1.00" stroke="None">
<path d="
M 1840.00 260.00 
C 1833.79 187.87 1758.14 135.48 1687.01 153.01 C 1617.29 164.09 1570.15 235.27 1574.00 304.00 C 1570.29 372.70 1618.81 442.76 1688.00 454.00 C 1758.31 470.35 1835.99 418.92 1840.00 346.00
C 1828.67 346.00 1817.33 346.00 1806.00 346.00
C 1803.62 399.54 1747.16 435.07 1696.02 423.98 C 1590.92 406.21 1578.11 238.36 1667.78 191.78 C 1721.31 161.90 1801.67 194.51 1805.26 259.74 C 1815.91 262.02 1829.06 261.48 1840.00 260.00 Z"/>
</g>
<g fill="#FFFFFF" fill-opacity="1.00" stroke="None">
<path d="
M 92.00 155.00 
C 73.33 155.00 54.67 155.00 36.00 155.00
C 72.10 254.09 109.46 352.79 145.00 452.00
C 165.33 452.00 185.67 452.00 206.00 452.00
C 242.19 352.95 278.44 253.90 315.00 155.00
C 297.33 155.00 279.67 155.00 262.00 155.00
C 233.63 236.61 205.82 318.88 177.00 400.00
C 147.84 319.15 119.96 236.64 92.00 155.00 Z"/>
</g>
<g fill="#FFFFFF" fill-opacity="1.00" stroke="None">
<path d="
M 508.00 155.00 
C 490.67 155.00 473.33 155.00 456.00 155.00
C 456.00 254.00 456.00 353.00 456.00 452.00
C 473.00 452.00 490.00 452.00 507.00 452.00
C 507.66 440.49 505.68 427.76 508.00 417.00
C 531.50 469.40 613.21 466.45 646.25 425.25 C 681.36 382.33 681.87 311.06 647.30 267.70 C 613.95 225.78 533.88 225.15 509.00 276.00
C 506.67 236.65 508.67 195.17 508.00 155.00
M 575.00 280.00 
C 609.72 287.39 622.17 326.39 618.00 359.00 C 617.00 392.30 585.25 421.33 550.98 412.02 C 516.31 406.18 502.61 366.38 508.00 335.00 C 508.01 300.92 540.12 272.62 575.00 280.00 Z"/>
</g>
<g fill="#FFFFFF" fill-opacity="1.00" stroke="None">
<path d="
M 2392.00 155.00 
C 2379.33 155.00 2366.67 155.00 2354.00 155.00
C 2354.00 168.00 2354.00 181.00 2354.00 194.00
C 2366.66 194.00 2379.34 194.00 2392.00 194.00
C 2392.00 181.00 2392.00 168.00 2392.00 155.00 Z"/>
</g>
<g fill="#FFFFFF" fill-opacity="1.00" stroke="None">
<path d="
M 2864.00 155.00 
C 2853.00 155.00 2842.00 155.00 2831.00 155.00
C 2831.00 254.00 2831.00 353.00 2831.00 452.00
C 2842.00 452.00 2853.00 452.00 2864.00 452.00
C 2864.00 353.00 2864.00 254.00 2864.00 155.00 Z"/>
</g>
<g fill="#FFFFFF" fill-opacity="1.00" stroke="None">
<path d="
M 1413.00 175.00 
C 1395.25 179.65 1378.67 188.30 1361.00 193.00
C 1361.00 209.00 1361.00 225.00 1361.00 241.00
C 1347.53 240.69 1334.58 241.56 1322.09 241.08 C 1317.26 252.52 1321.36 268.73 1320.00 282.00
C 1333.67 282.00 1347.33 282.00 1361.00 282.00
C 1363.73 327.75 1354.72 376.49 1367.23 419.77 C 1383.77 458.72 1434.70 460.72 1470.00 451.00
C 1470.00 437.67 1470.00 424.33 1470.00 411.00
C 1445.57 420.48 1406.19 411.77 1413.00 378.00 C 1413.00 346.00 1413.00 314.00 1413.00 282.00
C 1424.00 282.00 1435.00 282.00 1446.00 282.00 C 1453.26 279.81 1472.11 287.39 1470.01 276.01 C 1471.05 266.97 1471.12 256.96 1471.00 247.00 C 1470.94 235.20 1452.92 243.45 1445.00 241.00 C 1434.33 241.00 1423.67 241.00 1413.00 241.00
C 1413.00 219.00 1413.00 197.00 1413.00 175.00 Z"/>
</g>
<g fill="#FFFFFF" fill-opacity="1.00" stroke="None">
<path d="
M 2505.00 180.00 
C 2493.94 183.82 2483.08 188.31 2472.00 192.00
C 2472.00 208.33 2472.00 224.67 2472.00 241.00
C 2457.66 241.00 2443.34 241.00 2429.00 241.00
C 2429.00 250.67 2429.00 260.33 2429.00 270.00
C 2443.33 270.00 2457.67 270.00 2472.00 270.00
C 2473.24 316.86 2469.47 364.97 2474.00 411.00 C 2479.09 454.98 2533.22 461.99 2568.00 452.00
C 2568.00 442.67 2568.00 433.33 2568.00 424.00
C 2549.29 428.56 2522.07 431.52 2509.78 413.22 C 2501.13 392.11 2506.52 367.07 2505.00 344.00 C 2505.00 319.33 2505.00 294.67 2505.00 270.00
C 2526.00 270.00 2547.00 270.00 2568.00 270.00
C 2568.00 260.33 2568.00 250.67 2568.00 241.00
C 2547.00 241.00 2526.00 241.00 2505.00 241.00
C 2505.00 220.67 2505.00 200.33 2505.00 180.00 Z"/>
</g>
<g fill="#FFFFFF" fill-opacity="1.00" stroke="None">
<path d="
M 3161.00 233.00 
C 3132.41 233.82 3118.60 264.07 3104.30 284.30 C 3092.60 301.96 3072.01 341.66 3048.25 316.75 C 3038.32 308.83 3035.36 291.48 3022.23 289.23 C 3008.51 298.73 3028.10 312.34 3033.25 321.75 C 3042.51 331.89 3053.33 342.12 3068.00 340.00 C 3107.06 327.86 3116.10 280.89 3144.25 255.25 C 3153.73 242.59 3171.15 249.33 3177.75 261.25 C 3186.95 270.71 3192.94 282.16 3200.23 292.77 C 3214.28 312.62 3229.78 344.82 3259.32 339.32 C 3296.39 323.51 3304.86 277.79 3334.25 253.25 C 3345.26 241.29 3360.58 252.97 3367.25 263.75 C 3375.93 273.29 3382.00 284.38 3389.08 294.92 C 3402.79 314.55 3420.82 348.16 3449.98 337.98 C 3473.50 327.05 3484.99 300.73 3499.25 280.25 C 3504.71 272.14 3523.98 252.92 3504.23 251.23 C 3485.19 268.63 3476.53 293.99 3458.77 312.77 C 3452.00 324.56 3434.97 330.98 3425.70 318.30 C 3397.15 293.62 3388.60 245.00 3349.07 233.93 C 3321.54 232.10 3306.47 263.42 3292.77 282.77 C 3280.76 299.62 3261.54 340.98 3237.25 317.75 C 3209.44 291.37 3199.77 244.95 3161.00 233.00 Z"/>
</g>
<g fill="#FFFFFF" fill-opacity="1.00" stroke="None">
<path d="
M 839.00 287.00 
C 839.00 273.00 839.00 259.00 839.00 245.00 C 838.69 231.03 817.03 238.62 808.02 240.02 C 787.53 244.06 772.36 261.56 763.00 279.00
C 763.00 266.33 763.00 253.67 763.00 241.00
C 746.33 241.00 729.67 241.00 713.00 241.00
C 713.00 311.33 713.00 381.67 713.00 452.00
C 730.00 452.00 747.00 452.00 764.00 452.00
C 764.58 412.40 762.79 372.19 765.00 333.00 C 764.71 294.89 806.61 281.71 839.00 287.00 Z"/>
</g>
<g fill="#FFFFFF" fill-opacity="1.00" stroke="None">
<path d="
M 1049.00 452.00 
C 1038.57 404.12 1047.31 351.43 1043.00 302.00 C 1041.68 256.14 992.88 233.74 952.01 237.01 C 912.56 236.58 864.74 258.83 862.00 303.00
C 878.33 303.00 894.67 303.00 911.00 303.00
C 914.89 280.51 941.08 274.45 960.93 276.07 C 983.81 276.44 996.41 299.59 992.00 321.00
C 951.81 327.75 907.50 326.84 874.25 353.25 C 844.21 378.96 850.52 435.22 888.92 449.08 C 924.83 463.85 974.39 455.47 994.00 419.00
C 994.02 428.24 994.13 437.50 997.00 446.00 C 996.36 457.34 1012.88 449.85 1020.00 452.00 C 1029.67 452.00 1039.33 452.00 1049.00 452.00
M 992.00 353.00 
C 993.15 373.48 994.06 398.17 972.92 407.92 C 955.97 417.81 931.57 420.94 914.75 409.25 C 898.75 395.65 908.78 368.28 928.08 364.08 C 948.84 358.32 970.79 357.11 992.00 353.00 Z"/>
</g>
<g fill="#FFFFFF" fill-opacity="1.00" stroke="None">
<path d="
M 1245.00 452.00 
C 1261.99 451.49 1279.65 453.03 1296.22 451.22 C 1298.04 434.95 1296.48 417.66 1297.00 401.00 C 1292.29 355.09 1308.99 301.78 1282.30 262.70 C 1247.25 219.92 1172.92 233.81 1147.00 280.00
C 1147.00 267.00 1147.00 254.00 1147.00 241.00
C 1130.20 241.26 1114.10 240.91 1097.00 241.00
C 1097.00 311.33 1097.00 381.67 1097.00 452.00
C 1114.00 452.00 1131.00 452.00 1148.00 452.00
C 1148.00 422.33 1148.00 392.67 1148.00 363.00 C 1147.75 338.29 1146.27 310.69 1166.75 293.75 C 1183.79 277.71 1213.77 274.42 1233.25 287.75 C 1252.00 307.86 1242.67 338.37 1245.00 364.00 C 1245.00 393.33 1245.00 422.67 1245.00 452.00 Z"/>
</g>
<g fill="#FFFFFF" fill-opacity="1.00" stroke="None">
<path d="
M 2048.00 452.00 
C 2038.79 405.55 2044.66 355.34 2043.00 307.00 C 2047.50 262.58 2004.75 231.45 1963.00 237.00 C 1924.31 235.53 1879.02 259.93 1879.00 303.00
C 1889.33 303.00 1899.67 303.00 1910.00 303.00
C 1912.85 274.58 1944.93 262.10 1970.00 266.00 C 1999.76 262.41 2018.35 297.31 2009.00 322.00 C 1980.83 326.30 1952.48 329.96 1925.07 337.07 C 1884.69 342.95 1858.25 389.60 1879.75 426.25 C 1909.35 469.47 1985.71 465.70 2013.00 422.00
C 2013.01 432.16 2013.13 442.36 2016.33 451.67 C 2026.73 452.44 2037.47 451.78 2048.00 452.00
M 2011.00 349.00 
C 2011.49 374.12 2015.24 406.18 1988.31 418.31 C 1966.68 429.67 1935.73 433.11 1914.75 418.25 C 1895.08 401.95 1906.92 366.92 1931.69 362.69 C 1957.43 355.70 1984.38 352.85 2011.00 349.00 Z"/>
</g>
<g fill="#FFFFFF" fill-opacity="1.00" stroke="None">
<path d="
M 2141.00 419.00 
C 2169.80 468.43 2248.79 466.69 2282.25 423.25 C 2316.50 379.21 2316.08 308.09 2279.75 265.25 C 2242.99 223.20 2166.38 228.61 2138.00 277.00
C 2138.00 265.00 2138.00 253.00 2138.00 241.00
C 2127.67 241.00 2117.33 241.00 2107.00 241.00
C 2107.00 339.33 2107.00 437.67 2107.00 536.00
C 2118.00 536.00 2129.00 536.00 2140.00 536.00
C 2140.67 497.15 2138.67 457.10 2141.00 419.00
M 2213.00 266.00 
C 2255.21 268.64 2277.31 314.06 2273.00 353.00 C 2273.97 392.93 2241.70 433.87 2198.00 426.00 C 2156.08 424.09 2133.41 377.50 2138.98 339.98 C 2136.48 299.68 2170.75 260.30 2213.00 266.00 Z"/>
</g>
<g fill="#FFFFFF" fill-opacity="1.00" stroke="None">
<path d="
M 2772.00 452.00 
C 2762.48 405.63 2768.86 355.29 2767.00 307.00 C 2771.08 262.78 2728.82 231.46 2687.00 237.00 C 2648.50 235.53 2602.53 259.86 2603.00 303.00
C 2615.11 300.67 2637.27 310.25 2637.03 292.03 C 2646.33 268.12 2676.30 263.39 2698.99 266.01 C 2726.20 266.63 2738.39 295.78 2734.90 319.90 C 2711.07 326.94 2684.07 328.78 2659.07 334.07 C 2625.41 339.49 2588.83 366.48 2597.00 405.00 C 2605.00 468.87 2709.25 473.22 2736.00 421.00
C 2738.11 430.35 2736.37 441.90 2739.78 451.22 C 2750.05 453.03 2761.34 451.48 2772.00 452.00
M 2735.00 349.00 
C 2735.55 374.14 2739.00 406.00 2712.30 418.30 C 2690.29 429.82 2659.85 432.70 2638.30 418.70 C 2619.31 401.23 2630.65 366.99 2655.69 362.69 C 2681.40 355.55 2708.39 352.90 2735.00 349.00 Z"/>
</g>
<g fill="#FFFFFF" fill-opacity="1.00" stroke="None">
<path d="
M 401.00 452.00 
C 400.11 381.95 402.77 310.53 399.67 241.33 C 383.00 240.42 365.13 241.42 349.00 241.00
C 349.00 311.33 349.00 381.67 349.00 452.00
C 366.33 452.00 383.67 452.00 401.00 452.00 Z"/>
</g>
<g fill="#FFFFFF" fill-opacity="1.00" stroke="None">
<path d="
M 2390.00 241.00 
C 2378.95 241.86 2366.53 239.26 2356.33 242.33 C 2355.56 312.07 2356.22 382.14 2356.00 452.00
C 2367.33 452.00 2378.67 452.00 2390.00 452.00
C 2390.00 381.67 2390.00 311.33 2390.00 241.00 Z"/>
</g>
<g fill="#000000" fill-opacity="1.00" stroke="None">
<path d="
M 2213.00 266.00 
C 2170.75 260.30 2136.48 299.68 2138.98 339.98 C 2133.41 377.50 2156.08 424.09 2198.00 426.00 C 2241.70 433.87 2273.97 392.93 2273.00 353.00 C 2277.31 314.06 2255.21 268.64 2213.00 266.00 Z"/>
</g>
<g fill="#000000" fill-opacity="1.00" stroke="None">
<path d="
M 575.00 280.00 
C 540.12 272.62 508.01 300.92 508.00 335.00 C 502.61 366.38 516.31 406.18 550.98 412.02 C 585.25 421.33 617.00 392.30 618.00 359.00 C 622.17 326.39 609.72 287.39 575.00 280.00 Z"/>
</g>
<g fill="#000000" fill-opacity="1.00" stroke="None">
<path d="
M 2011.00 349.00 
C 1984.38 352.85 1957.43 355.70 1931.69 362.69 C 1906.92 366.92 1895.08 401.95 1914.75 418.25 C 1935.73 433.11 1966.68 429.67 1988.31 418.31 C 2015.24 406.18 2011.49 374.12 2011.00 349.00 Z"/>
</g>
<g fill="#000000" fill-opacity="1.00" stroke="None">
<path d="
M 2735.00 349.00 
C 2708.39 352.90 2681.40 355.55 2655.69 362.69 C 2630.65 366.99 2619.31 401.23 2638.30 418.70 C 2659.85 432.70 2690.29 429.82 2712.30 418.30 C 2739.00 406.00 2735.55 374.14 2735.00 349.00 Z"/>
</g>
<g fill="#000000" fill-opacity="1.00" stroke="None">
<path d="
M 992.00 353.00 
C 970.79 357.11 948.84 358.32 928.08 364.08 C 908.78 368.28 898.75 395.65 914.75 409.25 C 931.57 420.94 955.97 417.81 972.92 407.92 C 994.06 398.17 993.15 373.48 992.00 353.00 Z"/>
</g>
<g fill="#FFFFFF" fill-opacity="1.00" stroke="None">
<path d="
M 3165.00 353.00 
C 3134.77 349.58 3119.91 381.14 3105.75 401.75 C 3093.06 418.57 3074.74 459.49 3049.75 437.25 C 3040.09 428.75 3035.57 415.94 3025.67 408.33 C 3007.00 411.15 3025.82 430.46 3031.75 438.25 C 3039.70 448.61 3050.62 458.40 3064.00 459.00 C 3091.89 456.56 3104.36 426.80 3119.08 407.08 C 3129.65 388.59 3153.21 349.63 3175.75 377.25 C 3202.54 403.27 3212.59 453.93 3254.93 458.93 C 3293.67 446.46 3302.66 400.34 3330.75 374.75 C 3355.05 351.33 3375.05 393.30 3386.75 410.25 C 3400.91 429.41 3415.56 461.80 3443.99 457.99 C 3469.82 451.13 3481.79 422.89 3496.08 403.08 C 3499.18 392.74 3520.82 380.17 3508.07 370.93 C 3495.58 370.86 3490.37 388.55 3483.25 397.25 C 3475.82 407.89 3469.25 419.00 3461.25 429.25 C 3453.76 438.87 3440.05 451.33 3428.70 440.30 C 3408.35 423.77 3398.54 399.17 3382.77 379.23 C 3370.22 354.59 3335.18 341.63 3317.25 368.25 C 3299.61 387.37 3288.72 410.63 3272.75 430.75 C 3264.69 441.18 3249.87 451.09 3239.25 438.75 C 3210.74 413.67 3201.29 369.30 3165.00 353.00 Z"/>
</g>
<g fill="#FFFFFF" fill-opacity="1.00" stroke="None">
<path d="
M 2575.00 569.00 
C 2561.36 561.59 2541.55 573.35 2546.00 590.00 C 2549.96 602.65 2529.38 591.32 2534.00 604.00
C 2552.57 598.93 2544.26 621.28 2546.00 632.00 C 2546.00 645.33 2546.00 658.67 2546.00 672.00
C 2562.33 674.54 2552.22 651.67 2555.00 642.00 C 2555.00 629.33 2555.00 616.67 2555.00 604.00
C 2561.23 603.05 2574.05 607.71 2571.00 597.00
C 2565.67 597.00 2560.33 597.00 2555.00 597.00
C 2551.81 584.38 2558.46 571.49 2573.00 576.00
C 2572.98 573.46 2574.01 571.24 2575.00 569.00 Z"/>
</g>
<g fill="#FFFFFF" fill-opacity="1.00" stroke="None">
<path d="
M 1274.00 571.00 
C 1266.29 569.12 1261.06 581.08 1269.33 583.67 C 1277.88 586.64 1281.09 574.37 1274.00 571.00 Z"/>
</g>
<g fill="#FFFFFF" fill-opacity="1.00" stroke="None">
<path d="
M 1888.00 571.00 
C 1880.29 569.12 1875.06 581.08 1883.33 583.67 C 1891.73 586.80 1895.30 574.15 1888.00 571.00 Z"/>
</g>
<g fill="#22C55E" fill-opacity="1.00" stroke="None">
<path d="
M 729.00 572.00
C 709.33 572.00 689.67 572.00 670.00 572.00
C 670.00 605.33 670.00 638.67 670.00 672.00
C 681.33 672.00 692.67 672.00 704.00 672.00 C 712.57 669.57 732.80 678.45 730.00 664.00
C 713.33 664.00 696.67 664.00 680.00 664.00
C 680.00 651.33 680.00 638.67 680.00 626.00
C 695.33 626.00 710.67 626.00 726.00 626.00
C 729.64 613.01 714.62 617.77 707.00 617.00 C 698.00 617.00 689.00 617.00 680.00 617.00
C 680.00 604.67 680.00 592.33 680.00 580.00
C 689.67 580.00 699.33 580.00 709.00 580.00 C 716.43 578.54 732.46 584.87 729.00 572.00 Z"/>
</g>
<g fill="#FFFFFF" fill-opacity="1.00" stroke="None">
<path d="
M 1560.00 572.00 
C 1557.00 572.00 1554.00 572.00 1551.00 572.00
C 1551.00 605.33 1551.00 638.67 1551.00 672.00
C 1554.00 672.00 1557.00 672.00 1560.00 672.00
C 1563.82 649.65 1547.73 607.66 1580.00 604.00 C 1612.22 606.81 1594.45 650.00 1599.00 672.00
C 1602.00 672.00 1605.00 672.00 1608.00 672.00
C 1606.22 650.64 1611.79 627.04 1604.77 607.23 C 1596.12 591.60 1568.10 591.62 1561.00 608.00
C 1558.67 596.99 1560.67 583.83 1560.00 572.00 Z"/>
</g>
<g fill="#FFFFFF" fill-opacity="1.00" stroke="None">
<path d="
M 1810.00 572.00 
C 1807.00 572.00 1804.00 572.00 1801.00 572.00
C 1801.00 605.33 1801.00 638.67 1801.00 672.00
C 1804.00 672.00 1807.00 672.00 1810.00 672.00
C 1813.82 649.65 1797.73 607.66 1830.00 604.00 C 1862.03 606.94 1844.56 649.98 1849.00 672.00
C 1852.00 672.00 1855.00 672.00 1858.00 672.00
C 1856.22 650.62 1861.80 627.20 1854.75 607.25 C 1845.51 591.38 1818.40 592.03 1810.00 608.00
C 1810.00 596.00 1810.00 584.00 1810.00 572.00 Z"/>
</g>
<g fill="#FFFFFF" fill-opacity="1.00" stroke="None">
<path d="
M 2020.00 572.00 
C 2017.00 572.00 2014.00 572.00 2011.00 572.00
C 2010.34 584.51 2012.32 598.24 2010.00 610.00
C 1993.83 579.06 1948.99 604.36 1956.00 635.00 C 1948.95 665.58 1995.65 690.20 2010.00 658.00
C 2012.30 661.67 2010.36 667.50 2011.00 672.00
C 2014.00 672.00 2017.00 672.00 2020.00 672.00
C 2020.00 638.67 2020.00 605.33 2020.00 572.00
M 1994.00 604.00 
C 2020.58 614.61 2015.87 670.57 1982.33 664.67 C 1954.55 655.41 1959.86 597.60 1994.00 604.00 Z"/>
</g>
<g fill="#22C55E" fill-opacity="1.00" stroke="None">
<path d="
M 2666.00 572.00
C 2662.33 572.00 2658.67 572.00 2655.00 572.00
C 2644.22 605.69 2631.12 638.70 2619.00 672.00
C 2641.15 677.16 2627.89 635.54 2651.00 642.00 C 2661.33 642.00 2671.67 642.00 2682.00 642.00
C 2684.70 652.22 2689.52 661.79 2692.00 672.00
C 2695.33 672.00 2698.67 672.00 2702.00 672.00
C 2690.47 638.50 2677.69 605.41 2666.00 572.00
M 2661.00 584.00
C 2666.66 600.34 2673.17 616.43 2678.00 633.00
C 2666.33 633.00 2654.67 633.00 2643.00 633.00
C 2649.21 616.79 2654.06 599.56 2661.00 584.00 Z"/>
</g>
<g fill="#22C55E" fill-opacity="1.00" stroke="None">
<path d="
M 2728.00 572.00
C 2725.00 572.00 2722.00 572.00 2719.00 572.00
C 2719.00 605.33 2719.00 638.67 2719.00 672.00
C 2722.00 672.00 2725.00 672.00 2728.00 672.00
C 2728.00 638.67 2728.00 605.33 2728.00 572.00 Z"/>
</g>
<g fill="#FFFFFF" fill-opacity="1.00" stroke="None">
<path d="
M 1514.00 579.00 
C 1511.00 579.00 1508.00 579.00 1505.00 579.00
C 1505.00 585.00 1505.00 591.00 1505.00 597.00
C 1499.27 596.69 1491.31 595.64 1494.00 604.00
C 1510.73 599.40 1503.58 619.32 1505.00 629.00 C 1505.78 640.34 1503.22 652.68 1506.75 663.25 C 1511.58 671.94 1522.83 675.12 1532.00 672.00
C 1532.09 669.18 1530.33 666.94 1531.00 664.00
C 1516.22 668.40 1511.44 653.82 1514.00 642.00 C 1514.00 629.33 1514.00 616.67 1514.00 604.00
C 1520.23 603.05 1533.05 607.71 1530.00 597.00
C 1524.67 597.00 1519.33 597.00 1514.00 597.00
C 1514.00 591.00 1514.00 585.00 1514.00 579.00 Z"/>
</g>
<g fill="#FFFFFF" fill-opacity="1.00" stroke="None">
<path d="
M 1764.00 579.00 
C 1761.00 579.00 1758.00 579.00 1755.00 579.00
C 1755.00 585.00 1755.00 591.00 1755.00 597.00
C 1749.27 596.69 1741.31 595.64 1744.00 604.00
C 1747.67 604.00 1751.33 604.00 1755.00 604.00
C 1755.00 620.33 1755.00 636.67 1755.00 653.00 C 1752.73 667.50 1769.55 676.91 1782.00 672.00
C 1781.70 669.22 1781.14 666.53 1780.00 664.00
C 1765.35 668.15 1761.78 653.24 1764.00 642.00 C 1764.00 629.33 1764.00 616.67 1764.00 604.00
C 1770.23 603.05 1783.05 607.71 1780.00 597.00
C 1774.67 597.00 1769.33 597.00 1764.00 597.00
C 1764.00 591.00 1764.00 585.00 1764.00 579.00 Z"/>
</g>
<g fill="#000000" fill-opacity="1.00" stroke="None">
<path d="
M 2661.00 584.00 
C 2654.06 599.56 2649.21 616.79 2643.00 633.00
C 2654.67 633.00 2666.33 633.00 2678.00 633.00
C 2673.17 616.43 2666.66 600.34 2661.00 584.00 Z"/>
</g>
<g fill="#FFFFFF" fill-opacity="1.00" stroke="None">
<path d="
M 1252.00 596.00 
C 1243.26 594.24 1231.76 597.98 1228.00 607.00
C 1225.75 604.65 1227.61 600.17 1227.00 597.00
C 1224.00 597.00 1221.00 597.00 1218.00 597.00
C 1218.00 622.00 1218.00 647.00 1218.00 672.00
C 1221.00 672.00 1224.00 672.00 1227.00 672.00
C 1227.00 656.33 1227.00 640.67 1227.00 625.00 C 1224.94 611.64 1240.01 600.89 1252.00 605.00
C 1252.00 602.00 1252.00 599.00 1252.00 596.00 Z"/>
</g>
<g fill="#FFFFFF" fill-opacity="1.00" stroke="None">
<path d="
M 1947.00 605.00 
C 1950.89 587.71 1925.93 597.01 1923.00 607.00
C 1920.75 604.65 1922.61 600.17 1922.00 597.00
C 1919.00 597.00 1916.00 597.00 1913.00 597.00
C 1913.00 622.00 1913.00 647.00 1913.00 672.00
C 1916.00 672.00 1919.00 672.00 1922.00 672.00
C 1922.00 656.33 1922.00 640.67 1922.00 625.00 C 1919.77 611.63 1935.07 600.81 1947.00 605.00 Z"/>
</g>
<g fill="#FFFFFF" fill-opacity="1.00" stroke="None">
<path d="
M 800.00 609.00 
C 793.96 591.37 766.28 591.83 759.00 608.00
C 759.00 604.33 759.00 600.67 759.00 597.00
C 756.00 597.00 753.00 597.00 750.00 597.00
C 750.00 622.00 750.00 647.00 750.00 672.00
C 753.00 672.00 756.00 672.00 759.00 672.00
C 759.70 653.47 757.52 634.31 760.23 616.23 C 764.22 600.91 789.92 599.24 793.00 616.00 C 793.00 634.67 793.00 653.33 793.00 672.00
C 796.33 672.00 799.67 672.00 803.00 672.00
C 807.90 650.42 789.83 608.83 820.00 604.00 C 849.84 608.86 832.26 650.44 837.00 672.00
C 840.00 672.00 843.00 672.00 846.00 672.00
C 844.62 650.47 849.15 627.33 842.92 607.08 C 834.85 590.20 807.47 593.25 800.00 609.00 Z"/>
</g>
<g fill="#FFFFFF" fill-opacity="1.00" stroke="None">
<path d="
M 878.00 658.00 
C 892.74 690.67 939.54 664.83 932.00 634.00 C 938.73 603.45 892.41 578.90 878.00 611.00
C 875.70 607.33 877.64 601.50 877.00 597.00
C 874.00 597.00 871.00 597.00 868.00 597.00
C 868.00 622.00 868.00 647.00 868.00 672.00 C 870.49 681.22 861.14 702.89 877.00 700.00
C 877.66 686.15 875.68 671.09 878.00 658.00
M 906.00 604.00 
C 933.15 613.77 928.12 671.20 894.33 664.67 C 867.02 654.62 872.25 598.39 906.00 604.00 Z"/>
</g>
<g fill="#FFFFFF" fill-opacity="1.00" stroke="None">
<path d="
M 988.00 596.00 
C 942.10 586.54 931.71 662.74 973.00 673.00 C 1018.76 681.92 1028.23 607.10 988.00 596.00
M 986.00 604.00 
C 1014.81 613.65 1009.56 670.23 975.00 665.00 C 945.20 656.21 951.41 598.16 986.00 604.00 Z"/>
</g>
<g fill="#FFFFFF" fill-opacity="1.00" stroke="None">
<path d="
M 1199.00 637.00 
C 1203.99 611.83 1178.92 587.01 1154.23 598.23 C 1132.18 608.68 1128.88 640.11 1140.75 659.25 C 1152.70 679.08 1188.54 678.34 1197.00 656.00
C 1188.50 648.22 1185.48 661.41 1177.68 663.68 C 1159.93 670.99 1141.49 655.20 1143.00 637.00
C 1161.67 637.00 1180.33 637.00 1199.00 637.00
M 1190.00 629.00 
C 1174.33 629.00 1158.67 629.00 1143.00 629.00
C 1141.56 597.33 1192.75 596.29 1190.00 629.00 Z"/>
</g>
<g fill="#FFFFFF" fill-opacity="1.00" stroke="None">
<path d="
M 1356.00 672.00 
C 1354.23 650.74 1359.94 627.35 1352.30 607.70 C 1344.26 591.29 1316.08 592.00 1308.00 608.00
C 1308.00 604.33 1308.00 600.67 1308.00 597.00
C 1305.00 597.00 1302.00 597.00 1299.00 597.00
C 1299.00 622.00 1299.00 647.00 1299.00 672.00
C 1302.00 672.00 1305.00 672.00 1308.00 672.00
C 1311.82 649.65 1295.73 607.66 1328.00 604.00 C 1359.70 607.54 1342.74 650.02 1347.00 672.00
C 1350.00 672.00 1353.00 672.00 1356.00 672.00 Z"/>
</g>
<g fill="#FFFFFF" fill-opacity="1.00" stroke="None">
<path d="
M 1430.00 611.00 
C 1415.05 580.18 1368.92 601.81 1375.00 633.00 C 1367.74 663.64 1413.47 687.30 1429.00 657.00
C 1428.63 669.53 1432.56 686.73 1418.01 692.01 C 1406.96 695.42 1391.40 693.90 1386.00 682.00
C 1382.80 682.13 1380.91 685.04 1378.00 686.00
C 1385.11 701.96 1407.25 704.63 1421.98 698.98 C 1450.80 685.65 1433.14 645.62 1438.00 620.00 C 1436.01 612.04 1443.75 593.80 1430.00 597.00
C 1430.00 601.67 1430.00 606.33 1430.00 611.00
M 1413.00 604.00 
C 1439.34 614.34 1434.36 668.99 1401.78 662.22 C 1372.61 655.20 1379.55 596.84 1413.00 604.00 Z"/>
</g>
<g fill="#FFFFFF" fill-opacity="1.00" stroke="None">
<path d="
M 1692.00 637.00 
C 1697.30 611.73 1671.89 586.75 1647.23 598.23 C 1625.65 609.09 1622.09 639.90 1633.75 659.25 C 1645.60 679.11 1683.41 678.50 1690.00 655.00
C 1687.07 655.22 1684.77 653.27 1682.00 653.00
C 1670.40 676.52 1633.41 662.71 1636.00 638.00
C 1654.14 635.68 1673.42 637.66 1692.00 637.00
M 1683.00 629.00 
C 1667.67 629.00 1652.33 629.00 1637.00 629.00
C 1633.81 597.28 1686.53 596.46 1683.00 629.00 Z"/>
</g>
<g fill="#FFFFFF" fill-opacity="1.00" stroke="None">
<path d="
M 2247.00 672.00 
C 2244.13 649.65 2253.30 623.01 2241.25 603.75 C 2227.71 589.96 2198.52 593.98 2192.00 613.00
C 2203.11 620.21 2206.85 600.91 2219.00 604.00 C 2230.70 601.52 2240.99 612.27 2237.92 623.92 C 2222.45 632.53 2186.06 625.86 2190.02 654.98 C 2193.25 677.04 2227.96 680.43 2237.00 661.00
C 2239.27 663.68 2237.38 668.50 2238.00 672.00
C 2241.00 672.00 2244.00 672.00 2247.00 672.00
M 2238.00 633.00 
C 2239.79 645.85 2236.33 661.00 2222.78 664.78 C 2210.02 669.24 2191.94 657.97 2201.25 644.25 C 2210.13 634.17 2226.46 638.41 2238.00 633.00 Z"/>
</g>
<g fill="#FFFFFF" fill-opacity="1.00" stroke="None">
<path d="
M 2401.00 637.00 
C 2405.97 611.82 2380.90 587.00 2356.23 598.23 C 2334.32 608.71 2330.54 640.15 2342.75 659.25 C 2354.70 679.09 2390.52 678.26 2399.00 656.00
C 2390.50 648.22 2387.48 661.42 2379.68 663.68 C 2361.93 671.00 2343.49 655.20 2345.00 637.00
C 2363.66 637.00 2382.34 637.00 2401.00 637.00
M 2392.00 629.00 
C 2376.33 629.00 2360.66 629.00 2345.00 629.00
C 2343.59 597.21 2394.61 596.42 2392.00 629.00 Z"/>
</g>
<g fill="#FFFFFF" fill-opacity="1.00" stroke="None">
<path d="
M 2496.00 596.00 
C 2450.21 586.19 2439.34 661.66 2480.00 673.00 C 2526.05 682.67 2536.07 607.39 2496.00 596.00
M 2494.00 604.00 
C 2522.57 613.49 2516.81 671.47 2482.33 664.67 C 2452.60 655.98 2459.47 597.37 2494.00 604.00 Z"/>
</g>
<g fill="#FFFFFF" fill-opacity="1.00" stroke="None">
<path d="
M 1051.00 658.00 
C 1047.50 646.71 1044.26 635.36 1040.98 624.02 C 1035.77 614.84 1039.59 593.86 1024.00 597.00
C 1030.96 622.13 1039.58 646.76 1046.00 672.00
C 1049.33 672.00 1052.67 672.00 1056.00 672.00
C 1061.71 651.65 1066.89 630.62 1074.00 611.00
C 1080.57 631.17 1085.79 651.74 1092.00 672.00
C 1105.51 675.69 1103.59 659.29 1107.22 651.22 C 1113.19 633.30 1118.04 614.96 1124.00 597.00
C 1120.67 597.00 1117.33 597.00 1114.00 597.00
C 1108.62 617.44 1103.18 638.48 1096.00 658.00
C 1090.60 637.57 1084.14 617.46 1079.00 597.00
C 1075.67 597.00 1072.33 597.00 1069.00 597.00
C 1062.65 617.19 1058.28 638.44 1051.00 658.00 Z"/>
</g>
<g fill="#FFFFFF" fill-opacity="1.00" stroke="None">
<path d="
M 1276.00 597.00 
C 1273.00 597.00 1270.00 597.00 1267.00 597.00
C 1267.00 622.00 1267.00 647.00 1267.00 672.00
C 1270.00 672.00 1273.00 672.00 1276.00 672.00
C 1276.00 647.00 1276.00 622.00 1276.00 597.00 Z"/>
</g>
<g fill="#FFFFFF" fill-opacity="1.00" stroke="None">
<path d="
M 1890.00 597.00 
C 1887.00 597.00 1884.00 597.00 1881.00 597.00
C 1881.00 622.00 1881.00 647.00 1881.00 672.00
C 1884.00 672.00 1887.00 672.00 1890.00 672.00
C 1890.00 647.00 1890.00 622.00 1890.00 597.00 Z"/>
</g>
<g fill="#FFFFFF" fill-opacity="1.00" stroke="None">
<path d="
M 2087.00 597.00 
C 2083.67 597.00 2080.33 597.00 2077.00 597.00
C 2083.84 622.16 2092.78 646.70 2099.00 672.00
C 2102.33 672.00 2105.67 672.00 2109.00 672.00
C 2114.78 651.66 2119.95 630.62 2127.00 611.00
C 2133.84 631.09 2138.77 651.75 2145.00 672.00
C 2158.51 675.69 2156.59 659.29 2160.22 651.22 C 2166.20 633.30 2171.07 614.97 2177.00 597.00
C 2173.67 597.00 2170.33 597.00 2167.00 597.00
C 2161.68 617.46 2156.19 638.49 2149.00 658.00
C 2143.47 637.61 2137.22 617.43 2132.00 597.00
C 2128.67 597.00 2125.33 597.00 2122.00 597.00
C 2115.67 617.19 2111.34 638.46 2104.00 658.00
C 2098.32 637.67 2091.26 617.70 2087.00 597.00 Z"/>
</g>
<g fill="#FFFFFF" fill-opacity="1.00" stroke="None">
<path d="
M 2294.00 660.00 
C 2288.61 649.09 2285.70 636.50 2280.98 625.02 C 2274.90 615.68 2277.84 594.15 2262.00 597.00
C 2267.71 615.75 2275.40 633.80 2281.69 652.31 C 2286.05 660.50 2285.32 676.13 2299.00 672.00
C 2306.90 646.65 2316.95 622.00 2326.00 597.00
C 2322.67 597.00 2319.33 597.00 2316.00 597.00
C 2308.92 618.07 2301.23 639.00 2294.00 660.00 Z"/>
</g>
<g fill="#000000" fill-opacity="1.00" stroke="None">
<path d="
M 906.00 604.00 
C 872.25 598.39 867.02 654.62 894.33 664.67 C 928.12 671.20 933.15 613.77 906.00 604.00 Z"/>
</g>
<g fill="#000000" fill-opacity="1.00" stroke="None">
<path d="
M 986.00 604.00 
C 951.41 598.16 945.20 656.21 975.00 665.00 C 1009.56 670.23 1014.81 613.65 986.00 604.00 Z"/>
</g>
<g fill="#000000" fill-opacity="1.00" stroke="None">
<path d="
M 1190.00 629.00 
C 1192.75 596.29 1141.56 597.33 1143.00 629.00
C 1158.67 629.00 1174.33 629.00 1190.00 629.00 Z"/>
</g>
<g fill="#000000" fill-opacity="1.00" stroke="None">
<path d="
M 1413.00 604.00 
C 1379.55 596.84 1372.61 655.20 1401.78 662.22 C 1434.36 668.99 1439.34 614.34 1413.00 604.00 Z"/>
</g>
<g fill="#000000" fill-opacity="1.00" stroke="None">
<path d="
M 1683.00 629.00 
C 1686.53 596.46 1633.81 597.28 1637.00 629.00
C 1652.33 629.00 1667.67 629.00 1683.00 629.00 Z"/>
</g>
<g fill="#000000" fill-opacity="1.00" stroke="None">
<path d="
M 1994.00 604.00 
C 1959.86 597.60 1954.55 655.41 1982.33 664.67 C 2015.87 670.57 2020.58 614.61 1994.00 604.00 Z"/>
</g>
<g fill="#000000" fill-opacity="1.00" stroke="None">
<path d="
M 2392.00 629.00 
C 2394.61 596.42 2343.59 597.21 2345.00 629.00
C 2360.66 629.00 2376.33 629.00 2392.00 629.00 Z"/>
</g>
<g fill="#000000" fill-opacity="1.00" stroke="None">
<path d="
M 2494.00 604.00 
C 2459.47 597.37 2452.60 655.98 2482.33 664.67 C 2516.81 671.47 2522.57 613.49 2494.00 604.00 Z"/>
</g>
<g fill="#000000" fill-opacity="1.00" stroke="None">
<path d="
M 2238.00 633.00 
C 2226.46 638.41 2210.13 634.17 2201.25 644.25 C 2191.94 657.97 2210.02 669.24 2222.78 664.78 C 2236.33 661.00 2239.79 645.85 2238.00 633.00 Z"/>
</g>
<g fill="#FFFFFF" fill-opacity="1.00" stroke="None">
<path d="
M 2761.00 658.00 
C 2752.01 657.50 2750.17 671.04 2758.99 672.99 C 2768.40 673.82 2769.80 659.54 2761.00 658.00 Z"/>
</g>
</svg>